<svg width="350" height="550" viewBox="0 0 350 550" fill="none" xmlns="http://www.w3.org/2000/svg">
<path d="M248.142 389.908C239.574 386.962 225.078 387.4 225.078 387.4C225.078 387.4 221.327 400.602 219.934 404.116C218.542 407.63 214.667 424.519 213.208 425.976C211.749 427.432 219.45 428.294 222.979 430.615C226.901 433.195 229.107 434.903 231.889 438.684C235.162 443.133 235.363 446.576 237.365 451.723C239.53 457.291 240.133 460.648 242.496 466.134C244.433 470.632 248.059 477.373 248.059 477.373C248.059 477.373 252.654 484.732 257.138 487.671C262.336 491.078 266.276 491.596 272.483 491.888C279.885 492.235 284.097 490.458 291.009 487.789C298.842 484.765 302.914 482.008 309.456 476.745C316.101 471.399 324.391 460.81 324.391 460.81L311.781 466.029C311.781 466.029 306.421 468.39 302.947 467.821C298.721 467.129 296.69 464.844 293.95 461.553C290.519 457.432 289.16 448.686 289.16 448.686C289.16 448.686 286.973 436.051 284.034 428.444C279.883 417.698 268.881 403.134 268.881 403.134C268.881 403.134 257.226 393.032 248.142 389.908Z" fill="#807F7F" stroke="#595959" stroke-width="2" stroke-linecap="round"/>
<path d="M285.5 437C285.5 437 277.469 402.305 273.667 426.135C269.864 449.965 242.931 421.36 246 431C249.069 440.639 238.5 450.098 238.5 450.098C238.5 450.098 241.118 459.303 243.5 464.904C245.452 469.495 249.5 477.5 249.5 477.5C249.5 477.5 252.768 483.739 257 487C261.905 490.78 266.611 491.345 272.379 491.345C280.5 491.345 282.991 490.875 289.238 488.803C296.316 486.455 299.95 484.067 305.757 479.407C311.655 474.673 321.5 463 321.5 463L307.48 469.029C307.48 469.029 301.474 469.697 299 468C297.5 466.971 299 469.029 293.5 462C290.136 457.701 285.5 437 285.5 437Z" fill="#C5BB9B"/>
<path d="M211.057 475.952C208.51 466.674 208.585 451.845 208.614 449.509L202.29 448.507L191.931 442.284L181.886 435.19L182.222 464.668L183.069 491.149L184.441 506.2L179.78 506.624C177.656 506.818 176.372 506.443 174.342 507.12C172.78 507.641 171.86 508.021 170.61 509.146C169.625 510.033 168.508 511.867 168.508 511.867C168.508 511.867 167.059 511.091 166.063 510.825C163.689 510.193 162.139 510.525 159.849 511.392C157.928 512.119 157.049 513.025 155.416 514.325C153.591 515.779 152.156 516.349 151.098 518.512C149.881 521.003 150.521 522.898 150.581 525.726C150.626 527.856 149.803 529.511 151.076 531.161C152.171 532.58 153.452 532.72 155.151 532.897C157.148 533.106 159.423 532.508 160.124 531.601C159.441 533.237 159.575 534.714 160.543 536.2C161.23 537.255 163.064 538.078 163.064 538.078L168.616 538.837L173.277 538.412C174.611 541.524 175.809 543.407 178.586 545.094C183.123 547.851 187.02 545.996 191.792 543.891C196.151 541.968 197.306 538.634 201.243 535.863C205.104 533.146 207.511 532.032 211.661 529.855C217.392 526.849 223.544 528.955 226.703 523.004C227.916 520.718 228.346 519.163 228.462 516.521C228.647 512.316 225.179 506.281 225.179 506.281L219.024 494.617C219.024 494.617 213.166 483.633 211.057 475.952Z" fill="#807F7F"/>
<path d="M208.619 449.195C208.619 449.195 208.286 465.858 211.057 475.952C213.166 483.633 219.024 494.617 219.024 494.617L225.179 506.281C225.179 506.281 228.647 512.316 228.462 516.521C228.346 519.163 227.916 520.718 226.703 523.004C223.544 528.955 217.392 526.849 211.661 529.855C207.511 532.032 205.104 533.146 201.243 535.863C197.306 538.634 196.151 541.968 191.792 543.891C187.02 545.996 183.123 547.851 178.586 545.094C175.809 543.407 174.611 541.524 173.277 538.412M173.277 538.412C171.674 534.673 171.251 531.875 172.324 527.96C173.149 524.952 174.012 523.029 176.414 521.264C179.54 518.967 186.124 520.379 186.124 520.379L192.339 519.813M173.277 538.412L168.616 538.837L163.064 538.078C163.064 538.078 161.23 537.255 160.543 536.2C159.575 534.714 159.441 533.237 160.124 531.601M160.124 531.601C159.886 528.989 158.968 527.459 159.514 524.912C160.074 522.301 162.903 519.123 162.903 519.123C162.903 519.123 165.471 516.171 167.648 515.318C169.644 514.536 173.085 514.822 173.085 514.822L177.51 516.105M160.124 531.601C159.423 532.508 157.148 533.106 155.151 532.897C153.452 532.72 152.171 532.58 151.076 531.161C149.803 529.511 150.626 527.856 150.581 525.726C150.521 522.898 149.881 521.003 151.098 518.512C152.156 516.349 153.591 515.779 155.416 514.325C157.049 513.025 157.928 512.119 159.849 511.392C162.139 510.525 163.689 510.193 166.063 510.825C167.059 511.091 168.508 511.867 168.508 511.867C168.508 511.867 169.625 510.033 170.61 509.146C171.86 508.021 172.78 507.641 174.342 507.12C176.372 506.443 177.656 506.818 179.78 506.624L184.441 506.2M184.441 506.2L190.267 505.669M184.441 506.2L183.069 491.149L182.222 464.668L181.886 435.19L191.931 442.284L202.29 448.507L209.045 449.577" stroke="#595959" stroke-width="2" stroke-linecap="round"/>
<path d="M129.355 470.231C129.383 460.61 133.424 446.342 134.077 444.099L128.252 441.44L119.937 432.673L112.156 423.149L104.591 451.642L98.3201 477.383L95.6138 492.252L91.0092 491.414C88.9112 491.032 87.7743 490.327 85.637 490.436C83.9928 490.52 83.0049 490.64 81.4991 491.39C80.3128 491.981 78.7457 493.449 78.7457 493.449C78.7457 493.449 77.5571 492.313 76.6689 491.791C74.5506 490.546 72.9683 490.451 70.5293 490.673C68.4842 490.86 67.3945 491.497 65.4736 492.313C63.326 493.226 61.7904 493.391 60.1924 495.193C58.3533 497.266 58.4624 499.263 57.7632 502.004C57.2367 504.069 56.0009 505.443 56.7859 507.374C57.4611 509.034 58.6585 509.512 60.2473 510.137C62.1164 510.873 64.4682 510.906 65.386 510.219C64.2902 511.613 64.0246 513.072 64.5591 514.762C64.9386 515.963 66.4856 517.247 66.4856 517.247L71.6322 519.464L76.2368 520.302C76.6893 523.657 77.3396 525.792 79.5634 528.161C83.197 532.032 87.4493 531.287 92.61 530.536C97.3252 529.85 99.3298 526.946 103.865 525.33C108.312 523.746 110.929 523.316 115.511 522.33C121.837 520.967 127.201 524.642 131.837 519.754C133.618 517.876 134.448 516.492 135.267 513.978C136.571 509.975 134.844 503.233 134.844 503.233L132.036 490.347C132.036 490.347 129.331 478.196 129.355 470.231Z" fill="#807F7F"/>
<path d="M134.166 443.797C134.166 443.797 129.385 459.764 129.355 470.231C129.331 478.196 132.036 490.347 132.036 490.347L134.844 503.233C134.844 503.233 136.571 509.975 135.267 513.978C134.448 516.492 133.618 517.876 131.837 519.754C127.201 524.642 121.837 520.967 115.511 522.33C110.929 523.316 108.312 523.746 103.865 525.33C99.3298 526.946 97.3252 529.85 92.61 530.536C87.4493 531.287 83.197 532.032 79.5634 528.161C77.3396 525.792 76.6893 523.657 76.2368 520.302M76.2368 520.302C75.6931 516.27 76.0344 513.461 78.1161 509.976C79.7157 507.298 81.0617 505.677 83.8484 504.619C87.4753 503.242 93.4415 506.365 93.4415 506.365L99.5811 507.482M76.2368 520.302L71.6322 519.464L66.4856 517.247C66.4856 517.247 64.9386 515.963 64.5591 514.762C64.0246 513.072 64.2902 511.613 65.386 510.219M65.386 510.219C65.8558 507.638 65.381 505.919 66.5888 503.611C67.827 501.245 71.4033 498.94 71.4033 498.94C71.4033 498.94 74.668 496.783 76.9931 496.544C79.1257 496.324 82.3653 497.521 82.3653 497.521L86.2855 499.942M65.386 510.219C64.4682 510.906 62.1164 510.873 60.2473 510.137C58.6585 509.512 57.4611 509.034 56.7859 507.374C56.0009 505.443 57.2367 504.069 57.7632 502.004C58.4624 499.263 58.3533 497.266 60.1924 495.193C61.7904 493.391 63.326 493.226 65.4736 492.313C67.3945 491.497 68.4842 490.86 70.5293 490.673C72.9683 490.451 74.5506 490.546 76.6689 491.791C77.5571 492.313 78.7457 493.449 78.7457 493.449C78.7457 493.449 80.3128 491.981 81.4991 491.39C83.0049 490.64 83.9928 490.52 85.637 490.436C87.7744 490.327 88.9112 491.032 91.0092 491.414L95.6138 492.252M95.6138 492.252L101.37 493.3M95.6138 492.252L98.3201 477.383L104.591 451.642L112.156 423.149L119.937 432.673L128.252 441.44L134.474 444.28" stroke="#595959" stroke-width="2" stroke-linecap="round"/>
<path d="M138.818 234.198C142.814 226.966 153.656 198.154 174.938 196.703C196.22 195.252 202.126 227.425 203.5 247.576C204.874 267.727 201.123 266.606 179.841 268.057C166.097 268.342 156.622 268.208 150.162 267.189C133.633 264.583 134.822 241.431 138.818 234.198Z" fill="#807F7F"/>
<g filter="url(#filter0_d_8_631)">
<path d="M122.021 83.3555C124.521 77.8559 118 61 122.021 49.8555C126.042 38.7111 135.867 28.9517 148.021 18.8555C158.196 10.4035 163.947 3.36289 177.021 1.35554C178.223 1.17102 178.604 1.07162 178.707 1.02789C178.653 0.994915 178.803 0.986713 178.707 1.02789C178.844 1.11172 180.306 1.35565 190.521 1.35554C209.021 1.35536 204.521 37.8555 204.521 37.8555V75.3555L229.521 49.8555C229.521 49.8555 248.872 30.29 265.021 27.3555C272.706 25.9592 278.242 23.4767 285.021 27.3555C293.3 32.0922 292.131 40.6219 294.521 49.8555C298.631 65.7343 297.374 75.7036 294.521 91.8555C291.587 108.465 279.521 132.356 279.521 132.356L285.021 172.356C285.021 172.356 288.894 187.536 285.021 195.856C279.777 207.12 269.014 207.135 257.521 211.856C243.807 217.489 235.244 218.611 220.521 220.356C204.427 222.263 195.074 218.128 179.021 220.356C167.481 221.957 161.574 228.855 150.021 227.356C145.605 226.782 139.021 224.356 139.021 224.356C139.021 224.356 136.386 221.788 134.521 220.356C125.012 213.053 115.543 217.602 105.021 211.856C97.4454 207.719 91.1847 206.171 87.5209 198.356C84.1227 191.107 87.5209 177.856 87.5209 177.856L84.0209 165.356C84.0209 165.356 73.4694 147.378 74.0209 134.856C74.5076 123.805 77.7799 117.488 84.0209 108.356C94.0435 93.6896 119.521 88.8552 122.021 83.3555Z" fill="#807F7F"/>
<path d="M122.021 83.3555C124.521 77.8559 118 61 122.021 49.8555C126.042 38.7111 135.867 28.9517 148.021 18.8555C158.196 10.4035 163.947 3.36289 177.021 1.35554C182.232 0.555478 172.021 1.35573 190.521 1.35554C209.021 1.35536 204.521 37.8555 204.521 37.8555V75.3555L229.521 49.8555C229.521 49.8555 248.872 30.29 265.021 27.3555C272.706 25.9592 278.242 23.4767 285.021 27.3555C293.3 32.0922 292.131 40.6219 294.521 49.8555C298.631 65.7343 297.374 75.7036 294.521 91.8555C291.587 108.465 279.521 132.356 279.521 132.356L285.021 172.356C285.021 172.356 288.894 187.536 285.021 195.856C279.777 207.12 269.014 207.135 257.521 211.856C243.807 217.489 235.244 218.611 220.521 220.356C204.427 222.263 195.074 218.128 179.021 220.356C167.481 221.957 161.574 228.855 150.021 227.356C145.605 226.782 139.021 224.356 139.021 224.356C139.021 224.356 136.386 221.788 134.521 220.356C125.012 213.053 115.543 217.602 105.021 211.856C97.4454 207.719 91.1847 206.171 87.5209 198.356C84.1227 191.107 87.5209 177.856 87.5209 177.856L84.0209 165.356C84.0209 165.356 73.4694 147.378 74.0209 134.856C74.5076 123.805 77.7799 117.488 84.0209 108.356C94.0435 93.6896 119.521 88.8552 122.021 83.3555Z" stroke="#808080"/>
</g>
<path d="M247 52.4996C247 52.4996 230.828 67.7275 227 77.4995C223.173 87.2716 243.852 91.9996 251.737 101.792C259.623 111.585 262.287 104.542 265.5 101.792C275.188 93.4996 277.049 79.8871 280.534 65.3219C282.876 55.532 282.314 43.7228 282.153 39.5772C281.993 35.4315 278.625 34.6623 275.188 33.1961C271.751 31.7299 267.915 37.4537 262.5 39.5776C254.225 42.823 247 52.4996 247 52.4996Z" fill="#E2A2A2"/>
<path d="M155.101 30.6362C155.101 30.6362 139.609 53.7443 136.083 63.6293C132.558 73.5144 158.802 74.6735 162.939 75.8001C167.075 76.9267 176.436 81.8967 180.283 80.1401C194.415 73.6873 189.187 59.0606 192.223 44.3953C194.263 34.5381 193.339 22.7518 193.051 18.613C192.763 14.4742 186.41 12.7428 182.929 11.3828C179.449 10.0228 176.42 12.7539 171.072 15.0432C162.901 18.5412 155.101 30.6362 155.101 30.6362Z" fill="#E2A2A2"/>
<g filter="url(#filter1_f_8_631)">
<path d="M266 186.5C241.115 206.008 228.427 223.589 168.213 201.263C108 178.937 79.1098 147.872 90.0001 118.5C100.89 89.1283 148.786 73.1743 209 95.5001C269.214 117.826 266 160.008 266 186.5Z" fill="url(#paint0_radial_8_631)" fill-opacity="0.81"/>
</g>
<ellipse cx="146" cy="118" rx="15" ry="19" transform="rotate(21.6292 146 118)" fill="url(#paint1_linear_8_631)"/>
<ellipse cx="214.839" cy="136.666" rx="15" ry="19" transform="rotate(26.1536 214.839 136.666)" fill="url(#paint2_linear_8_631)"/>
<path d="M218.476 151.953C217.817 153.739 217.071 154.694 216.319 155.177C215.587 155.647 214.735 155.742 213.684 155.548C212.613 155.35 211.415 154.867 210.054 154.262C209.76 154.132 209.46 153.995 209.153 153.856C208.063 153.364 206.895 152.835 205.689 152.39C204.115 151.809 202.533 151.469 201.136 151.172L201.095 151.163C199.685 150.863 198.51 150.614 197.606 150.225C196.718 149.844 196.216 149.382 196.007 148.72C195.782 148.009 195.836 146.895 196.503 145.086C197.871 141.38 200.232 135.87 203.459 131.757C206.703 127.622 210.598 125.152 215.123 126.822C219.692 128.507 221.275 132.756 221.315 137.763C221.356 142.763 219.837 148.266 218.476 151.953Z" fill="#F6F4F4" stroke="black" stroke-width="1.5"/>
<path d="M152.517 132.245C152.156 134.113 151.574 135.177 150.911 135.775C150.265 136.358 149.439 136.59 148.371 136.569C147.282 136.548 146.022 136.266 144.58 135.889C144.27 135.808 143.951 135.722 143.625 135.635C142.471 135.325 141.232 134.993 139.969 134.75C138.323 134.432 136.706 134.353 135.279 134.286L135.237 134.284C133.797 134.217 132.598 134.161 131.642 133.925C130.704 133.693 130.135 133.318 129.821 132.699C129.484 132.034 129.356 130.926 129.721 129.033C130.469 125.154 131.906 119.333 134.422 114.752C136.953 110.145 140.395 107.076 145.132 107.99C149.913 108.912 152.164 112.848 153.017 117.782C153.868 122.709 153.261 128.385 152.517 132.245Z" fill="#F6F4F4" stroke="black" stroke-width="1.5"/>
<path d="M144.802 103.415L153.254 105.019C153.254 105.019 157.748 104.463 158.973 102.318C160.781 99.1504 157.612 96.0837 154.56 94.0856C150.344 91.3253 144.647 94.5703 141.788 95.9207C138.928 97.2712 131.307 105.941 131.307 105.941L144.802 103.415Z" fill="#CAC7C7" stroke="#060606"/>
<path d="M226.117 123.997L219.117 118.997C219.117 118.997 216.413 115.364 217.117 112.997C218.157 109.5 222.564 109.672 226.117 110.497C231.026 111.637 232.617 117.997 233.617 120.997C234.617 123.997 233.617 135.497 233.617 135.497L226.117 123.997Z" fill="#CAC7C7" stroke="#060606"/>
<path d="M214.335 152.545C212.028 158.463 207.501 156.693 202.925 154.908C198.349 153.124 193.898 151.692 196.205 145.775C198.513 139.857 206.704 131.695 211.28 133.48C218.075 136.129 216.642 146.628 214.335 152.545Z" fill="black"/>
<path d="M149.507 133.373C148.119 139.571 143.377 138.504 138.584 137.43C133.791 136.356 129.175 135.611 130.564 129.414C131.953 123.216 138.82 113.912 143.613 114.986C150.729 116.581 150.896 127.176 149.507 133.373Z" fill="black"/>
<g filter="url(#filter2_d_8_631)">
<path d="M124.689 215.277C88.9925 213.167 67.3887 205.289 68.7082 182.958C70.0277 160.627 93.7709 132.3 129.467 134.409C165.163 136.518 173.913 155.646 172.593 177.977C171.274 200.308 160.385 217.386 124.689 215.277Z" fill="#ACA7A7"/>
<path d="M124.703 215.027C106.861 213.973 92.581 211.477 82.9326 206.478C78.1128 203.981 74.4598 200.865 72.0919 197.001C69.725 193.139 68.6304 188.512 68.9578 182.972C70.2695 160.774 93.8995 132.558 129.452 134.658C147.26 135.711 158.293 141.004 164.718 148.769C171.146 156.537 173.002 166.828 172.344 177.962C171.686 189.096 168.645 198.873 161.362 205.608C154.082 212.342 142.514 216.079 124.703 215.027Z" stroke="black" stroke-width="0.5"/>
</g>
<path d="M89.9467 143.539C89.9467 143.539 73.6458 141.065 67.272 147.394C63.2753 151.362 61.3962 160.565 61.3962 160.565C61.3962 160.565 63.8902 170.172 67.4442 175.259C70.4864 179.613 77.1745 184.762 77.1745 184.762C77.1745 184.762 86.9667 189.649 92.8841 187.671C98.3308 185.85 103.29 177.28 103.29 177.28L110.684 176.023C113.571 175.532 120.316 170.034 119.695 166.377L118.103 157.011C117.481 153.354 113.5 150.959 109.526 148.326C102.964 143.978 89.9467 143.539 89.9467 143.539Z" fill="black" stroke="black"/>
<path d="M210 143C210 145.209 208.886 146 206.792 146C204.698 146 203 144.209 203 142C203 139.791 204.698 138 206.792 138C208.886 138 210 140.791 210 143Z" fill="#FDF4F4"/>
<path d="M210 143C210 145.209 208.886 146 206.792 146C204.698 146 203 144.209 203 142C203 139.791 204.698 138 206.792 138C208.886 138 210 140.791 210 143Z" fill="#FDF4F4"/>
<path d="M210 143C210 145.209 208.886 146 206.792 146C204.698 146 203 144.209 203 142C203 139.791 204.698 138 206.792 138C208.886 138 210 140.791 210 143Z" fill="#FDF4F4"/>
<path d="M146 124C146 126.209 144.886 127 142.792 127C140.698 127 139 125.209 139 123C139 120.791 140.698 119 142.792 119C144.886 119 146 121.791 146 124Z" fill="#FDF4F4"/>
<path d="M146 124C146 126.209 144.886 127 142.792 127C140.698 127 139 125.209 139 123C139 120.791 140.698 119 142.792 119C144.886 119 146 121.791 146 124Z" fill="#FDF4F4"/>
<path d="M146 124C146 126.209 144.886 127 142.792 127C140.698 127 139 125.209 139 123C139 120.791 140.698 119 142.792 119C144.886 119 146 121.791 146 124Z" fill="#FDF4F4"/>
<circle cx="203.5" cy="148.5" r="1.5" fill="#D9D9D9"/>
<circle cx="128.5" cy="171.5" r="1.5" fill="black"/>
<circle cx="128.5" cy="171.5" r="1.5" fill="black"/>
<circle cx="128.5" cy="171.5" r="1.5" fill="black"/>
<circle cx="140.5" cy="172.5" r="1.5" fill="black"/>
<circle cx="140.5" cy="172.5" r="1.5" fill="black"/>
<circle cx="140.5" cy="172.5" r="1.5" fill="black"/>
<circle cx="132.5" cy="180.5" r="1.5" fill="black"/>
<circle cx="132.5" cy="180.5" r="1.5" fill="black"/>
<circle cx="132.5" cy="180.5" r="1.5" fill="black"/>
<circle cx="135.5" cy="162.5" r="1.5" fill="black"/>
<circle cx="135.5" cy="162.5" r="1.5" fill="black"/>
<circle cx="135.5" cy="162.5" r="1.5" fill="black"/>
<circle cx="128.5" cy="153.5" r="1.5" fill="black"/>
<circle cx="128.5" cy="153.5" r="1.5" fill="black"/>
<circle cx="128.5" cy="153.5" r="1.5" fill="black"/>
<circle cx="123.5" cy="161.5" r="1.5" fill="black"/>
<circle cx="123.5" cy="161.5" r="1.5" fill="black"/>
<circle cx="123.5" cy="161.5" r="1.5" fill="black"/>
<circle cx="120.5" cy="179.5" r="1.5" fill="black"/>
<circle cx="120.5" cy="179.5" r="1.5" fill="black"/>
<circle cx="120.5" cy="179.5" r="1.5" fill="black"/>
<circle cx="145" cy="129" r="1" fill="#D9D9D9"/>
<path d="M122 205.685C122 205.685 126.063 207.145 129.36 209.681C132.823 212.345 141.482 214.011 141.482 214.011C141.482 214.011 145.811 214.344 152.738 212.345C160.571 210.086 165.936 211.065 173.519 208.349C181.306 205.56 191.27 198.358 191.27 198.358L207.288 187.201M207.288 187.201C203.825 187.931 200.774 188.144 196.032 189.033L207.288 187.201ZM207.288 187.201C207.288 185.369 218.545 185.369 218.545 185.369" stroke="black" stroke-width="3"/>
<path d="M218.234 184.524C218.51 184.524 218.986 184.457 219.231 184.602C219.373 184.685 219.476 184.871 219.506 185.003C219.583 185.34 219.617 185.577 219.198 185.787C218.899 185.936 217.874 186.186 218.218 186.114C218.463 186.063 218.71 185.94 218.856 185.782C218.954 185.677 218.655 185.511 218.615 185.399C218.527 185.15 218.651 184.973 219.03 184.959C219.286 184.95 218.924 185.476 218.688 185.494C218.568 185.502 218.148 185.532 218.486 185.532" stroke="black" stroke-linecap="round"/>
<path d="M218.436 184.602C218.4 184.528 217.57 184.606 217.417 184.632C216.647 184.763 215.878 184.884 215.109 185.028" stroke="black" stroke-linecap="round"/>
<path d="M207.548 187.549C208.807 187.436 209.973 187.262 211.175 186.984C212.23 186.741 213.3 186.557 214.381 186.394C215.55 186.218 216.71 186.008 217.882 185.843C218.698 185.727 219.565 185.622 220.326 185.358C220.702 185.228 221.107 185.149 221.444 184.964C221.718 184.813 222.083 184.685 222.27 184.46C222.371 184.339 222.664 184.089 222.446 183.956C222.154 183.776 221.892 183.67 221.514 183.613C220.207 183.415 218.9 183.377 217.641 183.732C216.792 183.971 215.954 184.219 215.109 184.466C214.42 184.668 213.646 184.737 212.925 184.843C212.622 184.888 212.348 184.906 212.04 184.912C211.964 184.913 211.646 184.981 211.676 184.964C212.17 184.685 212.863 184.481 213.423 184.296C214.438 183.961 215.558 183.635 216.672 183.598C217.678 183.565 218.689 183.608 219.696 183.594C220.217 183.586 220.721 183.482 221.236 183.439C221.586 183.409 221.831 183.307 221.78 183.637C221.691 184.205 220.516 184.397 219.909 184.516C219.317 184.632 218.584 184.59 217.982 184.524" stroke="black" stroke-linecap="round"/>
<path d="M216.621 184.059C216.791 184.056 216.962 184.041 217.131 184.05C218.03 184.1 217.017 184.059 217.509 184.182C217.969 184.296 218.795 184.001 219.203 183.908C219.919 183.745 220.661 183.63 221.36 183.426C221.51 183.382 221.972 183.235 221.556 183.344C221.433 183.376 221.338 183.389 221.208 183.4" stroke="black" stroke-linecap="round"/>
<path d="M206.843 188.053C207.107 188.016 207.329 187.96 207.576 187.876C208.366 187.608 209.19 187.396 209.993 187.152C211.171 186.796 212.346 186.433 213.516 186.06C213.801 185.969 214.08 185.859 214.375 185.789C214.786 185.691 215.207 185.624 215.63 185.571C215.893 185.538 216.139 185.517 216.369 185.416" stroke="black" stroke-linecap="round"/>
<path d="M207.296 187.937C209.216 187.727 211.098 187.488 212.975 187.118C214.087 186.899 215.077 186.486 216.157 186.209C216.544 186.11 216.897 186.005 217.26 185.86C217.727 185.674 218.203 185.566 218.694 185.429C219.436 185.222 220.139 184.939 220.878 184.733C220.965 184.709 221.714 184.439 221.528 184.322C221.104 184.055 220.129 184.159 219.629 184.219C218.334 184.374 217.068 184.64 215.776 184.809C215.533 184.841 215.592 184.82 215.863 184.772C216.746 184.617 217.635 184.478 218.526 184.348C219.495 184.206 220.471 184.092 221.438 183.943C222.299 183.809 221.621 183.912 221.662 183.865" stroke="black" stroke-linecap="round"/>
<path d="M206.339 188.402C208.279 188.111 210.191 187.7 212.141 187.45C212.828 187.361 213.498 187.205 214.185 187.122C214.936 187.032 215.649 186.826 216.397 186.734C217.36 186.617 218.289 186.471 219.217 186.228C220.005 186.022 220.739 185.691 221.522 185.485C222.117 185.328 222.887 185.007 223.295 184.623C223.657 184.283 224.338 183.732 223.802 183.279C223.472 183.001 222.973 183.012 222.519 183.012C221.945 183.012 221.317 182.959 220.76 183.077C218.984 183.452 217.142 183.625 215.345 183.943C213.831 184.21 212.299 184.414 210.774 184.625C209.814 184.758 208.894 185.063 208.008 185.369C207.229 185.637 206.428 185.845 205.633 186.086C204.083 186.555 202.547 187.04 201.018 187.546C200.32 187.777 199.614 188.006 198.912 188.229C198.289 188.427 197.671 188.662 197.025 188.811C196.425 188.949 195.776 189.01 195.165 189.117C194.676 189.203 194.166 189.348 193.667 189.373C193.189 189.397 192.609 189.664 192.225 189.875" stroke="black" stroke-linecap="round"/>
<path d="M205.179 187.045C205.607 186.81 206.135 186.662 206.529 186.394C206.657 186.307 206.739 186.178 206.49 186.218C206.424 186.228 205.749 186.355 206.07 186.347C207.258 186.317 208.416 186.033 209.612 186.015C210.829 185.997 212.004 186.147 213.225 186.032C213.912 185.968 214.557 185.858 215.182 185.625C215.773 185.405 216.324 185.17 216.941 184.99C218.549 184.52 220.185 184.132 221.808 183.697C221.846 183.687 222.93 183.309 223.012 183.417C223.087 183.517 222.96 183.708 222.9 183.788C222.784 183.942 222.636 184.1 222.452 184.21C222.432 184.222 222.166 184.409 222.27 184.402C222.511 184.384 223.195 184.246 223.227 184.035C223.266 183.782 223.371 183.604 223.577 183.4" stroke="black" stroke-linecap="round"/>
<path d="M196.257 189.449C194.817 189.449 193.425 189.638 192.046 189.944C191.402 190.087 190.726 190.165 190.068 190.254C190.02 190.261 189.604 190.348 189.816 190.341C190.159 190.329 190.522 190.245 190.858 190.194C192.222 189.988 193.602 189.773 194.947 189.505C195.647 189.365 196.442 189.268 197.114 189.061" stroke="black" stroke-linecap="round"/>
<path d="M189.654 190.147C190.02 190.021 190.304 189.775 190.685 189.66C190.931 189.585 191.192 189.537 191.441 189.466C192.295 189.221 193.179 189.066 194.028 188.798C194.536 188.638 195.043 188.477 195.546 188.309C196.36 188.038 197.171 187.917 197.999 187.682C198.542 187.528 199.05 187.354 199.618 187.254C200.597 187.08 201.587 186.953 202.569 186.782C203.427 186.633 204.249 186.334 205.048 186.054C205.535 185.883 206.081 185.833 206.577 185.668C206.921 185.553 207.343 185.573 207.649 185.416" stroke="black" stroke-linecap="round"/>
<path d="M195.552 188.712C195.516 188.616 196.445 188.488 196.585 188.441C196.787 188.372 196.161 188.534 195.955 188.596" stroke="black" stroke-linecap="round"/>
<path d="M196.509 189.565C196.383 189.673 195.986 189.742 195.792 189.767C195.32 189.83 194.861 189.936 194.387 189.991C193.85 190.054 193.268 190.147 192.729 190.147C192.305 190.147 191.881 190.147 191.458 190.147C191.134 190.147 190.838 190.224 190.511 190.224" stroke="black" stroke-linecap="round"/>
<path d="M241.792 353.376C235.22 377.842 218.964 475.609 177.611 479.292C136.259 482.975 97.7605 430.095 91.6221 361.18C85.4837 292.266 114.45 238.948 155.803 235.265C182.618 235.113 201.163 236.138 213.965 240.005C246.721 249.898 248.364 328.91 241.792 353.376Z" fill="#807F7F"/>
<path d="M121.876 322.012C88.552 358.519 70.2352 381.949 58.0547 374.26C45.8742 366.572 54.6994 330.714 77.7664 294.17C100.833 257.625 129.407 234.233 141.588 241.921C146.793 245.206 148.162 253.636 146.223 265.064C124.239 292.4 117.408 301.307 121.876 322.012Z" fill="#807F7F"/>
<path d="M78.5 386C66.5514 394.001 55 378.846 47 385C36.5157 382.199 39.8173 373.046 43.5 364C47.5711 354 56.8079 348.919 67.2922 351.72C77.7765 354.521 80.0514 373.001 78.5 386Z" fill="#807F7F"/>
<path d="M42.0357 371.858C42.0357 371.858 40.2811 375.432 40.4666 377.731C40.6336 379.8 41.9378 381.645 42.4882 382.275C43.0387 382.905 45.6025 384.554 47.6655 383.659C49.7428 382.757 51.6771 377.294 51.3918 378.362C51.1065 379.43 51.5659 382.637 53.1281 383.974C54.2243 384.912 56.5797 384.896 56.5797 384.896C56.5797 384.896 58.3576 385.874 59.5997 385.703C60.9857 385.512 61.9756 385.076 62.9016 383.725C63.7316 382.514 63.6148 381.055 63.9001 379.988C64.1854 378.92 64.65 382.846 65.4903 384.417C66.3501 386.023 66.8535 387.043 68.2286 388.008C69.6862 389.031 70.7731 389.541 72.543 389.161C73.9254 388.864 74.769 388.365 75.8449 387.183C76.9808 385.935 77.3532 384.851 77.8489 383.142C78.4032 381.231 78.2698 378.106 78.2698 378.106" stroke="black" stroke-width="2" stroke-linecap="round"/>
<path d="M44.7379 383.048L46.824 379.782C46.824 379.782 47.7096 377.425 47.6343 375.903C47.5229 373.656 46.3492 373.794 45.3706 374.347C44.0187 375.112 43.2996 379.221 42.8945 381.16C42.4894 383.1 42.215 390.505 42.215 390.505L44.7379 383.048Z" fill="#CAC7C7" stroke="#060606"/>
<path d="M71.1242 388.909L72.3231 385.129C72.3231 385.129 72.5784 382.634 72.107 381.268C71.4107 379.25 70.2923 379.819 69.4744 380.695C68.3445 381.906 68.7102 385.944 68.8183 387.874C68.9264 389.805 70.5903 396.697 70.5903 396.697L71.1242 388.909Z" fill="#CAC7C7" stroke="#060606"/>
<path d="M54.807 386.882L56.8931 383.617C56.8931 383.617 57.7787 381.259 57.7033 379.738C57.592 377.491 56.4183 377.628 55.4397 378.182C54.0878 378.946 53.3687 383.055 52.9636 384.995C52.5585 386.934 52.2841 394.339 52.2841 394.339L54.807 386.882Z" fill="#CAC7C7" stroke="#060606"/>
<path d="M227.767 323.012C261.091 359.519 279.407 382.949 291.588 375.26C303.768 367.572 294.943 331.714 271.876 295.17C248.809 258.625 220.235 235.233 208.055 242.921C202.85 246.206 201.481 254.636 203.419 266.064C225.403 293.4 232.235 302.307 227.767 323.012Z" fill="#807F7F"/>
<path d="M271.143 387C283.091 395.001 294.643 379.846 302.643 386C313.127 383.199 309.825 374.046 306.143 365C302.071 355 292.835 349.919 282.35 352.72C271.866 355.521 269.591 374.001 271.143 387Z" fill="#807F7F"/>
<path d="M307.607 372.858C307.607 372.858 309.362 376.432 309.176 378.731C309.009 380.8 307.705 382.645 307.154 383.275C306.604 383.905 304.04 385.554 301.977 384.659C299.9 383.757 297.965 378.294 298.251 379.362C298.536 380.43 298.077 383.637 296.514 384.974C295.418 385.912 293.063 385.896 293.063 385.896C293.063 385.896 291.285 386.874 290.043 386.703C288.657 386.512 287.667 386.076 286.741 384.725C285.911 383.514 286.028 382.055 285.742 380.988C285.457 379.92 284.993 383.846 284.152 385.417C283.293 387.023 282.789 388.043 281.414 389.008C279.956 390.031 278.869 390.541 277.1 390.161C275.717 389.864 274.874 389.365 273.798 388.183C272.662 386.935 272.289 385.851 271.794 384.142C271.239 382.231 271.373 379.106 271.373 379.106" stroke="black" stroke-width="2" stroke-linecap="round"/>
<path d="M304.905 384.048L302.819 380.782C302.819 380.782 301.933 378.425 302.008 376.903C302.12 374.656 303.293 374.794 304.272 375.347C305.624 376.112 306.343 380.221 306.748 382.16C307.153 384.1 307.428 391.505 307.428 391.505L304.905 384.048Z" fill="#CAC7C7" stroke="#060606"/>
<path d="M278.518 389.909L277.319 386.129C277.319 386.129 277.064 383.634 277.536 382.268C278.232 380.25 279.35 380.819 280.168 381.695C281.298 382.906 280.932 386.944 280.824 388.874C280.716 390.805 279.052 397.697 279.052 397.697L278.518 389.909Z" fill="#CAC7C7" stroke="#060606"/>
<path d="M294.836 387.882L292.749 384.617C292.749 384.617 291.864 382.259 291.939 380.738C292.051 378.491 293.224 378.628 294.203 379.182C295.555 379.946 296.274 384.055 296.679 385.995C297.084 387.934 297.359 395.339 297.359 395.339L294.836 387.882Z" fill="#CAC7C7" stroke="#060606"/>
<g filter="url(#filter3_i_8_631)">
<path d="M212.337 345.792C207.709 360.058 195.952 416.983 168.079 419.466C140.206 421.949 114.723 391.551 111.162 351.571C107.601 311.591 127.547 280.379 155.42 277.897C173.476 277.586 185.954 278.028 194.542 280.167C216.514 285.642 216.965 331.525 212.337 345.792Z" fill="#DACDA4" fill-opacity="0.77"/>
</g>
<defs>
<filter id="filter0_d_8_631" x="69.5" y="0.5" width="232.153" height="235.567" filterUnits="userSpaceOnUse" color-interpolation-filters="sRGB">
<feFlood flood-opacity="0" result="BackgroundImageFix"/>
<feColorMatrix in="SourceAlpha" type="matrix" values="0 0 0 0 0 0 0 0 0 0 0 0 0 0 0 0 0 0 127 0" result="hardAlpha"/>
<feOffset dy="4"/>
<feGaussianBlur stdDeviation="2"/>
<feComposite in2="hardAlpha" operator="out"/>
<feColorMatrix type="matrix" values="0 0 0 0 0 0 0 0 0 0 0 0 0 0 0 0 0 0 0.25 0"/>
<feBlend mode="normal" in2="BackgroundImageFix" result="effect1_dropShadow_8_631"/>
<feBlend mode="normal" in="SourceGraphic" in2="effect1_dropShadow_8_631" result="shape"/>
</filter>
<filter id="filter1_f_8_631" x="83.7419" y="81.0088" width="186.288" height="134.684" filterUnits="userSpaceOnUse" color-interpolation-filters="sRGB">
<feFlood flood-opacity="0" result="BackgroundImageFix"/>
<feBlend mode="normal" in="SourceGraphic" in2="BackgroundImageFix" result="shape"/>
<feGaussianBlur stdDeviation="2" result="effect1_foregroundBlur_8_631"/>
</filter>
<filter id="filter2_d_8_631" x="64.6511" y="134.298" width="112.067" height="89.1553" filterUnits="userSpaceOnUse" color-interpolation-filters="sRGB">
<feFlood flood-opacity="0" result="BackgroundImageFix"/>
<feColorMatrix in="SourceAlpha" type="matrix" values="0 0 0 0 0 0 0 0 0 0 0 0 0 0 0 0 0 0 127 0" result="hardAlpha"/>
<feOffset dy="4"/>
<feGaussianBlur stdDeviation="2"/>
<feComposite in2="hardAlpha" operator="out"/>
<feColorMatrix type="matrix" values="0 0 0 0 0 0 0 0 0 0 0 0 0 0 0 0 0 0 0.25 0"/>
<feBlend mode="normal" in2="BackgroundImageFix" result="effect1_dropShadow_8_631"/>
<feBlend mode="normal" in="SourceGraphic" in2="effect1_dropShadow_8_631" result="shape"/>
</filter>
<filter id="filter3_i_8_631" x="110.751" y="277.808" width="103.937" height="145.8" filterUnits="userSpaceOnUse" color-interpolation-filters="sRGB">
<feFlood flood-opacity="0" result="BackgroundImageFix"/>
<feBlend mode="normal" in="SourceGraphic" in2="BackgroundImageFix" result="shape"/>
<feColorMatrix in="SourceAlpha" type="matrix" values="0 0 0 0 0 0 0 0 0 0 0 0 0 0 0 0 0 0 127 0" result="hardAlpha"/>
<feOffset dy="4"/>
<feGaussianBlur stdDeviation="2"/>
<feComposite in2="hardAlpha" operator="arithmetic" k2="-1" k3="1"/>
<feColorMatrix type="matrix" values="0 0 0 0 0 0 0 0 0 0 0 0 0 0 0 0 0 0 0.25 0"/>
<feBlend mode="normal" in2="shape" result="effect1_innerShadow_8_631"/>
</filter>
<radialGradient id="paint0_radial_8_631" cx="0" cy="0" r="1" gradientUnits="userSpaceOnUse" gradientTransform="translate(185.858 146.755) rotate(110.209) scale(57.242 107.723)">
<stop stop-color="#BEBABA"/>
<stop offset="0.84123" stop-color="#908A8A" stop-opacity="0.7"/>
</radialGradient>
<linearGradient id="paint1_linear_8_631" x1="131" y1="131.217" x2="169.919" y2="131.615" gradientUnits="userSpaceOnUse">
<stop stop-color="#D9D9D9"/>
<stop offset="1" stop-color="#737373" stop-opacity="0.8"/>
</linearGradient>
<linearGradient id="paint2_linear_8_631" x1="199.839" y1="149.884" x2="238.758" y2="150.282" gradientUnits="userSpaceOnUse">
<stop stop-color="#D9D9D9"/>
<stop offset="1" stop-color="#737373" stop-opacity="0.8"/>
</linearGradient>
</defs>
</svg>
