<svg width="524" height="592" viewBox="0 0 524 592" fill="none" xmlns="http://www.w3.org/2000/svg">
<rect x="345" y="441" width="13" height="73" fill="#3F3C3C"/>
<rect x="272" y="438" width="13" height="73" fill="#3F3C3C"/>
<g filter="url(#filter0_d_8_869)">
<path d="M310.622 264.412C299.666 274.547 177.778 252.194 115.462 185.423C53.1462 118.651 50.8928 15.53 61.8487 5.39496C72.8047 -4.74009 92.8212 81.9487 155.137 148.72C217.453 215.492 321.578 254.277 310.622 264.412Z" fill="url(#paint0_linear_8_869)"/>
</g>
<path d="M310.874 263.404C306.106 270.998 231.162 263.326 180.288 231.657C129.414 199.988 116.299 120.073 121.068 112.48C125.837 104.886 147.382 150.855 198.256 182.525C249.13 214.194 315.643 255.811 310.874 263.404Z" fill="url(#paint1_linear_8_869)"/>
<g filter="url(#filter1_d_8_869)">
<path d="M310.622 264.412C299.666 274.547 177.778 252.194 115.462 185.423C53.1462 118.651 50.8928 15.53 61.8487 5.39496C72.8047 -4.74009 92.8212 81.9487 155.137 148.72C217.453 215.492 321.578 254.277 310.622 264.412Z" fill="url(#paint2_linear_8_869)"/>
</g>
<g filter="url(#filter2_d_8_869)">
<path d="M310.874 263.404C306.106 270.998 231.162 263.326 180.288 231.657C129.414 199.988 116.299 120.073 121.068 112.48C125.837 104.886 147.382 150.855 198.256 182.525C249.13 214.194 315.643 255.811 310.874 263.404Z" fill="url(#paint3_linear_8_869)"/>
</g>
<g filter="url(#filter3_d_8_869)">
<path d="M304.8 277.694C297.694 288.278 191.857 293.62 126.781 250.307C61.705 206.994 39.3972 121.642 46.5041 111.058C53.6109 100.474 87.4412 168.666 152.517 211.979C217.593 255.293 311.907 267.11 304.8 277.694Z" fill="url(#paint4_linear_8_869)"/>
</g>
<g filter="url(#filter4_d_8_869)">
<path d="M320.729 320.508C317.029 330.837 227.002 360.664 160.959 341.056C94.9164 321.448 56.1063 257.312 59.8063 246.982C63.5063 236.652 108.315 284.041 174.358 303.649C240.401 323.257 324.429 310.178 320.729 320.508Z" fill="url(#paint5_linear_8_869)"/>
</g>
<path d="M284.043 508.613C278.404 519.52 251.126 515.24 223.904 513.883C196.683 512.526 176.421 509 176.868 504.745C177.315 500.489 183.009 493.641 210.231 494.998C237.452 496.355 284.49 504.357 284.043 508.613Z" fill="#3F3C3C"/>
<path d="M268.429 505.675C269.874 517.456 250.026 524.174 231.59 533.446C213.154 542.718 198.248 547.402 196.538 543.48C194.828 539.558 195.328 531.333 213.764 522.061C232.2 512.789 266.719 501.752 268.429 505.675Z" fill="#3F3C3C"/>
<path d="M281.284 504.865C288.475 513.896 277.768 523.288 269.407 534.412C261.046 545.536 252.817 552.304 249.542 549.549C246.268 546.795 242.329 540.18 250.69 529.056C259.05 517.932 278.009 502.11 281.284 504.865Z" fill="#3F3C3C"/>
<path d="M355.582 509.716C357.167 521.892 332.317 533.928 309.179 548.333C286.041 562.737 267.384 571.393 265.326 567.642C263.267 563.891 264.041 555.018 287.178 540.613C310.316 526.209 353.523 505.965 355.582 509.716Z" fill="#3F3C3C"/>
<path d="M341.078 516.204C348.982 525.059 336.507 541.894 326.647 560.023C316.787 578.151 307.211 590.498 303.57 588.251C299.928 586.003 295.651 578.96 305.511 560.832C315.371 542.704 337.437 513.957 341.078 516.204Z" fill="#3F3C3C"/>
<path d="M351.178 508.21C362.234 511.53 358.793 525.35 358.266 539.256C357.739 553.162 354.837 563.414 350.576 563.018C346.316 562.621 339.308 559.433 339.835 545.527C340.362 531.621 346.917 507.814 351.178 508.21Z" fill="#3F3C3C"/>
<g filter="url(#filter5_d_8_869)">
<path d="M351.107 327.866C349.961 338.776 269.56 389.043 200.743 385.613C131.927 382.182 79.0134 329.051 80.1595 318.14C81.3055 307.23 136.077 342.672 204.894 346.103C273.711 349.533 352.253 316.955 351.107 327.866Z" fill="url(#paint6_linear_8_869)"/>
</g>
<g filter="url(#filter6_d_8_869)">
<path d="M301.997 295.998C296.956 305.749 203.754 323.445 140.901 295.303C78.0471 267.162 48.1087 198.474 53.15 188.723C58.1913 178.972 96.3031 231.85 159.157 259.992C222.01 288.134 307.038 286.247 301.997 295.998Z" fill="url(#paint7_linear_8_869)"/>
</g>
<path d="M315.136 272.28C313.245 279.899 251.851 294.635 203.575 282.76C155.3 270.884 124.96 208.498 126.851 200.879C128.742 193.259 157.306 225.207 205.582 237.083C253.857 248.958 317.027 264.66 315.136 272.28Z" fill="url(#paint8_linear_8_869)"/>
<path d="M310.262 281.446C310.255 288.108 267.333 313.784 229.276 314.752C191.22 315.719 157.223 271.334 157.231 264.673C157.238 258.012 184.329 277.855 222.385 276.887C260.442 275.919 310.269 274.785 310.262 281.446Z" fill="url(#paint9_linear_8_869)"/>
<ellipse cx="467.546" cy="449.157" rx="11.4812" ry="58.0574" transform="rotate(-58.5208 467.546 449.157)" fill="#DD0000"/>
<ellipse cx="440.471" cy="453.707" rx="14.7001" ry="46.6125" transform="rotate(-53.4157 440.471 453.707)" fill="#DD0000"/>
<ellipse cx="420.485" cy="462.217" rx="14.7001" ry="46.6125" transform="rotate(-50.2246 420.485 462.217)" fill="#DD0000"/>
<path d="M417 85.3724C417 130.161 413.472 197 370.435 197C327.398 197 264 130.161 264 85.3726C264 40.584 288.118 10 331.155 10C374.192 10 417 40.5838 417 85.3724Z" fill="#E90000"/>
<path d="M405.254 303.146C405.254 389.067 469.933 472 405.254 472C338.152 435.636 228.638 493.818 203 342.356C203 242.119 273.474 152 338.152 152C402.831 152 405.254 217.226 405.254 303.146Z" fill="#E90000"/>
<path d="M350.969 322.441C350.969 381.243 398.288 438 350.969 438C301.878 413.114 221.757 452.932 203 349.275C203 280.675 254.559 219 301.878 219C349.197 219 350.969 263.639 350.969 322.441Z" fill="#CE0000" fill-opacity="0.43"/>
<ellipse cx="357.181" cy="74.5434" rx="24.1226" ry="30.7579" transform="rotate(-10.8687 357.181 74.5434)" fill="#D9D9D9"/>
<ellipse cx="360.787" cy="80.2097" rx="13.6394" ry="14.5822" transform="rotate(7.10493 360.787 80.2097)" fill="url(#paint10_diamond_8_869)"/>
<path d="M365.625 84.6132C365.159 88.3499 361.854 90.9868 358.272 90.5403C354.69 90.0938 352.133 86.7264 352.599 82.9896C353.065 79.2528 356.37 76.6159 359.952 77.0624C363.534 77.5089 366.091 80.8764 365.625 84.6132Z" fill="black" stroke="#BDBDBD"/>
<ellipse cx="359.43" cy="79.2807" rx="2.92273" ry="2.76559" transform="rotate(7.10493 359.43 79.2807)" fill="#D9D9D9"/>
<ellipse cx="358.241" cy="90.7868" rx="2.19205" ry="1.75992" transform="rotate(7.10493 358.241 90.7868)" fill="#D9D9D9"/>
<path d="M309.064 94.1999C303.569 85.9839 283.15 70.7516 260.027 98.9069C236.905 127.062 218.984 130.866 218.984 130.866C218.984 130.866 237.074 155.876 271.773 136.36C306.472 116.845 314.559 102.416 309.064 94.1999Z" fill="url(#paint11_radial_8_869)"/>
<path d="M457.488 300.412C465.735 344.485 419.946 363.647 398.979 367.571C378.011 371.495 405.413 329.388 397.166 285.315C388.919 241.242 368.242 209.662 389.209 205.738C410.177 201.815 449.241 256.339 457.488 300.412Z" fill="url(#paint12_linear_8_869)"/>
<path d="M443.518 333.62C453.394 320.277 439.422 305.138 432.272 299.846C425.123 294.554 428.74 313.974 418.863 327.317C408.987 340.66 396.447 347.428 403.596 352.72C410.746 358.012 433.641 346.963 443.518 333.62Z" fill="url(#paint13_linear_8_869)"/>
<path d="M443.518 333.62C453.394 320.277 439.422 305.138 432.272 299.846C425.123 294.554 428.74 313.974 418.863 327.317C408.987 340.66 396.447 347.428 403.596 352.72C410.746 358.012 433.641 346.963 443.518 333.62Z" fill="url(#paint14_linear_8_869)"/>
<path d="M455.038 353.731C468.046 343.417 458.494 325.164 452.967 318.194C447.441 311.224 445.881 330.916 432.873 341.23C419.865 351.544 405.996 354.816 411.522 361.786C417.049 368.756 442.031 364.045 455.038 353.731Z" fill="url(#paint15_linear_8_869)"/>
<path d="M455.038 353.731C468.046 343.417 458.494 325.164 452.967 318.194C447.441 311.224 445.881 330.916 432.873 341.23C419.865 351.544 405.996 354.816 411.522 361.786C417.049 368.756 442.031 364.045 455.038 353.731Z" fill="url(#paint16_linear_8_869)"/>
<path d="M465.503 366.622C479.188 357.227 470.913 338.36 465.878 331.027C460.844 323.694 457.934 343.233 444.249 352.628C430.563 362.024 416.502 364.336 421.536 371.669C426.571 379.002 451.817 376.018 465.503 366.622Z" fill="url(#paint17_linear_8_869)"/>
<path d="M465.503 366.622C479.188 357.227 470.913 338.36 465.878 331.027C460.844 323.694 457.934 343.233 444.249 352.628C430.563 362.024 416.502 364.336 421.536 371.669C426.571 379.002 451.817 376.018 465.503 366.622Z" fill="url(#paint18_linear_8_869)"/>
<path d="M396.652 371.057C400.482 384.769 425.834 381.121 436.586 378.118C447.338 375.115 426.753 368.881 422.923 355.17C419.094 341.458 423.434 328.758 412.682 331.761C401.93 334.764 392.822 357.345 396.652 371.057Z" fill="url(#paint19_linear_8_869)"/>
<ellipse cx="408.55" cy="38.051" rx="21.8793" ry="8.24438" fill="#E90000"/>
<ellipse cx="414.903" cy="50.9222" rx="21.8793" ry="8.24438" transform="rotate(12.754 414.903 50.9222)" fill="#E90000"/>
<path d="M237.981 138.208C238.839 141.396 318.692 112.699 298.606 112.576C278.52 112.453 268.871 97.21 265.634 97.3895C262.396 97.569 237.124 135.021 237.981 138.208Z" fill="#841E1E"/>
<path d="M227.762 118.348C226.181 121.876 271.341 121.718 270.155 120.799C268.969 119.88 259.889 111.19 257.806 111.322C255.724 111.454 229.342 114.821 227.762 118.348Z" fill="#D23838"/>
<path d="M318 69.8362C318 88.1659 308.446 132.697 269.277 113.134C230.107 93.5699 211 106.181 211 106.181C211 106.181 212.274 48.9782 256.857 43.2895C301.44 37.6008 318 51.5065 318 69.8362Z" fill="url(#paint20_radial_8_869)"/>
<rect x="345" y="441" width="13" height="73" fill="#3F3C3C"/>
<rect x="272" y="438" width="13" height="73" fill="#3F3C3C"/>
<g filter="url(#filter7_d_8_869)">
<path d="M310.622 264.412C299.666 274.547 177.778 252.194 115.462 185.423C53.1462 118.651 50.8928 15.53 61.8487 5.39496C72.8047 -4.74009 92.8212 81.9487 155.137 148.72C217.453 215.492 321.578 254.277 310.622 264.412Z" fill="url(#paint21_linear_8_869)"/>
</g>
<path d="M310.874 263.404C306.106 270.998 231.162 263.326 180.288 231.657C129.414 199.988 116.299 120.073 121.068 112.48C125.837 104.886 147.382 150.855 198.256 182.525C249.13 214.194 315.643 255.811 310.874 263.404Z" fill="url(#paint22_linear_8_869)"/>
<g filter="url(#filter8_d_8_869)">
<path d="M310.622 264.412C299.666 274.547 177.778 252.194 115.462 185.423C53.1462 118.651 50.8928 15.53 61.8487 5.39496C72.8047 -4.74009 92.8212 81.9487 155.137 148.72C217.453 215.492 321.578 254.277 310.622 264.412Z" fill="url(#paint23_linear_8_869)"/>
</g>
<g filter="url(#filter9_d_8_869)">
<path d="M310.874 263.404C306.106 270.998 231.162 263.326 180.288 231.657C129.414 199.988 116.299 120.073 121.068 112.48C125.837 104.886 147.382 150.855 198.256 182.525C249.13 214.194 315.643 255.811 310.874 263.404Z" fill="url(#paint24_linear_8_869)"/>
</g>
<g filter="url(#filter10_d_8_869)">
<path d="M304.8 277.694C297.694 288.278 191.857 293.62 126.781 250.307C61.705 206.994 39.3972 121.642 46.5041 111.058C53.6109 100.474 87.4412 168.666 152.517 211.979C217.593 255.293 311.907 267.11 304.8 277.694Z" fill="url(#paint25_linear_8_869)"/>
</g>
<g filter="url(#filter11_d_8_869)">
<path d="M320.729 320.508C317.029 330.837 227.002 360.664 160.959 341.056C94.9164 321.448 56.1063 257.312 59.8063 246.982C63.5063 236.652 108.315 284.041 174.358 303.649C240.401 323.257 324.429 310.178 320.729 320.508Z" fill="url(#paint26_linear_8_869)"/>
</g>
<path d="M284.043 508.613C278.404 519.52 251.126 515.24 223.904 513.883C196.683 512.526 176.421 509 176.868 504.745C177.315 500.489 183.009 493.641 210.231 494.998C237.452 496.355 284.49 504.357 284.043 508.613Z" fill="#3F3C3C"/>
<path d="M268.429 505.675C269.874 517.456 250.026 524.174 231.59 533.446C213.154 542.718 198.248 547.402 196.538 543.48C194.828 539.558 195.328 531.333 213.764 522.061C232.2 512.789 266.719 501.752 268.429 505.675Z" fill="#3F3C3C"/>
<path d="M281.284 504.865C288.475 513.896 277.768 523.288 269.407 534.412C261.046 545.536 252.817 552.304 249.542 549.549C246.268 546.795 242.329 540.18 250.69 529.056C259.05 517.932 278.009 502.11 281.284 504.865Z" fill="#3F3C3C"/>
<path d="M355.582 509.716C357.167 521.892 332.317 533.928 309.179 548.333C286.041 562.737 267.384 571.393 265.326 567.642C263.267 563.891 264.041 555.018 287.178 540.613C310.316 526.209 353.523 505.965 355.582 509.716Z" fill="#3F3C3C"/>
<path d="M341.078 516.204C348.982 525.059 336.507 541.894 326.647 560.023C316.787 578.151 307.211 590.498 303.57 588.251C299.928 586.003 295.651 578.96 305.511 560.832C315.371 542.704 337.437 513.957 341.078 516.204Z" fill="#3F3C3C"/>
<path d="M351.178 508.21C362.234 511.53 358.793 525.35 358.266 539.256C357.739 553.162 354.837 563.414 350.576 563.018C346.316 562.621 339.308 559.433 339.835 545.527C340.362 531.621 346.917 507.814 351.178 508.21Z" fill="#3F3C3C"/>
<g filter="url(#filter12_d_8_869)">
<path d="M351.107 327.866C349.961 338.776 269.56 389.043 200.743 385.613C131.927 382.182 79.0134 329.051 80.1595 318.14C81.3055 307.23 136.077 342.672 204.894 346.103C273.711 349.533 352.253 316.955 351.107 327.866Z" fill="url(#paint27_linear_8_869)"/>
</g>
<g filter="url(#filter13_d_8_869)">
<path d="M301.997 295.998C296.956 305.749 203.754 323.445 140.901 295.303C78.0471 267.162 48.1087 198.474 53.15 188.723C58.1913 178.972 96.3031 231.85 159.157 259.992C222.01 288.134 307.038 286.247 301.997 295.998Z" fill="url(#paint28_linear_8_869)"/>
</g>
<path d="M315.136 272.28C313.245 279.899 251.851 294.635 203.575 282.76C155.3 270.884 124.96 208.498 126.851 200.879C128.742 193.259 157.306 225.207 205.582 237.083C253.857 248.958 317.027 264.66 315.136 272.28Z" fill="url(#paint29_linear_8_869)"/>
<path d="M310.262 281.446C310.255 288.108 267.333 313.784 229.276 314.752C191.22 315.719 157.223 271.334 157.231 264.673C157.238 258.012 184.329 277.855 222.385 276.887C260.442 275.919 310.269 274.785 310.262 281.446Z" fill="url(#paint30_linear_8_869)"/>
<ellipse cx="467.546" cy="449.157" rx="11.4812" ry="58.0574" transform="rotate(-58.5208 467.546 449.157)" fill="#DD0000"/>
<ellipse cx="440.471" cy="453.707" rx="14.7001" ry="46.6125" transform="rotate(-53.4157 440.471 453.707)" fill="#DD0000"/>
<ellipse cx="420.485" cy="462.217" rx="14.7001" ry="46.6125" transform="rotate(-50.2246 420.485 462.217)" fill="#DD0000"/>
<path d="M417 85.3724C417 130.161 413.472 197 370.435 197C327.398 197 264 130.161 264 85.3726C264 40.584 288.118 10 331.155 10C374.192 10 417 40.5838 417 85.3724Z" fill="#E90000"/>
<path d="M405.254 303.146C405.254 389.067 469.933 472 405.254 472C338.152 435.636 228.638 493.818 203 342.356C203 242.119 273.474 152 338.152 152C402.831 152 405.254 217.226 405.254 303.146Z" fill="#E90000"/>
<path d="M322.32 83.4032C322.32 118.308 294.6 152 322.32 152C351.078 137.227 398.012 160.864 409 99.332C409 58.6107 378.797 22 351.078 22C323.358 22 322.32 48.4979 322.32 83.4032Z" fill="#CE0000" fill-opacity="0.43"/>
<path d="M350.969 322.441C350.969 381.243 398.288 438 350.969 438C301.878 413.114 221.757 452.932 203 349.275C203 280.675 254.559 219 301.878 219C349.197 219 350.969 263.639 350.969 322.441Z" fill="#CE0000" fill-opacity="0.43"/>
<ellipse cx="357.181" cy="74.5434" rx="24.1226" ry="30.7579" transform="rotate(-10.8687 357.181 74.5434)" fill="#D9D9D9"/>
<ellipse cx="360.787" cy="80.2097" rx="13.6394" ry="14.5822" transform="rotate(7.10493 360.787 80.2097)" fill="url(#paint31_diamond_8_869)"/>
<path d="M365.625 84.6132C365.159 88.3499 361.854 90.9868 358.272 90.5403C354.69 90.0938 352.133 86.7264 352.599 82.9896C353.065 79.2528 356.37 76.6159 359.952 77.0624C363.534 77.5089 366.091 80.8764 365.625 84.6132Z" fill="black" stroke="#BDBDBD"/>
<ellipse cx="359.43" cy="79.2807" rx="2.92273" ry="2.76559" transform="rotate(7.10493 359.43 79.2807)" fill="#D9D9D9"/>
<ellipse cx="358.241" cy="90.7868" rx="2.19205" ry="1.75992" transform="rotate(7.10493 358.241 90.7868)" fill="#D9D9D9"/>
<path d="M309.064 94.1999C303.569 85.9839 283.15 70.7516 260.027 98.9069C236.905 127.062 218.984 130.866 218.984 130.866C218.984 130.866 237.074 155.876 271.773 136.36C306.472 116.845 314.559 102.416 309.064 94.1999Z" fill="url(#paint32_radial_8_869)"/>
<path d="M457.488 300.412C465.735 344.485 419.946 363.647 398.979 367.571C378.011 371.495 405.413 329.388 397.166 285.315C388.919 241.242 368.242 209.662 389.209 205.738C410.177 201.815 449.241 256.339 457.488 300.412Z" fill="url(#paint33_linear_8_869)"/>
<path d="M443.518 333.62C453.394 320.277 439.422 305.138 432.272 299.846C425.123 294.554 428.74 313.974 418.863 327.317C408.987 340.66 396.447 347.428 403.596 352.72C410.746 358.012 433.641 346.963 443.518 333.62Z" fill="url(#paint34_linear_8_869)"/>
<path d="M443.518 333.62C453.394 320.277 439.422 305.138 432.272 299.846C425.123 294.554 428.74 313.974 418.863 327.317C408.987 340.66 396.447 347.428 403.596 352.72C410.746 358.012 433.641 346.963 443.518 333.62Z" fill="url(#paint35_linear_8_869)"/>
<path d="M455.038 353.731C468.046 343.417 458.494 325.164 452.967 318.194C447.441 311.224 445.881 330.916 432.873 341.23C419.865 351.544 405.996 354.816 411.522 361.786C417.049 368.756 442.031 364.045 455.038 353.731Z" fill="url(#paint36_linear_8_869)"/>
<path d="M455.038 353.731C468.046 343.417 458.494 325.164 452.967 318.194C447.441 311.224 445.881 330.916 432.873 341.23C419.865 351.544 405.996 354.816 411.522 361.786C417.049 368.756 442.031 364.045 455.038 353.731Z" fill="url(#paint37_linear_8_869)"/>
<path d="M465.503 366.622C479.188 357.227 470.913 338.36 465.878 331.027C460.844 323.694 457.934 343.233 444.249 352.628C430.563 362.024 416.502 364.336 421.536 371.669C426.571 379.002 451.817 376.018 465.503 366.622Z" fill="url(#paint38_linear_8_869)"/>
<path d="M465.503 366.622C479.188 357.227 470.913 338.36 465.878 331.027C460.844 323.694 457.934 343.233 444.249 352.628C430.563 362.024 416.502 364.336 421.536 371.669C426.571 379.002 451.817 376.018 465.503 366.622Z" fill="url(#paint39_linear_8_869)"/>
<path d="M396.652 371.057C400.482 384.769 425.834 381.121 436.586 378.118C447.338 375.115 426.753 368.881 422.923 355.17C419.094 341.458 423.434 328.758 412.682 331.761C401.93 334.764 392.822 357.345 396.652 371.057Z" fill="url(#paint40_linear_8_869)"/>
<ellipse cx="408.55" cy="38.051" rx="21.8793" ry="8.24438" fill="#E90000"/>
<ellipse cx="414.903" cy="50.9222" rx="21.8793" ry="8.24438" transform="rotate(12.754 414.903 50.9222)" fill="#E90000"/>
<path d="M237.981 138.208C238.839 141.396 318.692 112.699 298.606 112.576C278.52 112.453 268.871 97.21 265.634 97.3895C262.396 97.569 237.124 135.021 237.981 138.208Z" fill="#841E1E"/>
<path d="M227.762 118.348C226.181 121.876 271.341 121.718 270.155 120.799C268.969 119.88 259.889 111.19 257.806 111.322C255.724 111.454 229.342 114.821 227.762 118.348Z" fill="#D23838"/>
<path d="M318 69.8362C318 88.1659 308.446 132.697 269.277 113.134C230.107 93.5699 211 106.181 211 106.181C211 106.181 212.274 48.9782 256.857 43.2895C301.44 37.6008 318 51.5065 318 69.8362Z" fill="url(#paint41_radial_8_869)"/>
<defs>
<filter id="filter0_d_8_869" x="52.7808" y="4.58179" width="262.641" height="270.158" filterUnits="userSpaceOnUse" color-interpolation-filters="sRGB">
<feFlood flood-opacity="0" result="BackgroundImageFix"/>
<feColorMatrix in="SourceAlpha" type="matrix" values="0 0 0 0 0 0 0 0 0 0 0 0 0 0 0 0 0 0 127 0" result="hardAlpha"/>
<feOffset dy="4"/>
<feGaussianBlur stdDeviation="2"/>
<feComposite in2="hardAlpha" operator="out"/>
<feColorMatrix type="matrix" values="0 0 0 0 0 0 0 0 0 0 0 0 0 0 0 0 0 0 0.25 0"/>
<feBlend mode="normal" in2="BackgroundImageFix" result="effect1_dropShadow_8_869"/>
<feBlend mode="normal" in="SourceGraphic" in2="effect1_dropShadow_8_869" result="shape"/>
</filter>
<filter id="filter1_d_8_869" x="52.7808" y="4.58179" width="262.641" height="270.158" filterUnits="userSpaceOnUse" color-interpolation-filters="sRGB">
<feFlood flood-opacity="0" result="BackgroundImageFix"/>
<feColorMatrix in="SourceAlpha" type="matrix" values="0 0 0 0 0 0 0 0 0 0 0 0 0 0 0 0 0 0 127 0" result="hardAlpha"/>
<feOffset dy="4"/>
<feGaussianBlur stdDeviation="2"/>
<feComposite in2="hardAlpha" operator="out"/>
<feColorMatrix type="matrix" values="0 0 0 0 0 0 0 0 0 0 0 0 0 0 0 0 0 0 0.25 0"/>
<feBlend mode="normal" in2="BackgroundImageFix" result="effect1_dropShadow_8_869"/>
<feBlend mode="normal" in="SourceGraphic" in2="effect1_dropShadow_8_869" result="shape"/>
</filter>
<filter id="filter2_d_8_869" x="116.157" y="111.646" width="198.96" height="162.469" filterUnits="userSpaceOnUse" color-interpolation-filters="sRGB">
<feFlood flood-opacity="0" result="BackgroundImageFix"/>
<feColorMatrix in="SourceAlpha" type="matrix" values="0 0 0 0 0 0 0 0 0 0 0 0 0 0 0 0 0 0 127 0" result="hardAlpha"/>
<feOffset dy="4"/>
<feGaussianBlur stdDeviation="2"/>
<feComposite in2="hardAlpha" operator="out"/>
<feColorMatrix type="matrix" values="0 0 0 0 0 0 0 0 0 0 0 0 0 0 0 0 0 0 0.25 0"/>
<feBlend mode="normal" in2="BackgroundImageFix" result="effect1_dropShadow_8_869"/>
<feBlend mode="normal" in="SourceGraphic" in2="effect1_dropShadow_8_869" result="shape"/>
</filter>
<filter id="filter3_d_8_869" x="41.2388" y="109.958" width="267.941" height="183.152" filterUnits="userSpaceOnUse" color-interpolation-filters="sRGB">
<feFlood flood-opacity="0" result="BackgroundImageFix"/>
<feColorMatrix in="SourceAlpha" type="matrix" values="0 0 0 0 0 0 0 0 0 0 0 0 0 0 0 0 0 0 127 0" result="hardAlpha"/>
<feOffset dy="4"/>
<feGaussianBlur stdDeviation="2"/>
<feComposite in2="hardAlpha" operator="out"/>
<feColorMatrix type="matrix" values="0 0 0 0 0 0 0 0 0 0 0 0 0 0 0 0 0 0 0.25 0"/>
<feBlend mode="normal" in2="BackgroundImageFix" result="effect1_dropShadow_8_869"/>
<feBlend mode="normal" in="SourceGraphic" in2="effect1_dropShadow_8_869" result="shape"/>
</filter>
<filter id="filter4_d_8_869" x="55.5635" y="245.527" width="269.284" height="110.057" filterUnits="userSpaceOnUse" color-interpolation-filters="sRGB">
<feFlood flood-opacity="0" result="BackgroundImageFix"/>
<feColorMatrix in="SourceAlpha" type="matrix" values="0 0 0 0 0 0 0 0 0 0 0 0 0 0 0 0 0 0 127 0" result="hardAlpha"/>
<feOffset dy="4"/>
<feGaussianBlur stdDeviation="2"/>
<feComposite in2="hardAlpha" operator="out"/>
<feColorMatrix type="matrix" values="0 0 0 0 0 0 0 0 0 0 0 0 0 0 0 0 0 0 0.25 0"/>
<feBlend mode="normal" in2="BackgroundImageFix" result="effect1_dropShadow_8_869"/>
<feBlend mode="normal" in="SourceGraphic" in2="effect1_dropShadow_8_869" result="shape"/>
</filter>
<filter id="filter5_d_8_869" x="76.1411" y="316.062" width="278.978" height="77.7178" filterUnits="userSpaceOnUse" color-interpolation-filters="sRGB">
<feFlood flood-opacity="0" result="BackgroundImageFix"/>
<feColorMatrix in="SourceAlpha" type="matrix" values="0 0 0 0 0 0 0 0 0 0 0 0 0 0 0 0 0 0 127 0" result="hardAlpha"/>
<feOffset dy="4"/>
<feGaussianBlur stdDeviation="2"/>
<feComposite in2="hardAlpha" operator="out"/>
<feColorMatrix type="matrix" values="0 0 0 0 0 0 0 0 0 0 0 0 0 0 0 0 0 0 0.25 0"/>
<feBlend mode="normal" in2="BackgroundImageFix" result="effect1_dropShadow_8_869"/>
<feBlend mode="normal" in="SourceGraphic" in2="effect1_dropShadow_8_869" result="shape"/>
</filter>
<filter id="filter6_d_8_869" x="48.6045" y="187.539" width="257.606" height="130.974" filterUnits="userSpaceOnUse" color-interpolation-filters="sRGB">
<feFlood flood-opacity="0" result="BackgroundImageFix"/>
<feColorMatrix in="SourceAlpha" type="matrix" values="0 0 0 0 0 0 0 0 0 0 0 0 0 0 0 0 0 0 127 0" result="hardAlpha"/>
<feOffset dy="4"/>
<feGaussianBlur stdDeviation="2"/>
<feComposite in2="hardAlpha" operator="out"/>
<feColorMatrix type="matrix" values="0 0 0 0 0 0 0 0 0 0 0 0 0 0 0 0 0 0 0.25 0"/>
<feBlend mode="normal" in2="BackgroundImageFix" result="effect1_dropShadow_8_869"/>
<feBlend mode="normal" in="SourceGraphic" in2="effect1_dropShadow_8_869" result="shape"/>
</filter>
<filter id="filter7_d_8_869" x="52.7808" y="4.58179" width="262.641" height="270.158" filterUnits="userSpaceOnUse" color-interpolation-filters="sRGB">
<feFlood flood-opacity="0" result="BackgroundImageFix"/>
<feColorMatrix in="SourceAlpha" type="matrix" values="0 0 0 0 0 0 0 0 0 0 0 0 0 0 0 0 0 0 127 0" result="hardAlpha"/>
<feOffset dy="4"/>
<feGaussianBlur stdDeviation="2"/>
<feComposite in2="hardAlpha" operator="out"/>
<feColorMatrix type="matrix" values="0 0 0 0 0 0 0 0 0 0 0 0 0 0 0 0 0 0 0.25 0"/>
<feBlend mode="normal" in2="BackgroundImageFix" result="effect1_dropShadow_8_869"/>
<feBlend mode="normal" in="SourceGraphic" in2="effect1_dropShadow_8_869" result="shape"/>
</filter>
<filter id="filter8_d_8_869" x="52.7808" y="4.58179" width="262.641" height="270.158" filterUnits="userSpaceOnUse" color-interpolation-filters="sRGB">
<feFlood flood-opacity="0" result="BackgroundImageFix"/>
<feColorMatrix in="SourceAlpha" type="matrix" values="0 0 0 0 0 0 0 0 0 0 0 0 0 0 0 0 0 0 127 0" result="hardAlpha"/>
<feOffset dy="4"/>
<feGaussianBlur stdDeviation="2"/>
<feComposite in2="hardAlpha" operator="out"/>
<feColorMatrix type="matrix" values="0 0 0 0 0 0 0 0 0 0 0 0 0 0 0 0 0 0 0.25 0"/>
<feBlend mode="normal" in2="BackgroundImageFix" result="effect1_dropShadow_8_869"/>
<feBlend mode="normal" in="SourceGraphic" in2="effect1_dropShadow_8_869" result="shape"/>
</filter>
<filter id="filter9_d_8_869" x="116.157" y="111.646" width="198.96" height="162.469" filterUnits="userSpaceOnUse" color-interpolation-filters="sRGB">
<feFlood flood-opacity="0" result="BackgroundImageFix"/>
<feColorMatrix in="SourceAlpha" type="matrix" values="0 0 0 0 0 0 0 0 0 0 0 0 0 0 0 0 0 0 127 0" result="hardAlpha"/>
<feOffset dy="4"/>
<feGaussianBlur stdDeviation="2"/>
<feComposite in2="hardAlpha" operator="out"/>
<feColorMatrix type="matrix" values="0 0 0 0 0 0 0 0 0 0 0 0 0 0 0 0 0 0 0.25 0"/>
<feBlend mode="normal" in2="BackgroundImageFix" result="effect1_dropShadow_8_869"/>
<feBlend mode="normal" in="SourceGraphic" in2="effect1_dropShadow_8_869" result="shape"/>
</filter>
<filter id="filter10_d_8_869" x="41.2388" y="109.958" width="267.941" height="183.152" filterUnits="userSpaceOnUse" color-interpolation-filters="sRGB">
<feFlood flood-opacity="0" result="BackgroundImageFix"/>
<feColorMatrix in="SourceAlpha" type="matrix" values="0 0 0 0 0 0 0 0 0 0 0 0 0 0 0 0 0 0 127 0" result="hardAlpha"/>
<feOffset dy="4"/>
<feGaussianBlur stdDeviation="2"/>
<feComposite in2="hardAlpha" operator="out"/>
<feColorMatrix type="matrix" values="0 0 0 0 0 0 0 0 0 0 0 0 0 0 0 0 0 0 0.25 0"/>
<feBlend mode="normal" in2="BackgroundImageFix" result="effect1_dropShadow_8_869"/>
<feBlend mode="normal" in="SourceGraphic" in2="effect1_dropShadow_8_869" result="shape"/>
</filter>
<filter id="filter11_d_8_869" x="55.5635" y="245.527" width="269.284" height="110.057" filterUnits="userSpaceOnUse" color-interpolation-filters="sRGB">
<feFlood flood-opacity="0" result="BackgroundImageFix"/>
<feColorMatrix in="SourceAlpha" type="matrix" values="0 0 0 0 0 0 0 0 0 0 0 0 0 0 0 0 0 0 127 0" result="hardAlpha"/>
<feOffset dy="4"/>
<feGaussianBlur stdDeviation="2"/>
<feComposite in2="hardAlpha" operator="out"/>
<feColorMatrix type="matrix" values="0 0 0 0 0 0 0 0 0 0 0 0 0 0 0 0 0 0 0.25 0"/>
<feBlend mode="normal" in2="BackgroundImageFix" result="effect1_dropShadow_8_869"/>
<feBlend mode="normal" in="SourceGraphic" in2="effect1_dropShadow_8_869" result="shape"/>
</filter>
<filter id="filter12_d_8_869" x="76.1411" y="316.062" width="278.978" height="77.7178" filterUnits="userSpaceOnUse" color-interpolation-filters="sRGB">
<feFlood flood-opacity="0" result="BackgroundImageFix"/>
<feColorMatrix in="SourceAlpha" type="matrix" values="0 0 0 0 0 0 0 0 0 0 0 0 0 0 0 0 0 0 127 0" result="hardAlpha"/>
<feOffset dy="4"/>
<feGaussianBlur stdDeviation="2"/>
<feComposite in2="hardAlpha" operator="out"/>
<feColorMatrix type="matrix" values="0 0 0 0 0 0 0 0 0 0 0 0 0 0 0 0 0 0 0.25 0"/>
<feBlend mode="normal" in2="BackgroundImageFix" result="effect1_dropShadow_8_869"/>
<feBlend mode="normal" in="SourceGraphic" in2="effect1_dropShadow_8_869" result="shape"/>
</filter>
<filter id="filter13_d_8_869" x="48.6045" y="187.539" width="257.606" height="130.974" filterUnits="userSpaceOnUse" color-interpolation-filters="sRGB">
<feFlood flood-opacity="0" result="BackgroundImageFix"/>
<feColorMatrix in="SourceAlpha" type="matrix" values="0 0 0 0 0 0 0 0 0 0 0 0 0 0 0 0 0 0 127 0" result="hardAlpha"/>
<feOffset dy="4"/>
<feGaussianBlur stdDeviation="2"/>
<feComposite in2="hardAlpha" operator="out"/>
<feColorMatrix type="matrix" values="0 0 0 0 0 0 0 0 0 0 0 0 0 0 0 0 0 0 0.25 0"/>
<feBlend mode="normal" in2="BackgroundImageFix" result="effect1_dropShadow_8_869"/>
<feBlend mode="normal" in="SourceGraphic" in2="effect1_dropShadow_8_869" result="shape"/>
</filter>
<linearGradient id="paint0_linear_8_869" x1="201.293" y1="49.2368" x2="40.004" y2="203.392" gradientUnits="userSpaceOnUse">
<stop offset="0.278621" stop-color="#0054CB"/>
<stop offset="0.822016" stop-color="#002A65"/>
</linearGradient>
<linearGradient id="paint1_linear_8_869" x1="102.962" y1="141.31" x2="326.492" y2="185.163" gradientUnits="userSpaceOnUse">
<stop stop-color="#FFD024"/>
<stop offset="1" stop-color="#D6AA0A"/>
</linearGradient>
<linearGradient id="paint2_linear_8_869" x1="201.293" y1="49.2368" x2="40.004" y2="203.392" gradientUnits="userSpaceOnUse">
<stop offset="0.278621" stop-color="#0054CB"/>
<stop offset="0.822016" stop-color="#002A65"/>
</linearGradient>
<linearGradient id="paint3_linear_8_869" x1="236.976" y1="58.3076" x2="-12.1131" y2="275.578" gradientUnits="userSpaceOnUse">
<stop stop-color="#F3D154"/>
<stop offset="1" stop-color="#CCA000"/>
</linearGradient>
<linearGradient id="paint4_linear_8_869" x1="171.206" y1="120.146" x2="67.5014" y2="280.038" gradientUnits="userSpaceOnUse">
<stop offset="0.278621" stop-color="#0054CB"/>
<stop offset="0.822016" stop-color="#002A65"/>
</linearGradient>
<linearGradient id="paint5_linear_8_869" x1="169.409" y1="224.366" x2="124.641" y2="381.803" gradientUnits="userSpaceOnUse">
<stop offset="0.278621" stop-color="#0054CB"/>
<stop offset="0.822016" stop-color="#002A65"/>
</linearGradient>
<linearGradient id="paint6_linear_8_869" x1="181.289" y1="270.249" x2="175.03" y2="433.785" gradientUnits="userSpaceOnUse">
<stop offset="0.278621" stop-color="#0054CB"/>
<stop offset="0.822016" stop-color="#002A65"/>
</linearGradient>
<linearGradient id="paint7_linear_8_869" x1="164.795" y1="180.755" x2="99.6182" y2="330.963" gradientUnits="userSpaceOnUse">
<stop offset="0.278621" stop-color="#0054CB"/>
<stop offset="0.822016" stop-color="#002A65"/>
</linearGradient>
<linearGradient id="paint8_linear_8_869" x1="119.671" y1="229.809" x2="308.711" y2="209.725" gradientUnits="userSpaceOnUse">
<stop stop-color="#FFD024"/>
<stop offset="1" stop-color="#D6AA0A"/>
</linearGradient>
<linearGradient id="paint9_linear_8_869" x1="157.204" y1="289.964" x2="297.939" y2="243.541" gradientUnits="userSpaceOnUse">
<stop stop-color="#FFD024"/>
<stop offset="1" stop-color="#D6AA0A"/>
</linearGradient>
<radialGradient id="paint10_diamond_8_869" cx="0" cy="0" r="1" gradientUnits="userSpaceOnUse" gradientTransform="translate(355.185 80.2097) rotate(68.9852) scale(15.6212 14.7344)">
<stop stop-color="#1578B9"/>
<stop offset="1" stop-color="#0A3653"/>
</radialGradient>
<radialGradient id="paint11_radial_8_869" cx="0" cy="0" r="1" gradientUnits="userSpaceOnUse" gradientTransform="translate(263.25 121.575) rotate(-107.648) scale(20.4153 72.4129)">
<stop stop-color="#FFEDAC"/>
<stop offset="1" stop-color="#FFCB0C"/>
</radialGradient>
<linearGradient id="paint12_linear_8_869" x1="380.823" y1="308.257" x2="514.01" y2="272.369" gradientUnits="userSpaceOnUse">
<stop stop-color="#E90000"/>
<stop offset="1" stop-color="#830000"/>
</linearGradient>
<linearGradient id="paint13_linear_8_869" x1="416.37" y1="316.468" x2="459.378" y2="354.59" gradientUnits="userSpaceOnUse">
<stop stop-color="#0061E9"/>
<stop offset="1" stop-color="#002057"/>
</linearGradient>
<linearGradient id="paint14_linear_8_869" x1="416.37" y1="316.468" x2="459.378" y2="354.59" gradientUnits="userSpaceOnUse">
<stop stop-color="#0061E9"/>
<stop offset="1" stop-color="#002057"/>
</linearGradient>
<linearGradient id="paint15_linear_8_869" x1="433.288" y1="330.107" x2="464.896" y2="378.106" gradientUnits="userSpaceOnUse">
<stop stop-color="#0061E9"/>
<stop offset="1" stop-color="#002057"/>
</linearGradient>
<linearGradient id="paint16_linear_8_869" x1="433.288" y1="330.107" x2="464.896" y2="378.106" gradientUnits="userSpaceOnUse">
<stop stop-color="#0061E9"/>
<stop offset="1" stop-color="#002057"/>
</linearGradient>
<linearGradient id="paint17_linear_8_869" x1="445.427" y1="341.56" x2="473.663" y2="391.617" gradientUnits="userSpaceOnUse">
<stop stop-color="#0061E9"/>
<stop offset="1" stop-color="#002057"/>
</linearGradient>
<linearGradient id="paint18_linear_8_869" x1="445.427" y1="341.56" x2="473.663" y2="391.617" gradientUnits="userSpaceOnUse">
<stop stop-color="#0061E9"/>
<stop offset="1" stop-color="#002057"/>
</linearGradient>
<linearGradient id="paint19_linear_8_869" x1="434.817" y1="358.291" x2="363.747" y2="368.588" gradientUnits="userSpaceOnUse">
<stop stop-color="#E9BA00"/>
<stop offset="1" stop-color="#B97405"/>
</linearGradient>
<radialGradient id="paint20_radial_8_869" cx="0" cy="0" r="1" gradientUnits="userSpaceOnUse" gradientTransform="translate(258.131 74.8682) rotate(80.0672) scale(36.9234 83.3983)">
<stop stop-color="#FFEDAC"/>
<stop offset="1" stop-color="#FFCB0C"/>
</radialGradient>
<linearGradient id="paint21_linear_8_869" x1="201.293" y1="49.2368" x2="40.004" y2="203.392" gradientUnits="userSpaceOnUse">
<stop offset="0.278621" stop-color="#0054CB"/>
<stop offset="0.822016" stop-color="#002A65"/>
</linearGradient>
<linearGradient id="paint22_linear_8_869" x1="102.962" y1="141.31" x2="326.492" y2="185.163" gradientUnits="userSpaceOnUse">
<stop stop-color="#FFD024"/>
<stop offset="1" stop-color="#D6AA0A"/>
</linearGradient>
<linearGradient id="paint23_linear_8_869" x1="201.293" y1="49.2368" x2="40.004" y2="203.392" gradientUnits="userSpaceOnUse">
<stop offset="0.278621" stop-color="#0054CB"/>
<stop offset="0.822016" stop-color="#002A65"/>
</linearGradient>
<linearGradient id="paint24_linear_8_869" x1="236.976" y1="58.3076" x2="-12.1131" y2="275.578" gradientUnits="userSpaceOnUse">
<stop stop-color="#F3D154"/>
<stop offset="1" stop-color="#CCA000"/>
</linearGradient>
<linearGradient id="paint25_linear_8_869" x1="171.206" y1="120.146" x2="67.5014" y2="280.038" gradientUnits="userSpaceOnUse">
<stop offset="0.278621" stop-color="#0054CB"/>
<stop offset="0.822016" stop-color="#002A65"/>
</linearGradient>
<linearGradient id="paint26_linear_8_869" x1="169.409" y1="224.366" x2="124.641" y2="381.803" gradientUnits="userSpaceOnUse">
<stop offset="0.278621" stop-color="#0054CB"/>
<stop offset="0.822016" stop-color="#002A65"/>
</linearGradient>
<linearGradient id="paint27_linear_8_869" x1="181.289" y1="270.249" x2="175.03" y2="433.785" gradientUnits="userSpaceOnUse">
<stop offset="0.278621" stop-color="#0054CB"/>
<stop offset="0.822016" stop-color="#002A65"/>
</linearGradient>
<linearGradient id="paint28_linear_8_869" x1="164.795" y1="180.755" x2="99.6182" y2="330.963" gradientUnits="userSpaceOnUse">
<stop offset="0.278621" stop-color="#0054CB"/>
<stop offset="0.822016" stop-color="#002A65"/>
</linearGradient>
<linearGradient id="paint29_linear_8_869" x1="119.671" y1="229.809" x2="308.711" y2="209.725" gradientUnits="userSpaceOnUse">
<stop stop-color="#FFD024"/>
<stop offset="1" stop-color="#D6AA0A"/>
</linearGradient>
<linearGradient id="paint30_linear_8_869" x1="157.204" y1="289.964" x2="297.939" y2="243.541" gradientUnits="userSpaceOnUse">
<stop stop-color="#FFD024"/>
<stop offset="1" stop-color="#D6AA0A"/>
</linearGradient>
<radialGradient id="paint31_diamond_8_869" cx="0" cy="0" r="1" gradientUnits="userSpaceOnUse" gradientTransform="translate(355.185 80.2097) rotate(68.9852) scale(15.6212 14.7344)">
<stop stop-color="#1578B9"/>
<stop offset="1" stop-color="#0A3653"/>
</radialGradient>
<radialGradient id="paint32_radial_8_869" cx="0" cy="0" r="1" gradientUnits="userSpaceOnUse" gradientTransform="translate(263.25 121.575) rotate(-107.648) scale(20.4153 72.4129)">
<stop stop-color="#FFEDAC"/>
<stop offset="1" stop-color="#FFCB0C"/>
</radialGradient>
<linearGradient id="paint33_linear_8_869" x1="380.823" y1="308.257" x2="514.01" y2="272.369" gradientUnits="userSpaceOnUse">
<stop stop-color="#E90000"/>
<stop offset="1" stop-color="#830000"/>
</linearGradient>
<linearGradient id="paint34_linear_8_869" x1="416.37" y1="316.468" x2="459.378" y2="354.59" gradientUnits="userSpaceOnUse">
<stop stop-color="#0061E9"/>
<stop offset="1" stop-color="#002057"/>
</linearGradient>
<linearGradient id="paint35_linear_8_869" x1="416.37" y1="316.468" x2="459.378" y2="354.59" gradientUnits="userSpaceOnUse">
<stop stop-color="#0061E9"/>
<stop offset="1" stop-color="#002057"/>
</linearGradient>
<linearGradient id="paint36_linear_8_869" x1="433.288" y1="330.107" x2="464.896" y2="378.106" gradientUnits="userSpaceOnUse">
<stop stop-color="#0061E9"/>
<stop offset="1" stop-color="#002057"/>
</linearGradient>
<linearGradient id="paint37_linear_8_869" x1="433.288" y1="330.107" x2="464.896" y2="378.106" gradientUnits="userSpaceOnUse">
<stop stop-color="#0061E9"/>
<stop offset="1" stop-color="#002057"/>
</linearGradient>
<linearGradient id="paint38_linear_8_869" x1="445.427" y1="341.56" x2="473.663" y2="391.617" gradientUnits="userSpaceOnUse">
<stop stop-color="#0061E9"/>
<stop offset="1" stop-color="#002057"/>
</linearGradient>
<linearGradient id="paint39_linear_8_869" x1="445.427" y1="341.56" x2="473.663" y2="391.617" gradientUnits="userSpaceOnUse">
<stop stop-color="#0061E9"/>
<stop offset="1" stop-color="#002057"/>
</linearGradient>
<linearGradient id="paint40_linear_8_869" x1="434.817" y1="358.291" x2="363.747" y2="368.588" gradientUnits="userSpaceOnUse">
<stop stop-color="#E9BA00"/>
<stop offset="1" stop-color="#B97405"/>
</linearGradient>
<radialGradient id="paint41_radial_8_869" cx="0" cy="0" r="1" gradientUnits="userSpaceOnUse" gradientTransform="translate(258.131 74.8682) rotate(80.0672) scale(36.9234 83.3983)">
<stop stop-color="#FFEDAC"/>
<stop offset="1" stop-color="#FFCB0C"/>
</radialGradient>
</defs>
</svg>
