<svg width="6566" height="7120" viewBox="0 0 6566 7120" fill="none" xmlns="http://www.w3.org/2000/svg">
<rect x="3317.57" y="157.636" width="15.5684" height="436.364" fill="black"/>
<rect width="15.3866" height="277.13" transform="matrix(-0.00158798 -0.999999 0.999999 -0.0015511 3194.61 473.799)" fill="black"/>
<path d="M3397.42 1.39847C3363.69 -5.67374 3311.6 84.9048 3311.6 84.9048C3311.6 84.9048 3319.28 254.706 3328.28 228.419C3337.27 202.132 3470.13 153.13 3447.66 71.7615C3437.88 36.349 3425.75 7.3368 3397.42 1.39847Z" fill="black" stroke="black"/>
<path d="M3253.3 1.45653C3287.03 -5.61567 3322.44 71.8196 3322.44 71.8196C3322.44 71.8196 3331.44 254.764 3322.44 228.477C3313.44 202.19 3180.58 153.188 3203.06 71.8196C3212.84 36.4071 3224.97 7.39486 3253.3 1.45653Z" fill="black" stroke="black"/>
<path d="M3128.2 467.323L3080 506.296L3162.51 506.483L3214.13 467.518L3162.68 433.551L3080.17 433.364L3128.2 467.323Z" fill="black" stroke="black"/>
<path d="M3466.25 468.184L3437.51 425.363L3488.85 451.132L3550.47 469.211L3488.85 484.214L3436.52 505.213L3466.25 468.184Z" fill="black" stroke="black"/>
<rect x="2146.58" y="2061.02" width="2384.41" height="229.951" rx="96.5" fill="#8E5F00" fill-opacity="0.96" stroke="black" stroke-width="7"/>
<rect x="2134.76" y="2967.14" width="2383.1" height="231.096" rx="96.5" fill="#8E5F00" fill-opacity="0.96" stroke="black" stroke-width="7"/>
<rect x="2137.39" y="2740.74" width="2380.47" height="229.951" rx="96.5" fill="#8E5F00" fill-opacity="0.96" stroke="black" stroke-width="7"/>
<rect x="2147.89" y="2518.5" width="2383.1" height="232.241" rx="96.5" fill="#8E5F00" fill-opacity="0.96" stroke="black" stroke-width="7"/>
<rect x="2151.83" y="2266.84" width="2383.1" height="252.845" rx="96.5" fill="#8E5F00" fill-opacity="0.96" stroke="black" stroke-width="7"/>
<path d="M2522.11 3076.4C2522.11 3111.1 2500.78 3142.59 2466.17 3165.42C2431.57 3188.25 2383.73 3202.38 2330.87 3202.38C2278.01 3202.38 2230.18 3188.25 2195.57 3165.42C2160.96 3142.59 2139.64 3111.1 2139.64 3076.4C2139.64 3041.69 2160.96 3010.2 2195.57 2987.37C2230.18 2964.54 2278.01 2950.41 2330.87 2950.41C2383.73 2950.41 2431.57 2964.54 2466.17 2987.37C2500.78 3010.2 2522.11 3041.69 2522.11 3076.4Z" fill="#8E4200" fill-opacity="0.86" stroke="black"/>
<path d="M2326.7 3070.05C2396.62 3037.77 2333.41 3145.21 2279.43 3082.08C2225.45 3018.95 2480.37 3001.71 2422.09 3119.49C2422.09 3119.49 2410.28 3140.35 2395.05 3149.17C2371.36 3162.87 2347.9 3164.11 2316.43 3160.79C2283.12 3157.28 2264.09 3147.9 2241.3 3130.58C2215.53 3111 2205.3 3094.27 2204.76 3068.47C2204.22 3042.96 2211.98 3025.79 2237.92 3008.05C2260.11 2992.88 2280.2 2988.93 2311.59 2985.3C2345.93 2981.33 2370.18 2980.02 2401.16 2991.99C2432.66 3004.17 2445.23 3019.33 2457.12 3042.5C2469.07 3065.79 2461.18 3080.69 2458.84 3104.95C2456.65 3127.67 2453.91 3140.41 2446.49 3162.48" stroke="black" stroke-width="4"/>
<path d="M4520.86 2167.98C4520.86 2202.69 4499.75 2234.18 4465.5 2257.01C4431.25 2279.84 4383.91 2293.97 4331.59 2293.97C4279.28 2293.97 4231.93 2279.84 4197.69 2257.01C4163.44 2234.18 4142.33 2202.69 4142.33 2167.98C4142.33 2133.27 4163.44 2101.79 4197.69 2078.96C4231.93 2056.13 4279.28 2041.99 4331.59 2041.99C4383.91 2041.99 4431.25 2056.13 4465.5 2078.96C4499.75 2101.79 4520.86 2133.27 4520.86 2167.98Z" fill="#8E4200" fill-opacity="0.86" stroke="black"/>
<path d="M4326.63 2162.31C4396.56 2130.02 4333.35 2237.46 4279.37 2174.34C4225.39 2111.21 4480.31 2093.97 4422.03 2211.75C4422.03 2211.75 4410.22 2232.6 4394.98 2241.42C4371.3 2255.13 4347.83 2256.36 4316.36 2253.05C4283.06 2249.54 4264.02 2240.15 4241.23 2222.84C4215.47 2203.26 4205.24 2186.52 4204.69 2160.73C4204.15 2135.22 4211.91 2118.05 4237.86 2100.31C4260.05 2085.14 4280.14 2081.19 4311.53 2077.56C4345.87 2073.59 4370.12 2072.27 4401.1 2084.25C4432.59 2096.43 4445.16 2111.59 4457.05 2134.76C4469.01 2158.05 4461.12 2172.95 4458.77 2197.21C4456.58 2219.93 4453.85 2232.66 4446.43 2254.73" stroke="black" stroke-width="4"/>
<path d="M4520.86 2383.82C4520.86 2418.53 4499.75 2450.01 4465.5 2472.84C4431.25 2495.67 4383.91 2509.81 4331.59 2509.81C4279.28 2509.81 4231.93 2495.67 4197.69 2472.84C4163.44 2450.01 4142.33 2418.53 4142.33 2383.82C4142.33 2349.11 4163.44 2317.63 4197.69 2294.79C4231.93 2271.97 4279.28 2257.83 4331.59 2257.83C4383.91 2257.83 4431.25 2271.97 4465.5 2294.79C4499.75 2317.63 4520.86 2349.11 4520.86 2383.82Z" fill="#8E4200" fill-opacity="0.86" stroke="black"/>
<path d="M4326.63 2377.51C4396.56 2345.23 4333.35 2452.67 4279.37 2389.54C4225.39 2326.41 4480.31 2309.17 4422.03 2426.95C4422.03 2426.95 4410.22 2447.81 4394.98 2456.63C4371.3 2470.33 4347.83 2471.57 4316.36 2468.25C4283.06 2464.74 4264.02 2455.36 4241.23 2438.04C4215.47 2418.46 4205.24 2401.73 4204.69 2375.93C4204.15 2350.42 4211.91 2333.25 4237.86 2315.51C4260.05 2300.34 4280.14 2296.39 4311.53 2292.76C4345.87 2288.79 4370.12 2287.48 4401.1 2299.45C4432.59 2311.63 4445.16 2326.79 4457.05 2349.96C4469.01 2373.25 4461.12 2388.15 4458.77 2412.41C4456.58 2435.13 4453.85 2447.87 4446.43 2469.94" stroke="black" stroke-width="4"/>
<path d="M4530.05 2632.91C4530.05 2667.77 4508.72 2699.4 4474.12 2722.34C4439.51 2745.27 4391.68 2759.47 4338.82 2759.47C4285.95 2759.47 4238.12 2745.27 4203.52 2722.34C4168.91 2699.4 4147.58 2667.77 4147.58 2632.91C4147.58 2598.04 4168.91 2566.41 4203.52 2543.48C4238.12 2520.55 4285.95 2506.35 4338.82 2506.35C4391.68 2506.35 4439.51 2520.55 4474.12 2543.48C4508.72 2566.41 4530.05 2598.04 4530.05 2632.91Z" fill="#8E4200" fill-opacity="0.86" stroke="black"/>
<path d="M4333.54 2626.95C4403.47 2594.67 4340.26 2702.11 4286.28 2638.98C4232.3 2575.86 4487.22 2558.61 4428.94 2676.39C4428.94 2676.39 4417.13 2697.25 4401.89 2706.07C4378.21 2719.78 4354.74 2721.01 4323.27 2717.69C4289.97 2714.18 4270.93 2704.8 4248.14 2687.48C4222.38 2667.9 4212.15 2651.17 4211.61 2625.37C4211.07 2599.86 4218.82 2582.69 4244.77 2564.95C4266.96 2549.78 4287.05 2545.83 4318.44 2542.2C4352.78 2538.24 4377.03 2536.92 4408.01 2548.89C4439.51 2561.07 4452.07 2576.23 4463.96 2599.4C4475.92 2622.69 4468.03 2637.59 4465.69 2661.85C4463.49 2684.57 4460.76 2697.31 4453.34 2719.38" stroke="black" stroke-width="4"/>
<path d="M4520.86 2861.44C4520.86 2896.47 4499.75 2928.24 4465.5 2951.28C4431.25 2974.31 4383.91 2988.58 4331.59 2988.58C4279.28 2988.58 4231.94 2974.31 4197.69 2951.28C4163.44 2928.24 4142.33 2896.47 4142.33 2861.44C4142.33 2826.42 4163.44 2794.64 4197.69 2771.61C4231.94 2748.57 4279.28 2734.31 4331.59 2734.31C4383.91 2734.31 4431.25 2748.57 4465.5 2771.61C4499.75 2794.64 4520.86 2826.42 4520.86 2861.44Z" fill="#8E4200" fill-opacity="0.86" stroke="black"/>
<path d="M4318.49 2854.38C4388.42 2822.1 4325.21 2929.54 4271.23 2866.41C4217.25 2803.29 4472.17 2786.04 4413.89 2903.82C4413.89 2903.82 4402.08 2924.68 4386.85 2933.5C4363.16 2947.21 4339.7 2948.44 4308.22 2945.12C4274.92 2941.61 4255.89 2932.23 4233.09 2914.91C4207.33 2895.34 4197.1 2878.6 4196.56 2852.8C4196.02 2827.29 4203.78 2810.12 4229.72 2792.39C4251.91 2777.22 4272 2773.26 4303.39 2769.63C4337.73 2765.67 4361.98 2764.35 4392.96 2776.33C4424.46 2788.5 4437.02 2803.67 4448.92 2826.83C4460.87 2850.12 4452.98 2865.02 4450.64 2889.28C4448.44 2912 4445.71 2924.74 4438.29 2946.81" stroke="black" stroke-width="4"/>
<path d="M4503.78 3082.12C4503.78 3117.15 4482.67 3148.92 4448.42 3171.96C4414.18 3194.99 4366.84 3209.25 4314.52 3209.25C4262.2 3209.25 4214.86 3194.99 4180.62 3171.96C4146.37 3148.92 4125.26 3117.15 4125.26 3082.12C4125.26 3047.09 4146.37 3015.32 4180.62 2992.28C4214.86 2969.25 4262.2 2954.99 4314.52 2954.99C4366.84 2954.99 4414.18 2969.25 4448.42 2992.28C4482.67 3015.32 4503.78 3047.09 4503.78 3082.12Z" fill="#8E4200" fill-opacity="0.86" stroke="black"/>
<path d="M4309.56 3075.67C4379.49 3043.39 4316.27 3150.83 4262.29 3087.7C4208.32 3024.58 4463.24 3007.33 4404.95 3125.11C4404.95 3125.11 4393.15 3145.97 4377.91 3154.79C4354.23 3168.5 4330.76 3169.73 4299.29 3166.41C4265.99 3162.9 4246.95 3153.52 4224.16 3136.2C4198.4 3116.62 4188.17 3099.89 4187.62 3074.09C4187.08 3048.58 4194.84 3031.41 4220.78 3013.67C4242.97 2998.5 4263.06 2994.55 4294.46 2990.92C4328.79 2986.96 4353.05 2985.64 4384.03 2997.61C4415.52 3009.79 4428.09 3024.95 4439.98 3048.12C4451.93 3071.41 4444.04 3086.31 4441.7 3110.57C4439.51 3133.29 4436.78 3146.03 4429.36 3168.1" stroke="black" stroke-width="4"/>
<path d="M2526.05 2185.73C2526.05 2220.91 2504.72 2252.82 2470.11 2275.97C2435.51 2299.1 2387.67 2313.43 2334.81 2313.43C2281.95 2313.43 2234.12 2299.1 2199.51 2275.97C2164.91 2252.82 2143.58 2220.91 2143.58 2185.73C2143.58 2150.54 2164.91 2118.63 2199.51 2095.49C2234.12 2072.35 2281.95 2058.02 2334.81 2058.02C2387.67 2058.02 2435.51 2072.35 2470.11 2095.49C2504.72 2118.63 2526.05 2150.54 2526.05 2185.73Z" fill="#8E4200" fill-opacity="0.86" stroke="black"/>
<path d="M2330.21 2179.17C2400.13 2146.89 2336.92 2254.33 2282.94 2191.2C2228.96 2128.08 2483.88 2110.83 2425.6 2228.61C2425.6 2228.61 2413.79 2249.47 2398.56 2258.29C2374.87 2272 2351.41 2273.23 2319.94 2269.91C2286.63 2266.4 2267.6 2257.02 2244.81 2239.7C2219.04 2220.13 2208.81 2203.39 2208.27 2177.59C2207.73 2152.08 2215.49 2134.91 2241.43 2117.18C2263.62 2102.01 2283.71 2098.05 2315.1 2094.42C2349.44 2090.46 2373.69 2089.14 2404.67 2101.12C2436.17 2113.29 2448.74 2128.46 2460.63 2151.62C2472.58 2174.91 2464.69 2189.81 2462.35 2214.07C2460.16 2236.79 2457.42 2249.53 2450 2271.6" stroke="black" stroke-width="4"/>
<path d="M2526.05 2390.12C2526.05 2424.98 2504.72 2456.61 2470.11 2479.54C2435.51 2502.48 2387.67 2516.68 2334.81 2516.68C2281.95 2516.68 2234.12 2502.48 2199.51 2479.54C2164.9 2456.61 2143.58 2424.98 2143.58 2390.12C2143.58 2355.25 2164.9 2323.62 2199.51 2300.69C2234.12 2277.75 2281.95 2263.55 2334.81 2263.55C2387.67 2263.55 2435.51 2277.75 2470.11 2300.69C2504.72 2323.62 2526.05 2355.25 2526.05 2390.12Z" fill="#8E4200" fill-opacity="0.86" stroke="black"/>
<path d="M2330.21 2383.13C2400.13 2350.85 2336.92 2458.29 2282.94 2395.16C2228.96 2332.04 2483.88 2314.79 2425.6 2432.57C2425.6 2432.57 2413.79 2453.43 2398.56 2462.25C2374.87 2475.96 2351.41 2477.19 2319.94 2473.87C2286.63 2470.36 2267.6 2460.98 2244.81 2443.66C2219.04 2424.08 2208.81 2407.35 2208.27 2381.55C2207.73 2356.04 2215.49 2338.87 2241.43 2321.13C2263.62 2305.96 2283.71 2302.01 2315.1 2298.38C2349.44 2294.42 2373.69 2293.1 2404.67 2305.07C2436.17 2317.25 2448.74 2332.41 2460.63 2355.58C2472.58 2378.87 2464.69 2393.77 2462.35 2418.03C2460.16 2440.75 2457.42 2453.49 2450 2475.56" stroke="black" stroke-width="4"/>
<path d="M2511.6 2628.33C2511.6 2663.2 2490.35 2694.82 2455.86 2717.76C2421.37 2740.69 2373.7 2754.89 2321.02 2754.89C2268.34 2754.89 2220.67 2740.69 2186.19 2717.76C2151.7 2694.82 2130.45 2663.2 2130.45 2628.33C2130.45 2593.46 2151.7 2561.83 2186.19 2538.9C2220.67 2515.97 2268.34 2501.77 2321.02 2501.77C2373.7 2501.77 2421.37 2515.97 2455.86 2538.9C2490.35 2561.83 2511.6 2593.46 2511.6 2628.33Z" fill="#8E4200" fill-opacity="0.86" stroke="black"/>
<path d="M2315.41 2621.33C2385.34 2589.05 2322.13 2696.49 2268.15 2633.36C2214.17 2570.23 2469.09 2552.99 2410.81 2670.77C2410.81 2670.77 2399 2691.63 2383.77 2700.45C2360.08 2714.15 2336.62 2715.39 2305.14 2712.07C2271.84 2708.56 2252.81 2699.18 2230.02 2681.86C2204.25 2662.28 2194.02 2645.55 2193.48 2619.75C2192.94 2594.24 2200.7 2577.07 2226.64 2559.33C2248.83 2544.16 2268.92 2540.21 2300.31 2536.58C2334.65 2532.61 2358.9 2531.3 2389.88 2543.27C2421.38 2555.45 2433.94 2570.61 2445.84 2593.78C2457.79 2617.07 2449.9 2631.97 2447.56 2656.23C2445.36 2678.95 2442.63 2691.69 2435.21 2713.76" stroke="black" stroke-width="4"/>
<path d="M2515.54 2855.15C2515.54 2890.33 2494.28 2922.25 2459.8 2945.39C2425.31 2968.53 2377.64 2982.85 2324.96 2982.85C2272.28 2982.85 2224.62 2968.53 2190.13 2945.39C2155.64 2922.25 2134.39 2890.33 2134.39 2855.15C2134.39 2819.96 2155.64 2788.05 2190.13 2764.91C2224.62 2741.77 2272.28 2727.44 2324.96 2727.44C2377.64 2727.44 2425.31 2741.77 2459.8 2764.91C2494.28 2788.05 2515.54 2819.96 2515.54 2855.15Z" fill="#8E4200" fill-opacity="0.86" stroke="black"/>
<path d="M2319.35 2848.76C2389.28 2816.48 2326.07 2923.92 2272.09 2860.79C2218.11 2797.67 2473.03 2780.42 2414.75 2898.2C2414.75 2898.2 2402.94 2919.06 2387.71 2927.88C2364.02 2941.59 2340.56 2942.82 2309.08 2939.5C2275.78 2935.99 2256.75 2926.61 2233.96 2909.29C2208.19 2889.71 2197.96 2872.98 2197.42 2847.18C2196.88 2821.67 2204.64 2804.5 2230.58 2786.76C2252.77 2771.59 2272.86 2767.64 2304.25 2764.01C2338.59 2760.05 2362.84 2758.73 2393.82 2770.7C2425.32 2782.88 2437.88 2798.04 2449.78 2821.21C2461.73 2844.5 2453.84 2859.4 2451.5 2883.66C2449.3 2906.38 2446.57 2919.12 2439.15 2941.19" stroke="black" stroke-width="4"/>
<rect x="2140.01" y="3188.54" width="2384.41" height="229.951" rx="96.5" fill="#8E5F00" fill-opacity="0.96" stroke="black" stroke-width="7"/>
<rect x="2128.19" y="4094.67" width="2383.1" height="231.096" rx="96.5" fill="#8E5F00" fill-opacity="0.96" stroke="black" stroke-width="7"/>
<rect x="2130.82" y="3868.27" width="2380.47" height="229.951" rx="96.5" fill="#8E5F00" fill-opacity="0.96" stroke="black" stroke-width="7"/>
<rect x="2141.33" y="3646.03" width="2383.1" height="232.241" rx="96.5" fill="#8E5F00" fill-opacity="0.96" stroke="black" stroke-width="7"/>
<rect x="2145.27" y="3394.36" width="2383.1" height="252.845" rx="96.5" fill="#8E5F00" fill-opacity="0.96" stroke="black" stroke-width="7"/>
<path d="M2515.54 4203.92C2515.54 4238.63 2494.21 4270.11 2459.61 4292.94C2425 4315.77 2377.17 4329.91 2324.31 4329.91C2271.44 4329.91 2223.61 4315.77 2189.01 4292.94C2154.4 4270.11 2133.07 4238.63 2133.07 4203.92C2133.07 4169.21 2154.4 4137.73 2189.01 4114.9C2223.61 4092.07 2271.44 4077.93 2324.31 4077.93C2377.17 4077.93 2425 4092.07 2459.61 4114.9C2494.21 4137.73 2515.54 4169.21 2515.54 4203.92Z" fill="#8E4200" fill-opacity="0.86" stroke="black"/>
<path d="M2320.13 4197.57C2390.05 4165.29 2326.84 4272.73 2272.86 4209.6C2218.88 4146.48 2473.81 4129.24 2415.52 4247.01C2415.52 4247.01 2403.72 4267.87 2388.48 4276.69C2364.79 4290.4 2341.33 4291.63 2309.86 4288.31C2276.55 4284.8 2257.52 4275.42 2234.73 4258.1C2208.97 4238.53 2198.74 4221.79 2198.19 4195.99C2197.65 4170.48 2205.41 4153.31 2231.35 4135.58C2253.54 4120.41 2273.63 4116.45 2305.02 4112.82C2339.36 4108.86 2363.62 4107.54 2394.6 4119.52C2426.09 4131.69 2438.66 4146.86 2450.55 4170.02C2462.5 4193.31 2454.61 4208.21 2452.27 4232.47C2450.08 4255.19 2447.35 4267.93 2439.93 4290" stroke="black" stroke-width="4"/>
<path d="M4514.29 3295.51C4514.29 3330.22 4493.18 3361.7 4458.93 3384.53C4424.68 3407.36 4377.34 3421.5 4325.03 3421.5C4272.71 3421.5 4225.37 3407.36 4191.12 3384.53C4156.87 3361.7 4135.76 3330.22 4135.76 3295.51C4135.76 3260.8 4156.87 3229.31 4191.12 3206.48C4225.37 3183.65 4272.71 3169.52 4325.03 3169.52C4377.34 3169.52 4424.68 3183.65 4458.93 3206.48C4493.18 3229.31 4514.29 3260.8 4514.29 3295.51Z" fill="#8E4200" fill-opacity="0.86" stroke="black"/>
<path d="M4320.07 3289.83C4389.99 3257.55 4326.78 3364.99 4272.8 3301.86C4218.82 3238.74 4473.74 3221.49 4415.46 3339.27C4415.46 3339.27 4403.65 3360.13 4388.42 3368.95C4364.73 3382.66 4341.27 3383.89 4309.8 3380.57C4276.49 3377.06 4257.46 3367.68 4234.67 3350.36C4208.9 3330.78 4198.67 3314.05 4198.13 3288.25C4197.59 3262.74 4205.35 3245.57 4231.29 3227.83C4253.48 3212.66 4273.57 3208.71 4304.96 3205.08C4339.3 3201.12 4363.55 3199.8 4394.53 3211.78C4426.03 3223.95 4438.6 3239.11 4450.49 3262.28C4462.44 3285.57 4454.55 3300.47 4452.21 3324.73C4450.02 3347.45 4447.28 3360.19 4439.86 3382.26" stroke="black" stroke-width="4"/>
<path d="M4514.29 3511.34C4514.29 3546.05 4493.18 3577.54 4458.93 3600.37C4424.68 3623.2 4377.34 3637.33 4325.03 3637.33C4272.71 3637.33 4225.37 3623.2 4191.12 3600.37C4156.87 3577.54 4135.76 3546.05 4135.76 3511.34C4135.76 3476.63 4156.87 3445.15 4191.12 3422.32C4225.37 3399.49 4272.71 3385.35 4325.03 3385.35C4377.34 3385.35 4424.68 3399.49 4458.93 3422.32C4493.18 3445.15 4514.29 3476.63 4514.29 3511.34Z" fill="#8E4200" fill-opacity="0.86" stroke="black"/>
<path d="M4320.07 3505.03C4389.99 3472.75 4326.78 3580.19 4272.8 3517.06C4218.82 3453.94 4473.74 3436.7 4415.46 3554.47C4415.46 3554.47 4403.65 3575.33 4388.42 3584.15C4364.73 3597.86 4341.27 3599.09 4309.8 3595.77C4276.49 3592.26 4257.46 3582.88 4234.67 3565.56C4208.9 3545.99 4198.67 3529.25 4198.13 3503.45C4197.59 3477.94 4205.35 3460.77 4231.29 3443.04C4253.48 3427.87 4273.57 3423.91 4304.96 3420.28C4339.3 3416.32 4363.55 3415 4394.53 3426.98C4426.03 3439.15 4438.6 3454.32 4450.49 3477.48C4462.44 3500.77 4454.55 3515.67 4452.21 3539.93C4450.02 3562.65 4447.28 3575.39 4439.86 3597.46" stroke="black" stroke-width="4"/>
<path d="M4523.48 3760.43C4523.48 3795.3 4502.16 3826.93 4467.55 3849.86C4432.94 3872.79 4385.11 3886.99 4332.25 3886.99C4279.39 3886.99 4231.55 3872.79 4196.95 3849.86C4162.34 3826.93 4141.02 3795.3 4141.02 3760.43C4141.02 3725.56 4162.34 3693.94 4196.95 3671C4231.55 3648.07 4279.39 3633.87 4332.25 3633.87C4385.11 3633.87 4432.94 3648.07 4467.55 3671C4502.16 3693.94 4523.48 3725.56 4523.48 3760.43Z" fill="#8E4200" fill-opacity="0.86" stroke="black"/>
<path d="M4326.98 3754.47C4396.9 3722.19 4333.69 3829.63 4279.71 3766.5C4225.73 3703.38 4480.65 3686.14 4422.37 3803.91C4422.37 3803.91 4410.57 3824.77 4395.33 3833.59C4371.64 3847.3 4348.18 3848.53 4316.71 3845.21C4283.4 3841.71 4264.37 3832.32 4241.58 3815C4215.81 3795.43 4205.58 3778.69 4205.04 3752.89C4204.5 3727.39 4212.26 3710.21 4238.2 3692.48C4260.39 3677.31 4280.48 3673.35 4311.87 3669.73C4346.21 3665.76 4370.46 3664.44 4401.44 3676.42C4432.94 3688.59 4445.51 3703.76 4457.4 3726.93C4469.35 3750.21 4461.46 3765.11 4459.12 3789.37C4456.93 3812.1 4454.19 3824.83 4446.77 3846.9" stroke="black" stroke-width="4"/>
<path d="M4514.29 3988.97C4514.29 4023.99 4493.18 4055.77 4458.93 4078.8C4424.68 4101.84 4377.34 4116.1 4325.03 4116.1C4272.71 4116.1 4225.37 4101.84 4191.12 4078.8C4156.87 4055.77 4135.76 4023.99 4135.76 3988.97C4135.76 3953.94 4156.87 3922.17 4191.12 3899.13C4225.37 3876.1 4272.71 3861.83 4325.03 3861.83C4377.34 3861.83 4424.68 3876.1 4458.93 3899.13C4493.18 3922.17 4514.29 3953.94 4514.29 3988.97Z" fill="#8E4200" fill-opacity="0.86" stroke="black"/>
<path d="M4311.93 3981.91C4381.85 3949.62 4318.64 4057.06 4264.66 3993.94C4210.68 3930.81 4465.61 3913.57 4407.32 4031.34C4407.32 4031.34 4395.52 4052.2 4380.28 4061.02C4356.59 4074.73 4333.13 4075.96 4301.66 4072.65C4268.35 4069.14 4249.32 4059.75 4226.53 4042.44C4200.76 4022.86 4190.54 4006.12 4189.99 3980.33C4189.45 3954.82 4197.21 3937.65 4223.15 3919.91C4245.34 3904.74 4265.43 3900.78 4296.82 3897.16C4331.16 3893.19 4355.42 3891.87 4386.4 3903.85C4417.89 3916.03 4430.46 3931.19 4442.35 3954.36C4454.3 3977.64 4446.41 3992.54 4444.07 4016.81C4441.88 4039.53 4439.14 4052.26 4431.72 4074.33" stroke="black" stroke-width="4"/>
<path d="M4497.22 4209.64C4497.22 4244.67 4476.11 4276.44 4441.86 4299.48C4407.61 4322.51 4360.27 4336.78 4307.95 4336.78C4255.64 4336.78 4208.3 4322.51 4174.05 4299.48C4139.8 4276.44 4118.69 4244.67 4118.69 4209.64C4118.69 4174.62 4139.8 4142.84 4174.05 4119.81C4208.3 4096.77 4255.64 4082.51 4307.95 4082.51C4360.27 4082.51 4407.61 4096.77 4441.86 4119.81C4476.11 4142.84 4497.22 4174.62 4497.22 4209.64Z" fill="#8E4200" fill-opacity="0.86" stroke="black"/>
<path d="M4302.99 4203.19C4372.92 4170.91 4309.71 4278.35 4255.73 4215.23C4201.75 4152.1 4456.67 4134.86 4398.39 4252.63C4398.39 4252.63 4386.58 4273.49 4371.34 4282.31C4347.66 4296.02 4324.2 4297.25 4292.72 4293.93C4259.42 4290.43 4240.38 4281.04 4217.59 4263.72C4191.83 4244.15 4181.6 4227.41 4181.06 4201.61C4180.52 4176.11 4188.27 4158.93 4214.22 4141.2C4236.41 4126.03 4256.5 4122.07 4287.89 4118.45C4322.23 4114.48 4346.48 4113.16 4377.46 4125.14C4408.96 4137.31 4421.52 4152.48 4433.42 4175.65C4445.37 4198.93 4437.48 4213.83 4435.14 4238.09C4432.94 4260.82 4430.21 4273.55 4422.79 4295.62" stroke="black" stroke-width="4"/>
<path d="M2519.48 3313.25C2519.48 3348.43 2498.15 3380.35 2463.54 3403.49C2428.94 3426.63 2381.11 3440.96 2328.25 3440.96C2275.39 3440.96 2227.55 3426.63 2192.95 3403.49C2158.34 3380.35 2137.01 3348.43 2137.01 3313.25C2137.01 3278.07 2158.34 3246.15 2192.95 3223.01C2227.55 3199.87 2275.39 3185.54 2328.25 3185.54C2381.11 3185.54 2428.94 3199.87 2463.54 3223.01C2498.15 3246.15 2519.48 3278.07 2519.48 3313.25Z" fill="#8E4200" fill-opacity="0.86" stroke="black"/>
<path d="M2323.64 3306.7C2393.56 3274.41 2330.35 3381.85 2276.37 3318.73C2222.39 3255.6 2477.32 3238.36 2419.03 3356.13C2419.03 3356.13 2407.23 3376.99 2391.99 3385.81C2368.3 3399.52 2344.84 3400.75 2313.37 3397.44C2280.06 3393.93 2261.03 3384.54 2238.24 3367.23C2212.48 3347.65 2202.25 3330.91 2201.7 3305.12C2201.16 3279.61 2208.92 3262.44 2234.86 3244.7C2257.05 3229.53 2277.14 3225.57 2308.53 3221.95C2342.87 3217.98 2367.13 3216.66 2398.11 3228.64C2429.6 3240.82 2442.17 3255.98 2454.06 3279.15C2466.01 3302.43 2458.12 3317.33 2455.78 3341.6C2453.59 3364.32 2450.86 3377.05 2443.44 3399.12" stroke="black" stroke-width="4"/>
<path d="M2519.48 3517.64C2519.48 3552.51 2498.15 3584.13 2463.55 3607.07C2428.94 3630 2381.11 3644.2 2328.25 3644.2C2275.38 3644.2 2227.55 3630 2192.95 3607.07C2158.34 3584.13 2137.01 3552.51 2137.01 3517.64C2137.01 3482.77 2158.34 3451.14 2192.95 3428.21C2227.55 3405.28 2275.38 3391.08 2328.25 3391.08C2381.11 3391.08 2428.94 3405.28 2463.55 3428.21C2498.15 3451.14 2519.48 3482.77 2519.48 3517.64Z" fill="#8E4200" fill-opacity="0.86" stroke="black"/>
<path d="M2323.64 3510.65C2393.56 3478.37 2330.35 3585.81 2276.37 3522.69C2222.39 3459.56 2477.32 3442.32 2419.03 3560.09C2419.03 3560.09 2407.23 3580.95 2391.99 3589.77C2368.3 3603.48 2344.84 3604.71 2313.37 3601.4C2280.06 3597.89 2261.03 3588.5 2238.24 3571.18C2212.48 3551.61 2202.25 3534.87 2201.7 3509.07C2201.16 3483.57 2208.92 3466.39 2234.86 3448.66C2257.05 3433.49 2277.14 3429.53 2308.53 3425.91C2342.87 3421.94 2367.13 3420.62 2398.11 3432.6C2429.6 3444.77 2442.17 3459.94 2454.06 3483.11C2466.01 3506.39 2458.12 3521.29 2455.78 3545.56C2453.59 3568.28 2450.86 3581.01 2443.44 3603.08" stroke="black" stroke-width="4"/>
<path d="M2505.03 3755.85C2505.03 3790.72 2483.78 3822.35 2449.29 3845.28C2414.81 3868.21 2367.14 3882.41 2314.46 3882.41C2261.78 3882.41 2214.11 3868.21 2179.62 3845.28C2145.13 3822.35 2123.88 3790.72 2123.88 3755.85C2123.88 3720.98 2145.13 3689.36 2179.62 3666.42C2214.11 3643.49 2261.78 3629.29 2314.46 3629.29C2367.14 3629.29 2414.81 3643.49 2449.29 3666.42C2483.78 3689.36 2505.03 3720.98 2505.03 3755.85Z" fill="#8E4200" fill-opacity="0.86" stroke="black"/>
<path d="M2308.85 3748.85C2378.77 3716.57 2315.56 3824.01 2261.58 3760.88C2207.6 3697.76 2462.53 3680.52 2404.24 3798.29C2404.24 3798.29 2392.44 3819.15 2377.2 3827.97C2353.51 3841.68 2330.05 3842.91 2298.58 3839.59C2265.27 3836.08 2246.24 3826.7 2223.45 3809.38C2197.69 3789.81 2187.46 3773.07 2186.91 3747.27C2186.37 3721.77 2194.13 3704.59 2220.07 3686.86C2242.26 3671.69 2262.35 3667.73 2293.74 3664.11C2328.08 3660.14 2352.34 3658.82 2383.32 3670.8C2414.81 3682.97 2427.38 3698.14 2439.27 3721.31C2451.22 3744.59 2443.33 3759.49 2440.99 3783.75C2438.8 3806.47 2436.07 3819.21 2428.65 3841.28" stroke="black" stroke-width="4"/>
<path d="M2508.97 3982.67C2508.97 4017.86 2487.72 4049.77 2453.23 4072.91C2418.74 4096.05 2371.08 4110.38 2318.4 4110.38C2265.72 4110.38 2218.05 4096.05 2183.56 4072.91C2149.08 4049.77 2127.82 4017.86 2127.82 3982.67C2127.82 3947.49 2149.08 3915.57 2183.56 3892.43C2218.05 3869.29 2265.72 3854.97 2318.4 3854.97C2371.08 3854.97 2418.74 3869.29 2453.23 3892.43C2487.72 3915.57 2508.97 3947.49 2508.97 3982.67Z" fill="#8E4200" fill-opacity="0.86" stroke="black"/>
<path d="M2312.79 3976.28C2382.71 3944 2319.5 4051.44 2265.52 3988.32C2211.54 3925.19 2466.47 3907.95 2408.18 4025.72C2408.18 4025.72 2396.38 4046.58 2381.14 4055.4C2357.45 4069.11 2333.99 4070.34 2302.52 4067.03C2269.21 4063.52 2250.18 4054.13 2227.39 4036.81C2201.62 4017.24 2191.4 4000.5 2190.85 3974.7C2190.31 3949.2 2198.07 3932.02 2224.01 3914.29C2246.2 3899.12 2266.29 3895.16 2297.68 3891.54C2332.02 3887.57 2356.28 3886.25 2387.26 3898.23C2418.75 3910.4 2431.32 3925.57 2443.21 3948.74C2455.16 3972.02 2447.27 3986.92 2444.93 4011.19C2442.74 4033.91 2440.01 4046.64 2432.59 4068.71" stroke="black" stroke-width="4"/>
<rect x="-2.5" y="-2.5" width="304" height="161" rx="32.5" transform="matrix(0 -1 -1 0 4414 2079)" fill="#C08A64" stroke="#8E4200" stroke-width="5"/>
<rect x="2434.5" y="2111.5" width="465" height="160" rx="32.5" transform="rotate(-90 2434.5 2111.5)" fill="#C08A64" stroke="#8E4200" stroke-width="5"/>
<rect x="2269.5" y="2111.5" width="361" height="160" rx="32.5" transform="rotate(-90 2269.5 2111.5)" fill="#C08A64" stroke="#8E4200" stroke-width="5"/>
<rect x="2930.5" y="2111.5" width="927" height="161" rx="32.5" transform="rotate(-90 2930.5 2111.5)" fill="#C08A64" stroke="#8E4200" stroke-width="5"/>
<rect x="3096.5" y="2106.5" width="1075" height="161" rx="32.5" transform="rotate(-90 3096.5 2106.5)" fill="#C08A64" stroke="#8E4200" stroke-width="5"/>
<rect x="3262.5" y="2106.5" width="1120" height="161" rx="32.5" transform="rotate(-90 3262.5 2106.5)" fill="#C08A64" stroke="#8E4200" stroke-width="5"/>
<rect x="2599.5" y="2106.5" width="583" height="161" rx="32.5" transform="rotate(-90 2599.5 2106.5)" fill="#C08A64" stroke="#8E4200" stroke-width="5"/>
<rect x="2765.5" y="2111.5" width="716" height="160" rx="32.5" transform="rotate(-90 2765.5 2111.5)" fill="#C08A64" stroke="#8E4200" stroke-width="5"/>
<rect x="-2.5" y="-2.5" width="465" height="160" rx="32.5" transform="matrix(0 -1 -1 0 4248 2109)" fill="#C08A64" stroke="#8E4200" stroke-width="5"/>
<rect x="-2.5" y="-2.5" width="927" height="161" rx="32.5" transform="matrix(0 -1 -1 0 3752 2109)" fill="#C08A64" stroke="#8E4200" stroke-width="5"/>
<rect x="-2.5" y="-2.5" width="1038" height="160" rx="32.5" transform="matrix(0 -1 -1 0 3586 2104)" fill="#C08A64" stroke="#8E4200" stroke-width="5"/>
<rect x="-2.5" y="-2.5" width="583" height="160" rx="32.5" transform="matrix(0 -1 -1 0 4083 2104)" fill="#C08A64" stroke="#8E4200" stroke-width="5"/>
<rect x="-2.5" y="-2.5" width="716" height="161" rx="32.5" transform="matrix(0 -1 -1 0 3918 2109)" fill="#C08A64" stroke="#8E4200" stroke-width="5"/>
<rect width="266.391" height="2131.37" transform="matrix(0.804548 0.593888 -0.696828 0.717238 3248.2 704.232)" fill="#F31111"/>
<rect width="266.391" height="2131.37" transform="matrix(-0.804548 0.593888 0.696828 0.717238 3398.8 704.27)" fill="#F31111"/>
<rect x="3234" y="536" width="209" height="462" rx="104.5" fill="#2978E7"/>
<rect width="148.012" height="188.827" rx="35" transform="matrix(1 0 0 -1 2906.7 2851.19)" fill="#2978E7"/>
<rect width="148.012" height="188.827" rx="35" transform="matrix(1 0 0 -1 3631.81 2851.19)" fill="#2978E7"/>
<path d="M2899.49 2735.85C2904.13 2735.89 2907.92 2732.14 2907.92 2727.49L2908.24 1942.2C2908.3 1794.32 3028.85 1674.82 3176.71 1676.05L3521.55 1678.92C3668.57 1680.14 3786.76 1800.3 3785.57 1947.32L3778.86 2773.5C3778.87 2756.71 3765.33 2743.05 3748.53 2742.91L2899.49 2735.85Z" fill="#2978E7"/>
<path d="M3021.67 2675.89C3025.02 2675.91 3027.75 2673.21 3027.75 2669.86L3028.68 2054.55C3028.91 1906.79 3149.4 1787.47 3297.16 1788.7L3396.64 1789.53C3543.66 1790.75 3661.86 1910.91 3660.66 2057.94L3655.38 2706.57C3655.4 2692.51 3644.07 2681.07 3630.01 2680.95L3021.67 2675.89Z" fill="#B9B4B4"/>
<rect width="844.716" height="120.794" transform="matrix(1 0 0 -1 2933.61 2701.24)" fill="#2978E7"/>
<rect x="474.5" y="6894.5" width="5506" height="200" rx="96.5" fill="#8E5F00" fill-opacity="0.96" stroke="black" stroke-width="7"/>
<path d="M762.5 7003.41C762.5 7034.15 746.259 7062.02 719.933 7082.21C693.607 7102.41 657.216 7114.91 617 7114.91C576.784 7114.91 540.393 7102.41 514.067 7082.21C487.741 7062.02 471.5 7034.15 471.5 7003.41C471.5 6972.67 487.741 6944.81 514.067 6924.61C540.393 6904.42 576.784 6891.91 617 6891.91C657.216 6891.91 693.607 6904.42 719.933 6924.61C746.259 6944.81 762.5 6972.67 762.5 7003.41Z" fill="#8E4200" fill-opacity="0.86" stroke="black"/>
<path d="M613.492 6997.69C666.738 6969.49 618.604 7063.34 577.5 7008.2C536.396 6953.05 730.513 6937.99 686.132 7040.88C686.132 7040.88 677.143 7059.1 665.539 7066.8C647.503 7078.78 629.637 7079.86 605.671 7076.96C580.31 7073.89 565.816 7065.69 548.462 7050.57C528.844 7033.46 521.055 7018.84 520.639 6996.31C520.228 6974.02 526.136 6959.02 545.891 6943.53C562.789 6930.27 578.086 6926.82 601.99 6923.65C628.138 6920.19 646.607 6919.03 670.198 6929.5C694.18 6940.14 703.749 6953.38 712.805 6973.62C721.907 6993.96 715.898 7006.98 714.115 7028.18C712.445 7048.03 710.364 7059.15 704.714 7078.43" stroke="black" stroke-width="4"/>
<rect x="482.5" y="5902.55" width="5506" height="200" rx="96.5" fill="#8E5F00" fill-opacity="0.96" stroke="black" stroke-width="7"/>
<rect x="473.5" y="6694.55" width="5515" height="201" rx="96.5" fill="#8E5F00" fill-opacity="0.96" stroke="black" stroke-width="7"/>
<rect x="475.5" y="6496.55" width="5513" height="200" rx="96.5" fill="#8E5F00" fill-opacity="0.96" stroke="black" stroke-width="7"/>
<rect x="483.5" y="6302.55" width="5505" height="202" rx="96.5" fill="#8E5F00" fill-opacity="0.96" stroke="black" stroke-width="7"/>
<rect x="486.5" y="6082.55" width="5502" height="220" rx="96.5" fill="#8E5F00" fill-opacity="0.96" stroke="black" stroke-width="7"/>
<path d="M767.5 6789.55C767.5 6819.87 751.262 6847.36 724.936 6867.29C698.61 6887.21 662.218 6899.55 622 6899.55C581.782 6899.55 545.39 6887.21 519.064 6867.29C492.738 6847.36 476.5 6819.87 476.5 6789.55C476.5 6759.23 492.738 6731.74 519.064 6711.81C545.39 6691.89 581.782 6679.55 622 6679.55C662.218 6679.55 698.61 6691.89 724.936 6711.81C751.262 6731.74 767.5 6759.23 767.5 6789.55Z" fill="#8E4200" fill-opacity="0.86" stroke="black"/>
<path d="M618.819 6784C672.066 6755.8 623.932 6849.66 582.828 6794.51C541.724 6739.37 735.841 6724.3 691.46 6827.19C691.46 6827.19 682.471 6845.42 670.867 6853.12C652.831 6865.1 634.964 6866.17 610.999 6863.28C585.638 6860.21 571.144 6852.01 553.79 6836.88C534.171 6819.78 526.383 6805.16 525.967 6782.62C525.556 6760.34 531.464 6745.34 551.219 6729.84C568.116 6716.59 583.413 6713.14 607.317 6709.97C633.465 6706.5 651.935 6705.35 675.525 6715.82C699.507 6726.45 709.077 6739.7 718.133 6759.94C727.234 6780.28 721.226 6793.3 719.443 6814.49C717.773 6834.34 715.692 6845.47 710.042 6864.75" stroke="black" stroke-width="4"/>
<path d="M770.5 6011.46C770.5 6042.2 754.259 6070.07 727.933 6090.26C701.607 6110.46 665.216 6122.96 625 6122.96C584.784 6122.96 548.393 6110.46 522.067 6090.26C495.741 6070.07 479.5 6042.2 479.5 6011.46C479.5 5980.72 495.741 5952.86 522.067 5932.66C548.393 5912.47 584.784 5899.96 625 5899.96C665.216 5899.96 701.607 5912.47 727.933 5932.66C754.259 5952.86 770.5 5980.72 770.5 6011.46Z" fill="#8E4200" fill-opacity="0.86" stroke="black"/>
<path d="M621.492 6005.74C674.738 5977.53 626.604 6071.39 585.5 6016.25C544.396 5961.1 738.513 5946.04 694.132 6048.93C694.132 6048.93 685.143 6067.15 673.539 6074.85C655.503 6086.83 637.637 6087.9 613.671 6085.01C588.31 6081.94 573.816 6073.74 556.462 6058.62C536.844 6041.51 529.055 6026.89 528.639 6004.36C528.228 5982.07 534.136 5967.07 553.891 5951.58C570.789 5938.32 586.086 5934.87 609.99 5931.7C636.138 5928.24 654.607 5927.08 678.198 5937.55C702.18 5948.18 711.749 5961.43 720.805 5981.67C729.907 6002.01 723.898 6015.03 722.115 6036.23C720.445 6056.07 718.364 6067.2 712.714 6086.48" stroke="black" stroke-width="4"/>
<path d="M770.5 6190.02C770.5 6220.48 754.261 6248.09 727.935 6268.11C701.609 6288.12 665.217 6300.52 625 6300.52C584.783 6300.52 548.391 6288.12 522.065 6268.11C495.739 6248.09 479.5 6220.48 479.5 6190.02C479.5 6159.55 495.739 6131.94 522.065 6111.93C548.391 6091.91 584.783 6079.52 625 6079.52C665.217 6079.52 701.609 6091.91 727.935 6111.93C754.261 6131.94 770.5 6159.55 770.5 6190.02Z" fill="#8E4200" fill-opacity="0.86" stroke="black"/>
<path d="M621.492 6183.92C674.738 6155.71 626.604 6249.57 585.5 6194.43C544.396 6139.28 738.513 6124.22 694.132 6227.1C694.132 6227.1 685.143 6245.33 673.539 6253.03C655.503 6265.01 637.637 6266.08 613.671 6263.19C588.31 6260.12 573.816 6251.92 556.462 6236.79C536.844 6219.69 529.055 6205.07 528.639 6182.54C528.228 6160.25 534.136 6145.25 553.891 6129.76C570.789 6116.5 586.086 6113.05 609.99 6109.88C636.138 6106.41 654.607 6105.26 678.198 6115.73C702.18 6126.36 711.749 6139.61 720.805 6159.85C729.907 6180.19 723.898 6193.21 722.115 6214.4C720.445 6234.25 718.364 6245.38 712.714 6264.66" stroke="black" stroke-width="4"/>
<path d="M759.5 6398.12C759.5 6428.58 743.316 6456.2 717.081 6476.21C690.845 6496.23 654.579 6508.62 614.5 6508.62C574.421 6508.62 538.155 6496.23 511.919 6476.21C485.684 6456.2 469.5 6428.58 469.5 6398.12C469.5 6367.66 485.684 6340.04 511.919 6320.03C538.155 6300.01 574.421 6287.62 614.5 6287.62C654.579 6287.62 690.845 6300.01 717.081 6320.03C743.316 6340.04 759.5 6367.66 759.5 6398.12Z" fill="#8E4200" fill-opacity="0.86" stroke="black"/>
<path d="M610.229 6392C663.476 6363.8 615.342 6457.66 574.238 6402.51C533.134 6347.37 727.251 6332.3 682.87 6435.19C682.87 6435.19 673.88 6453.42 662.277 6461.12C644.241 6473.1 626.374 6474.17 602.409 6471.28C577.048 6468.21 562.554 6460.01 545.2 6444.88C525.581 6427.78 517.793 6413.16 517.377 6390.62C516.966 6368.34 522.874 6353.34 542.629 6337.84C559.526 6324.59 574.823 6321.14 598.727 6317.97C624.875 6314.5 643.344 6313.35 666.935 6323.82C690.917 6334.45 700.487 6347.7 709.543 6367.94C718.644 6388.28 712.636 6401.3 710.853 6422.49C709.183 6442.34 707.102 6453.47 701.452 6472.75" stroke="black" stroke-width="4"/>
<path d="M762.5 6596.27C762.5 6657.73 697.711 6707.77 617.5 6707.77C537.289 6707.77 472.5 6657.73 472.5 6596.27C472.5 6534.8 537.289 6484.77 617.5 6484.77C697.711 6484.77 762.5 6534.8 762.5 6596.27Z" fill="#8E4200" fill-opacity="0.86" stroke="black"/>
<path d="M613.229 6590.69C666.476 6562.49 618.342 6656.34 577.238 6601.2C536.134 6546.05 730.251 6530.99 685.87 6633.88C685.87 6633.88 676.88 6652.1 665.277 6659.8C647.241 6671.78 629.374 6672.86 605.409 6669.96C580.048 6666.89 565.554 6658.7 548.2 6643.57C528.581 6626.46 520.793 6611.84 520.377 6589.31C519.966 6567.02 525.874 6552.02 545.629 6536.53C562.526 6523.28 577.823 6519.82 601.727 6516.65C627.875 6513.19 646.344 6512.03 669.935 6522.5C693.917 6533.14 703.487 6546.38 712.543 6566.62C721.644 6586.96 715.636 6599.98 713.853 6621.18C712.183 6641.03 710.102 6652.15 704.452 6671.43" stroke="black" stroke-width="4"/>
<rect x="490.5" y="4916.5" width="5506" height="200" rx="96.5" fill="#8E5F00" fill-opacity="0.96" stroke="black" stroke-width="7"/>
<rect x="481.5" y="5708.5" width="5515" height="201" rx="96.5" fill="#8E5F00" fill-opacity="0.96" stroke="black" stroke-width="7"/>
<rect x="483.5" y="5510.5" width="5513" height="200" rx="96.5" fill="#8E5F00" fill-opacity="0.96" stroke="black" stroke-width="7"/>
<rect x="491.5" y="5316.5" width="5505" height="202" rx="96.5" fill="#8E5F00" fill-opacity="0.96" stroke="black" stroke-width="7"/>
<rect x="494.5" y="5096.5" width="5502" height="220" rx="96.5" fill="#8E5F00" fill-opacity="0.96" stroke="black" stroke-width="7"/>
<path d="M775.5 5803.5C775.5 5833.82 759.262 5861.31 732.936 5881.24C706.61 5901.16 670.218 5913.5 630 5913.5C589.782 5913.5 553.39 5901.16 527.064 5881.24C500.738 5861.31 484.5 5833.82 484.5 5803.5C484.5 5773.18 500.738 5745.69 527.064 5725.76C553.39 5705.84 589.782 5693.5 630 5693.5C670.218 5693.5 706.61 5705.84 732.936 5725.76C759.262 5745.69 775.5 5773.18 775.5 5803.5Z" fill="#8E4200" fill-opacity="0.86" stroke="black"/>
<path d="M626.82 5797.95C680.066 5769.75 631.932 5863.61 590.828 5808.47C549.724 5753.32 743.841 5738.26 699.461 5841.14C699.461 5841.14 690.471 5859.37 678.867 5867.07C660.832 5879.05 642.965 5880.12 619 5877.23C593.639 5874.16 579.145 5865.96 561.79 5850.83C542.172 5833.73 534.383 5819.11 533.967 5796.57C533.556 5774.29 539.464 5759.29 559.22 5743.8C576.117 5730.54 591.414 5727.09 615.318 5723.92C641.466 5720.45 659.935 5719.3 683.526 5729.77C707.508 5740.4 717.077 5753.65 726.133 5773.89C735.235 5794.23 729.226 5807.25 727.443 5828.44C725.774 5848.29 723.692 5859.42 718.042 5878.7" stroke="black" stroke-width="4"/>
<path d="M778.5 5025.41C778.5 5056.15 762.259 5084.02 735.933 5104.21C709.607 5124.41 673.216 5136.91 633 5136.91C592.784 5136.91 556.393 5124.41 530.067 5104.21C503.741 5084.02 487.5 5056.15 487.5 5025.41C487.5 4994.67 503.741 4966.81 530.067 4946.61C556.393 4926.42 592.784 4913.91 633 4913.91C673.216 4913.91 709.607 4926.42 735.933 4946.61C762.259 4966.81 778.5 4994.67 778.5 5025.41Z" fill="#8E4200" fill-opacity="0.86" stroke="black"/>
<path d="M629.492 5019.69C682.738 4991.49 634.604 5085.34 593.5 5030.2C552.396 4975.05 746.513 4959.99 702.132 5062.88C702.132 5062.88 693.143 5081.1 681.539 5088.8C663.503 5100.78 645.637 5101.86 621.671 5098.96C596.31 5095.89 581.816 5087.69 564.462 5072.57C544.844 5055.46 537.055 5040.84 536.639 5018.31C536.228 4996.02 542.136 4981.02 561.891 4965.53C578.789 4952.27 594.086 4948.82 617.99 4945.65C644.138 4942.19 662.607 4941.03 686.198 4951.5C710.18 4962.14 719.749 4975.38 728.805 4995.62C737.907 5015.96 731.898 5028.98 730.115 5050.18C728.445 5070.03 726.364 5081.15 720.714 5100.43" stroke="black" stroke-width="4"/>
<path d="M778.5 5203.97C778.5 5234.43 762.261 5262.04 735.935 5282.06C709.609 5302.07 673.217 5314.47 633 5314.47C592.783 5314.47 556.391 5302.07 530.065 5282.06C503.739 5262.04 487.5 5234.43 487.5 5203.97C487.5 5173.51 503.739 5145.89 530.065 5125.88C556.391 5105.86 592.783 5093.47 633 5093.47C673.217 5093.47 709.609 5105.86 735.935 5125.88C762.261 5145.89 778.5 5173.51 778.5 5203.97Z" fill="#8E4200" fill-opacity="0.86" stroke="black"/>
<path d="M629.492 5197.87C682.738 5169.66 634.604 5263.52 593.5 5208.38C552.396 5153.23 746.513 5138.17 702.132 5241.06C702.132 5241.06 693.143 5259.28 681.539 5266.98C663.503 5278.96 645.637 5280.03 621.671 5277.14C596.31 5274.07 581.816 5265.87 564.462 5250.74C544.844 5233.64 537.055 5219.02 536.639 5196.49C536.228 5174.2 542.136 5159.2 561.891 5143.71C578.789 5130.45 594.086 5127 617.99 5123.83C644.138 5120.36 662.607 5119.21 686.198 5129.68C710.18 5140.31 719.749 5153.56 728.805 5173.8C737.907 5194.14 731.898 5207.16 730.115 5228.36C728.445 5248.2 726.364 5259.33 720.714 5278.61" stroke="black" stroke-width="4"/>
<path d="M767.5 5412.07C767.5 5442.53 751.316 5470.15 725.081 5490.16C698.845 5510.18 662.579 5522.57 622.5 5522.57C582.421 5522.57 546.155 5510.18 519.919 5490.16C493.684 5470.15 477.5 5442.53 477.5 5412.07C477.5 5381.61 493.684 5353.99 519.919 5333.98C546.155 5313.96 582.421 5301.57 622.5 5301.57C662.579 5301.57 698.845 5313.96 725.081 5333.98C751.316 5353.99 767.5 5381.61 767.5 5412.07Z" fill="#8E4200" fill-opacity="0.86" stroke="black"/>
<path d="M618.229 5405.95C671.475 5377.75 623.342 5471.61 582.238 5416.47C541.134 5361.32 735.25 5346.26 690.87 5449.14C690.87 5449.14 681.88 5467.37 670.276 5475.07C652.241 5487.05 634.374 5488.12 610.409 5485.23C585.048 5482.16 570.554 5473.96 553.199 5458.83C533.581 5441.73 525.792 5427.11 525.377 5404.57C524.965 5382.29 530.873 5367.29 550.629 5351.8C567.526 5338.54 582.823 5335.09 606.727 5331.92C632.875 5328.45 651.344 5327.3 674.935 5337.77C698.917 5348.4 708.487 5361.65 717.542 5381.89C726.644 5402.23 720.636 5415.25 718.852 5436.44C717.183 5456.29 715.102 5467.42 709.451 5486.7" stroke="black" stroke-width="4"/>
<path d="M770.5 5610.22C770.5 5671.68 705.711 5721.72 625.5 5721.72C545.289 5721.72 480.5 5671.68 480.5 5610.22C480.5 5548.75 545.289 5498.72 625.5 5498.72C705.711 5498.72 770.5 5548.75 770.5 5610.22Z" fill="#8E4200" fill-opacity="0.86" stroke="black"/>
<path d="M621.229 5604.64C674.475 5576.44 626.342 5670.3 585.238 5615.15C544.134 5560 738.25 5544.94 693.87 5647.83C693.87 5647.83 684.88 5666.05 673.276 5673.75C655.241 5685.73 637.374 5686.81 613.409 5683.91C588.048 5680.84 573.554 5672.65 556.199 5657.52C536.581 5640.42 528.792 5625.79 528.377 5603.26C527.965 5580.97 533.873 5565.97 553.629 5550.48C570.526 5537.23 585.823 5533.77 609.727 5530.6C635.875 5527.14 654.344 5525.98 677.935 5536.45C701.917 5547.09 711.487 5560.33 720.542 5580.57C729.644 5600.92 723.636 5613.93 721.852 5635.13C720.183 5654.98 718.102 5666.1 712.451 5685.38" stroke="black" stroke-width="4"/>
<rect x="498.5" y="3924.55" width="5506" height="200" rx="96.5" fill="#8E5F00" fill-opacity="0.96" stroke="black" stroke-width="7"/>
<rect x="489.5" y="4716.55" width="5515" height="201" rx="96.5" fill="#8E5F00" fill-opacity="0.96" stroke="black" stroke-width="7"/>
<rect x="491.5" y="4518.55" width="5513" height="200" rx="96.5" fill="#8E5F00" fill-opacity="0.96" stroke="black" stroke-width="7"/>
<rect x="499.5" y="4324.55" width="5505" height="202" rx="96.5" fill="#8E5F00" fill-opacity="0.96" stroke="black" stroke-width="7"/>
<rect x="502.5" y="4104.55" width="5502" height="220" rx="96.5" fill="#8E5F00" fill-opacity="0.96" stroke="black" stroke-width="7"/>
<path d="M783.5 4811.55C783.5 4841.87 767.262 4869.36 740.936 4889.29C714.61 4909.21 678.218 4921.55 638 4921.55C597.782 4921.55 561.39 4909.21 535.064 4889.29C508.738 4869.36 492.5 4841.87 492.5 4811.55C492.5 4781.23 508.738 4753.74 535.064 4733.81C561.39 4713.89 597.782 4701.55 638 4701.55C678.218 4701.55 714.61 4713.89 740.936 4733.81C767.262 4753.74 783.5 4781.23 783.5 4811.55Z" fill="#8E4200" fill-opacity="0.86" stroke="black"/>
<path d="M634.82 4806C688.066 4777.8 639.932 4871.66 598.828 4816.51C557.724 4761.37 751.841 4746.3 707.461 4849.19C707.461 4849.19 698.471 4867.42 686.867 4875.12C668.832 4887.1 650.965 4888.17 627 4885.28C601.639 4882.21 587.145 4874.01 569.79 4858.88C550.172 4841.78 542.383 4827.16 541.967 4804.62C541.556 4782.34 547.464 4767.34 567.22 4751.84C584.117 4738.59 599.414 4735.14 623.318 4731.97C649.466 4728.5 667.935 4727.35 691.526 4737.82C715.508 4748.45 725.077 4761.7 734.133 4781.94C743.235 4802.28 737.226 4815.3 735.443 4836.49C733.774 4856.34 731.692 4867.47 726.042 4886.75" stroke="black" stroke-width="4"/>
<path d="M786.5 4033.46C786.5 4064.2 770.259 4092.07 743.933 4112.26C717.607 4132.46 681.216 4144.96 641 4144.96C600.784 4144.96 564.393 4132.46 538.067 4112.26C511.741 4092.07 495.5 4064.2 495.5 4033.46C495.5 4002.72 511.741 3974.86 538.067 3954.66C564.393 3934.47 600.784 3921.96 641 3921.96C681.216 3921.96 717.607 3934.47 743.933 3954.66C770.259 3974.86 786.5 4002.72 786.5 4033.46Z" fill="#8E4200" fill-opacity="0.86" stroke="black"/>
<path d="M637.492 4027.74C690.738 3999.53 642.604 4093.39 601.5 4038.25C560.396 3983.1 754.513 3968.04 710.132 4070.93C710.132 4070.93 701.143 4089.15 689.539 4096.85C671.503 4108.83 653.637 4109.9 629.671 4107.01C604.31 4103.94 589.816 4095.74 572.462 4080.62C552.844 4063.51 545.055 4048.89 544.639 4026.36C544.228 4004.07 550.136 3989.07 569.891 3973.58C586.789 3960.32 602.086 3956.87 625.99 3953.7C652.138 3950.24 670.607 3949.08 694.198 3959.55C718.18 3970.18 727.749 3983.43 736.805 4003.67C745.907 4024.01 739.898 4037.03 738.115 4058.23C736.445 4078.07 734.364 4089.2 728.714 4108.48" stroke="black" stroke-width="4"/>
<path d="M786.5 4212.02C786.5 4242.48 770.261 4270.09 743.935 4290.11C717.609 4310.12 681.217 4322.52 641 4322.52C600.783 4322.52 564.391 4310.12 538.065 4290.11C511.739 4270.09 495.5 4242.48 495.5 4212.02C495.5 4181.55 511.739 4153.94 538.065 4133.93C564.391 4113.91 600.783 4101.52 641 4101.52C681.217 4101.52 717.609 4113.91 743.935 4133.93C770.261 4153.94 786.5 4181.55 786.5 4212.02Z" fill="#8E4200" fill-opacity="0.86" stroke="black"/>
<path d="M637.492 4205.92C690.738 4177.71 642.604 4271.57 601.5 4216.43C560.396 4161.28 754.513 4146.22 710.132 4249.1C710.132 4249.1 701.143 4267.33 689.539 4275.03C671.503 4287.01 653.637 4288.08 629.671 4285.19C604.31 4282.12 589.816 4273.92 572.462 4258.79C552.844 4241.69 545.055 4227.07 544.639 4204.54C544.228 4182.25 550.136 4167.25 569.891 4151.76C586.789 4138.5 602.086 4135.05 625.99 4131.88C652.138 4128.41 670.607 4127.26 694.198 4137.73C718.18 4148.36 727.749 4161.61 736.805 4181.85C745.907 4202.19 739.898 4215.21 738.115 4236.4C736.445 4256.25 734.364 4267.38 728.714 4286.66" stroke="black" stroke-width="4"/>
<path d="M775.5 4420.12C775.5 4450.58 759.316 4478.2 733.081 4498.21C706.845 4518.23 670.579 4530.62 630.5 4530.62C590.421 4530.62 554.155 4518.23 527.919 4498.21C501.684 4478.2 485.5 4450.58 485.5 4420.12C485.5 4389.66 501.684 4362.04 527.919 4342.03C554.155 4322.01 590.421 4309.62 630.5 4309.62C670.579 4309.62 706.845 4322.01 733.081 4342.03C759.316 4362.04 775.5 4389.66 775.5 4420.12Z" fill="#8E4200" fill-opacity="0.86" stroke="black"/>
<path d="M626.229 4414C679.475 4385.8 631.342 4479.66 590.238 4424.51C549.134 4369.37 743.25 4354.3 698.87 4457.19C698.87 4457.19 689.88 4475.42 678.276 4483.12C660.241 4495.1 642.374 4496.17 618.409 4493.28C593.048 4490.21 578.554 4482.01 561.199 4466.88C541.581 4449.78 533.792 4435.16 533.377 4412.62C532.965 4390.34 538.873 4375.34 558.629 4359.84C575.526 4346.59 590.823 4343.14 614.727 4339.97C640.875 4336.5 659.344 4335.35 682.935 4345.82C706.917 4356.45 716.487 4369.7 725.542 4389.94C734.644 4410.28 728.636 4423.3 726.852 4444.49C725.183 4464.34 723.102 4475.47 717.451 4494.75" stroke="black" stroke-width="4"/>
<path d="M778.5 4618.27C778.5 4679.73 713.711 4729.77 633.5 4729.77C553.289 4729.77 488.5 4679.73 488.5 4618.27C488.5 4556.8 553.289 4506.77 633.5 4506.77C713.711 4506.77 778.5 4556.8 778.5 4618.27Z" fill="#8E4200" fill-opacity="0.86" stroke="black"/>
<path d="M629.229 4612.69C682.475 4584.49 634.342 4678.34 593.238 4623.2C552.134 4568.05 746.25 4552.99 701.87 4655.88C701.87 4655.88 692.88 4674.1 681.276 4681.8C663.241 4693.78 645.374 4694.86 621.409 4691.96C596.048 4688.89 581.554 4680.7 564.199 4665.57C544.581 4648.46 536.792 4633.84 536.377 4611.31C535.965 4589.02 541.873 4574.02 561.629 4558.53C578.526 4545.28 593.823 4541.82 617.727 4538.65C643.875 4535.19 662.344 4534.03 685.935 4544.5C709.917 4555.14 719.487 4568.38 728.542 4588.62C737.644 4608.96 731.636 4621.98 729.852 4643.18C728.183 4663.03 726.102 4674.15 720.451 4693.43" stroke="black" stroke-width="4"/>
<rect x="-2.5" y="-2.5" width="266" height="150" rx="32.5" transform="matrix(0 -1 -1 0 2467 3918.46)" fill="#C08A64" stroke="#8E4200" stroke-width="5"/>
<rect x="624.5" y="3946.96" width="407" height="149" rx="32.5" transform="rotate(-90 624.5 3946.96)" fill="#C08A64" stroke="#8E4200" stroke-width="5"/>
<rect x="471.5" y="3946.96" width="316" height="148" rx="32.5" transform="rotate(-90 471.5 3946.96)" fill="#C08A64" stroke="#8E4200" stroke-width="5"/>
<rect x="1086.5" y="3946.96" width="812" height="149" rx="32.5" transform="rotate(-90 1086.5 3946.96)" fill="#C08A64" stroke="#8E4200" stroke-width="5"/>
<rect x="1240.5" y="3941.96" width="941" height="150" rx="32.5" transform="rotate(-90 1240.5 3941.96)" fill="#C08A64" stroke="#8E4200" stroke-width="5"/>
<rect x="1395.5" y="3941.96" width="981" height="150" rx="32.5" transform="rotate(-90 1395.5 3941.96)" fill="#C08A64" stroke="#8E4200" stroke-width="5"/>
<rect x="778.5" y="3941.96" width="510" height="150" rx="32.5" transform="rotate(-90 778.5 3941.96)" fill="#C08A64" stroke="#8E4200" stroke-width="5"/>
<rect x="933.5" y="3946.96" width="627" height="148" rx="32.5" transform="rotate(-90 933.5 3946.96)" fill="#C08A64" stroke="#8E4200" stroke-width="5"/>
<rect x="-2.5" y="-2.5" width="407" height="149" rx="32.5" transform="matrix(0 -1 -1 0 2312 3944.46)" fill="#C08A64" stroke="#8E4200" stroke-width="5"/>
<rect x="-2.5" y="-2.5" width="812" height="149" rx="32.5" transform="matrix(0 -1 -1 0 1850 3944.46)" fill="#C08A64" stroke="#8E4200" stroke-width="5"/>
<rect x="-2.5" y="-2.5" width="909" height="148" rx="32.5" transform="matrix(0 -1 -1 0 1696 3939.46)" fill="#C08A64" stroke="#8E4200" stroke-width="5"/>
<rect x="-2.5" y="-2.5" width="510" height="148" rx="32.5" transform="matrix(0 -1 -1 0 2158 3939.46)" fill="#C08A64" stroke="#8E4200" stroke-width="5"/>
<rect x="-2.5" y="-2.5" width="627" height="150" rx="32.5" transform="matrix(0 -1 -1 0 2005 3944.46)" fill="#C08A64" stroke="#8E4200" stroke-width="5"/>
<rect width="242.938" height="2168.22" transform="matrix(0.820878 0.571103 -0.717752 0.696299 1556.25 2544.02)" fill="#AC11F3"/>
<rect width="242.938" height="2174.04" transform="matrix(-0.820878 0.571103 0.717752 0.696299 1343.58 2540)" fill="#AC11F3"/>
<rect width="137.721" height="165.597" rx="35" transform="matrix(1 0 0 -1 1003.02 4638.46)" fill="#F31111"/>
<rect width="137.721" height="165.597" rx="35" transform="matrix(1 0 0 -1 1677.72 4638.46)" fill="#F31111"/>
<path d="M996.319 4537.31C1000.64 4537.35 1004.16 4533.85 1004.16 4529.53L1004.45 3874.44C1004.51 3726.52 1125.14 3606.89 1273.06 3608.05L1556.62 3610.27C1703.64 3611.42 1821.78 3731.52 1820.51 3878.54L1814.55 4570.33C1814.55 4555.6 1802.68 4543.63 1787.95 4543.52L996.319 4537.31Z" fill="#F31111"/>
<path d="M1110.01 4484.73C1113.12 4484.75 1115.66 4482.23 1115.67 4479.12L1116.48 3972.92C1116.71 3825.12 1237.29 3705.68 1385.09 3706.83L1440.39 3707.27C1587.42 3708.42 1705.56 3828.53 1704.28 3975.55L1699.65 4511.63C1699.67 4499.3 1689.74 4489.27 1677.4 4489.18L1110.01 4484.73Z" fill="#B9B4B4"/>
<rect width="785.984" height="105.933" transform="matrix(1 0 0 -1 1028.06 4506.96)" fill="#F31111"/>
<ellipse cx="1455.5" cy="2799.46" rx="74.5" ry="69" fill="#F31111"/>
<rect x="-2.5" y="-2.5" width="246" height="150" rx="32.5" transform="matrix(0 -1 -1 0 6126 3973)" fill="#C08A64" stroke="#8E4200" stroke-width="5"/>
<rect x="4274.5" y="3999.5" width="376" height="149" rx="32.5" transform="rotate(-90 4274.5 3999.5)" fill="#C08A64" stroke="#8E4200" stroke-width="5"/>
<rect x="4119.5" y="3999.5" width="292" height="150" rx="32.5" transform="rotate(-90 4119.5 3999.5)" fill="#C08A64" stroke="#8E4200" stroke-width="5"/>
<rect x="4738.5" y="3999.5" width="750" height="150" rx="32.5" transform="rotate(-90 4738.5 3999.5)" fill="#C08A64" stroke="#8E4200" stroke-width="5"/>
<rect x="4893.5" y="3994.5" width="869" height="151" rx="32.5" transform="rotate(-90 4893.5 3994.5)" fill="#C08A64" stroke="#8E4200" stroke-width="5"/>
<rect x="5049.5" y="3994.5" width="906" height="150" rx="32.5" transform="rotate(-90 5049.5 3994.5)" fill="#C08A64" stroke="#8E4200" stroke-width="5"/>
<rect x="4428.5" y="3994.5" width="470" height="151" rx="32.5" transform="rotate(-90 4428.5 3994.5)" fill="#C08A64" stroke="#8E4200" stroke-width="5"/>
<rect x="4584.5" y="3999.5" width="579" height="149" rx="32.5" transform="rotate(-90 4584.5 3999.5)" fill="#C08A64" stroke="#8E4200" stroke-width="5"/>
<rect x="-2.5" y="-2.5" width="376" height="150" rx="32.5" transform="matrix(0 -1 -1 0 5971 3997)" fill="#C08A64" stroke="#8E4200" stroke-width="5"/>
<rect x="-2.5" y="-2.5" width="750" height="149" rx="32.5" transform="matrix(0 -1 -1 0 5506 3997)" fill="#C08A64" stroke="#8E4200" stroke-width="5"/>
<rect x="-2.5" y="-2.5" width="839" height="150" rx="32.5" transform="matrix(0 -1 -1 0 5352 3992)" fill="#C08A64" stroke="#8E4200" stroke-width="5"/>
<rect x="-2.5" y="-2.5" width="470" height="149" rx="32.5" transform="matrix(0 -1 -1 0 5816 3992)" fill="#C08A64" stroke="#8E4200" stroke-width="5"/>
<rect x="-2.5" y="-2.5" width="579" height="151" rx="32.5" transform="matrix(0 -1 -1 0 5662 3997)" fill="#C08A64" stroke="#8E4200" stroke-width="5"/>
<rect width="237.964" height="2095.87" transform="matrix(0.842653 0.538456 -0.746619 0.665252 5210.82 2703.71)" fill="#209C49"/>
<rect width="237.964" height="2101.5" transform="matrix(-0.842653 0.538456 0.746619 0.665252 4996.98 2700)" fill="#209C49"/>
<rect width="138.48" height="152.934" rx="35" transform="matrix(1 0 0 -1 4654.55 4638)" fill="#AC11F3"/>
<rect width="138.48" height="152.934" rx="35" transform="matrix(1 0 0 -1 5332.96 4638)" fill="#AC11F3"/>
<path d="M4647.81 4544.58C4652.15 4544.61 4655.69 4541.1 4655.7 4536.76L4655.97 3953.13C4656.04 3805.13 4776.8 3685.3 4924.8 3686.37L5212.67 3688.44C5359.69 3689.5 5477.73 3809.51 5476.35 3956.53L5470.55 4575.08C5470.55 4561.47 5459.59 4550.43 5445.98 4550.33L4647.81 4544.58Z" fill="#AC11F3"/>
<path d="M4762.12 4496.02C4765.25 4496.04 4767.81 4493.51 4767.81 4490.38L4768.59 4044.02C4768.85 3896.16 4889.55 3776.54 5037.41 3777.6L5095.8 3778.02C5242.82 3779.08 5360.87 3899.1 5359.48 4046.12L5355.02 4520.87C5355.04 4509.48 5345.86 4500.22 5334.47 4500.14L4762.12 4496.02Z" fill="#B9B4B4"/>
<rect width="790.314" height="97.8327" transform="matrix(1 0 0 -1 4679.73 4516.55)" fill="#AC11F3"/>
<ellipse cx="5109.5" cy="2939.5" rx="75.5" ry="63.5" fill="#AC11F3"/>
<rect x="1872.32" y="5597.59" width="2892.42" height="223.189" rx="96.5" fill="#8E5F00" fill-opacity="0.96" stroke="black" stroke-width="7"/>
<rect x="1857.99" y="6477.86" width="2890.83" height="224.301" rx="96.5" fill="#8E5F00" fill-opacity="0.96" stroke="black" stroke-width="7"/>
<rect x="1861.17" y="6257.92" width="2887.64" height="223.189" rx="96.5" fill="#8E5F00" fill-opacity="0.96" stroke="black" stroke-width="7"/>
<rect x="1873.91" y="6042.02" width="2890.83" height="225.413" rx="96.5" fill="#8E5F00" fill-opacity="0.96" stroke="black" stroke-width="7"/>
<rect x="1878.69" y="5797.54" width="2890.83" height="245.429" rx="96.5" fill="#8E5F00" fill-opacity="0.96" stroke="black" stroke-width="7"/>
<path d="M2328.47 6583.89C2328.47 6617.54 2302.65 6648.13 2260.65 6670.34C2218.67 6692.53 2160.64 6706.27 2096.51 6706.27C2032.38 6706.27 1974.35 6692.53 1932.36 6670.34C1890.36 6648.13 1864.54 6617.54 1864.54 6583.89C1864.54 6550.23 1890.36 6519.65 1932.36 6497.44C1974.35 6475.25 2032.38 6461.51 2096.51 6461.51C2160.64 6461.51 2218.67 6475.25 2260.65 6497.44C2302.65 6519.65 2328.47 6550.23 2328.47 6583.89Z" fill="#8E4200" fill-opacity="0.86" stroke="black"/>
<path d="M2091.44 6577.72C2176.22 6546.36 2099.58 6650.74 2034.14 6589.41C1968.69 6528.09 2277.77 6511.34 2207.1 6625.75C2207.1 6625.75 2192.79 6646.01 2174.31 6654.58C2145.6 6667.9 2117.15 6669.1 2078.99 6665.88C2038.61 6662.47 2015.53 6653.35 1987.9 6636.53C1956.66 6617.51 1944.26 6601.25 1943.6 6576.19C1942.95 6551.41 1952.35 6534.73 1983.81 6517.5C2010.71 6502.76 2035.07 6498.92 2073.13 6495.39C2114.76 6491.54 2144.17 6490.26 2181.73 6501.9C2219.92 6513.72 2235.15 6528.46 2249.57 6550.96C2264.06 6573.58 2254.5 6588.06 2251.66 6611.63C2249 6633.7 2245.68 6646.07 2236.69 6667.51" stroke="black" stroke-width="4"/>
<path d="M4751.82 5701.4C4751.82 5735.06 4726.27 5765.65 4684.7 5787.85C4643.15 5810.04 4585.71 5823.78 4522.24 5823.78C4458.78 5823.78 4401.34 5810.04 4359.79 5787.85C4318.22 5765.65 4292.67 5735.06 4292.67 5701.4C4292.67 5667.75 4318.22 5637.16 4359.79 5614.96C4401.34 5592.77 4458.78 5579.03 4522.24 5579.03C4585.71 5579.03 4643.15 5592.77 4684.7 5614.96C4726.27 5637.16 4751.82 5667.75 4751.82 5701.4Z" fill="#8E4200" fill-opacity="0.86" stroke="black"/>
<path d="M4516.23 5695.89C4601.01 5664.53 4524.37 5768.9 4458.92 5707.58C4393.48 5646.25 4702.55 5629.5 4631.89 5743.92C4631.89 5743.92 4617.58 5764.18 4599.1 5772.75C4570.38 5786.07 4541.94 5787.26 4503.78 5784.04C4463.4 5780.63 4440.32 5771.52 4412.69 5754.69C4381.45 5735.68 4369.05 5719.42 4368.39 5694.36C4367.73 5669.58 4377.14 5652.89 4408.6 5635.66C4435.5 5620.93 4459.86 5617.08 4497.92 5613.56C4539.55 5609.71 4568.96 5608.43 4606.52 5620.06C4644.7 5631.89 4659.94 5646.62 4674.36 5669.13C4688.85 5691.75 4679.28 5706.23 4676.44 5729.8C4673.79 5751.87 4670.47 5764.24 4661.48 5785.68" stroke="black" stroke-width="4"/>
<path d="M4751.82 5911.08C4751.82 5944.74 4726.27 5975.33 4684.7 5997.53C4643.15 6019.72 4585.71 6033.46 4522.24 6033.46C4458.78 6033.46 4401.34 6019.72 4359.79 5997.53C4318.22 5975.33 4292.67 5944.74 4292.67 5911.08C4292.67 5877.42 4318.22 5846.84 4359.79 5824.63C4401.34 5802.44 4458.78 5788.7 4522.24 5788.7C4585.71 5788.7 4643.15 5802.44 4684.7 5824.63C4726.27 5846.84 4751.82 5877.42 4751.82 5911.08Z" fill="#8E4200" fill-opacity="0.86" stroke="black"/>
<path d="M4516.23 5904.95C4601.01 5873.59 4524.37 5977.96 4458.92 5916.64C4393.48 5855.31 4702.55 5838.56 4631.89 5952.98C4631.89 5952.98 4617.58 5973.24 4599.1 5981.81C4570.38 5995.13 4541.94 5996.32 4503.78 5993.1C4463.4 5989.69 4440.32 5980.58 4412.69 5963.75C4381.45 5944.73 4369.05 5928.48 4368.39 5903.42C4367.73 5878.64 4377.14 5861.95 4408.6 5844.72C4435.5 5829.99 4459.86 5826.14 4497.92 5822.62C4539.55 5818.77 4568.96 5817.49 4606.52 5829.12C4644.7 5840.95 4659.94 5855.68 4674.36 5878.19C4688.85 5900.81 4679.28 5915.28 4676.44 5938.85C4673.79 5960.93 4670.47 5973.3 4661.48 5994.74" stroke="black" stroke-width="4"/>
<path d="M4762.96 6153.06C4762.96 6186.87 4737.15 6217.59 4695.14 6239.9C4653.16 6262.19 4595.13 6275.99 4531 6275.99C4466.87 6275.99 4408.84 6262.19 4366.86 6239.9C4324.86 6217.59 4299.04 6186.87 4299.04 6153.06C4299.04 6119.25 4324.86 6088.52 4366.86 6066.22C4408.84 6043.93 4466.87 6030.12 4531 6030.12C4595.13 6030.12 4653.16 6043.93 4695.14 6066.22C4737.15 6088.52 4762.96 6119.25 4762.96 6153.06Z" fill="#8E4200" fill-opacity="0.86" stroke="black"/>
<path d="M4524.61 6147.27C4609.39 6115.91 4532.75 6220.28 4467.3 6158.96C4401.86 6097.64 4710.93 6080.88 4640.27 6195.3C4640.27 6195.3 4625.95 6215.56 4607.48 6224.13C4578.76 6237.45 4550.31 6238.64 4512.16 6235.42C4471.78 6232.01 4448.7 6222.9 4421.07 6206.07C4389.83 6187.06 4377.43 6170.8 4376.77 6145.74C4376.11 6120.96 4385.52 6104.28 4416.97 6087.05C4443.88 6072.31 4468.23 6068.47 4506.29 6064.94C4547.93 6061.09 4577.33 6059.81 4614.9 6071.44C4653.08 6083.27 4668.32 6098 4682.74 6120.51C4697.23 6143.13 4687.66 6157.61 4684.82 6181.18C4682.16 6203.25 4678.85 6215.62 4669.85 6237.06" stroke="black" stroke-width="4"/>
<path d="M4751.82 6375.07C4751.82 6409.04 4726.26 6439.9 4684.69 6462.31C4643.15 6484.7 4585.71 6498.56 4522.24 6498.56C4458.78 6498.56 4401.34 6484.7 4359.79 6462.31C4318.22 6439.9 4292.67 6409.04 4292.67 6375.07C4292.67 6341.1 4318.22 6310.24 4359.79 6287.84C4401.34 6265.45 4458.78 6251.58 4522.24 6251.58C4585.71 6251.58 4643.15 6265.45 4684.69 6287.84C4726.26 6310.24 4751.82 6341.1 4751.82 6375.07Z" fill="#8E4200" fill-opacity="0.86" stroke="black"/>
<path d="M4506.36 6368.21C4591.14 6336.85 4514.5 6441.22 4449.06 6379.9C4383.61 6318.58 4692.69 6301.82 4622.02 6416.24C4622.02 6416.24 4607.71 6436.5 4589.23 6445.07C4560.52 6458.39 4532.07 6459.58 4493.91 6456.36C4453.53 6452.95 4430.45 6443.84 4402.82 6427.01C4371.59 6408 4359.18 6391.74 4358.52 6366.68C4357.87 6341.9 4367.27 6325.22 4398.73 6307.99C4425.63 6293.25 4449.99 6289.41 4488.05 6285.88C4529.68 6282.03 4559.09 6280.75 4596.65 6292.38C4634.84 6304.21 4650.07 6318.94 4664.49 6341.45C4678.98 6364.07 4669.42 6378.55 4666.58 6402.12C4663.92 6424.19 4660.6 6436.56 4651.61 6458" stroke="black" stroke-width="4"/>
<path d="M4731.12 6589.45C4731.12 6623.42 4705.57 6654.28 4664 6676.68C4622.45 6699.08 4565.01 6712.94 4501.55 6712.94C4438.08 6712.94 4380.64 6699.08 4339.1 6676.68C4297.53 6654.28 4271.97 6623.42 4271.97 6589.45C4271.97 6555.48 4297.53 6524.62 4339.1 6502.22C4380.64 6479.82 4438.08 6465.96 4501.55 6465.96C4565.01 6465.96 4622.45 6479.82 4664 6502.22C4705.57 6524.62 4731.12 6555.48 4731.12 6589.45Z" fill="#8E4200" fill-opacity="0.86" stroke="black"/>
<path d="M4495.53 6583.18C4580.31 6551.82 4503.67 6656.2 4438.22 6594.87C4372.78 6533.55 4681.85 6516.8 4611.19 6631.21C4611.19 6631.21 4596.88 6651.47 4578.4 6660.04C4549.68 6673.36 4521.24 6674.56 4483.08 6671.34C4442.7 6667.93 4419.62 6658.81 4391.99 6641.99C4360.75 6622.97 4348.35 6606.71 4347.69 6581.65C4347.04 6556.87 4356.44 6540.19 4387.9 6522.96C4414.8 6508.22 4439.16 6504.38 4477.22 6500.86C4518.85 6497 4548.26 6495.72 4585.82 6507.36C4624 6519.18 4639.24 6533.92 4653.66 6556.42C4668.15 6579.04 4658.58 6593.52 4655.74 6617.09C4653.09 6639.16 4649.77 6651.53 4640.78 6672.97" stroke="black" stroke-width="4"/>
<path d="M2333.25 5718.64C2333.25 5752.76 2307.43 5783.76 2265.42 5806.27C2223.44 5828.76 2165.41 5842.69 2101.28 5842.69C2037.16 5842.69 1979.13 5828.76 1937.14 5806.27C1895.14 5783.76 1869.32 5752.76 1869.32 5718.64C1869.32 5684.52 1895.14 5653.52 1937.14 5631.01C1979.13 5608.52 2037.16 5594.59 2101.28 5594.59C2165.41 5594.59 2223.44 5608.52 2265.42 5631.01C2307.43 5653.52 2333.25 5684.52 2333.25 5718.64Z" fill="#8E4200" fill-opacity="0.86" stroke="black"/>
<path d="M2095.7 5712.27C2180.48 5680.91 2103.84 5785.29 2038.39 5723.96C1972.95 5662.64 2282.02 5645.89 2211.36 5760.3C2211.36 5760.3 2197.04 5780.56 2178.57 5789.13C2149.85 5802.45 2121.4 5803.65 2083.25 5800.42C2042.87 5797.02 2019.79 5787.9 1992.16 5771.08C1960.92 5752.06 1948.52 5735.8 1947.86 5710.74C1947.2 5685.96 1956.61 5669.28 1988.06 5652.05C2014.97 5637.31 2039.32 5633.47 2077.38 5629.94C2119.02 5626.09 2148.42 5624.81 2185.99 5636.45C2224.17 5648.27 2239.41 5663 2253.83 5685.51C2268.32 5708.13 2258.75 5722.61 2255.91 5746.18C2253.25 5768.25 2249.94 5780.62 2240.94 5802.06" stroke="black" stroke-width="4"/>
<path d="M2333.25 5917.2C2333.25 5951.01 2307.43 5981.73 2265.43 6004.04C2223.44 6026.33 2165.41 6040.13 2101.28 6040.13C2037.16 6040.13 1979.12 6026.33 1937.14 6004.04C1895.14 5981.73 1869.32 5951.01 1869.32 5917.2C1869.32 5883.39 1895.14 5852.66 1937.14 5830.36C1979.12 5808.06 2037.16 5794.26 2101.28 5794.26C2165.41 5794.26 2223.44 5808.06 2265.43 5830.36C2307.43 5852.66 2333.25 5883.39 2333.25 5917.2Z" fill="#8E4200" fill-opacity="0.86" stroke="black"/>
<path d="M2095.7 5910.41C2180.48 5879.05 2103.84 5983.42 2038.39 5922.1C1972.95 5860.77 2282.02 5844.02 2211.36 5958.44C2211.36 5958.44 2197.04 5978.7 2178.57 5987.27C2149.85 6000.59 2121.4 6001.78 2083.25 5998.56C2042.87 5995.15 2019.79 5986.04 1992.16 5969.21C1960.92 5950.2 1948.52 5933.94 1947.86 5908.88C1947.2 5884.1 1956.61 5867.41 1988.06 5850.18C2014.97 5835.45 2039.32 5831.6 2077.38 5828.08C2119.02 5824.23 2148.42 5822.95 2185.99 5834.58C2224.17 5846.41 2239.41 5861.14 2253.83 5883.65C2268.32 5906.27 2258.75 5920.75 2255.91 5944.32C2253.25 5966.39 2249.94 5978.76 2240.94 6000.2" stroke="black" stroke-width="4"/>
<path d="M2315.73 6148.61C2315.73 6182.42 2290 6213.15 2248.14 6235.45C2206.31 6257.74 2148.47 6271.54 2084.57 6271.54C2020.66 6271.54 1962.82 6257.74 1920.99 6235.45C1879.13 6213.15 1853.4 6182.42 1853.4 6148.61C1853.4 6114.8 1879.13 6084.07 1920.99 6061.77C1962.82 6039.48 2020.66 6025.68 2084.57 6025.68C2148.47 6025.68 2206.31 6039.48 2248.14 6061.77C2290 6084.07 2315.73 6114.8 2315.73 6148.61Z" fill="#8E4200" fill-opacity="0.86" stroke="black"/>
<path d="M2077.77 6141.81C2162.54 6110.45 2085.91 6214.82 2020.46 6153.5C1955.01 6092.17 2264.09 6075.42 2193.42 6189.84C2193.42 6189.84 2179.11 6210.1 2160.64 6218.67C2131.92 6231.99 2103.47 6233.18 2065.31 6229.96C2024.93 6226.55 2001.86 6217.44 1974.22 6200.61C1942.99 6181.6 1930.59 6165.34 1929.92 6140.28C1929.27 6115.5 1938.68 6098.81 1970.13 6081.58C1997.04 6066.85 2021.39 6063.01 2059.45 6059.48C2101.09 6055.63 2130.49 6054.35 2168.05 6065.98C2206.24 6077.81 2221.47 6092.54 2235.89 6115.05C2250.39 6137.67 2240.82 6152.15 2237.98 6175.72C2235.32 6197.79 2232.01 6210.16 2223.01 6231.6" stroke="black" stroke-width="4"/>
<path d="M2320.51 6368.96C2320.51 6403.08 2294.78 6434.08 2252.92 6456.58C2211.08 6479.08 2153.25 6493 2089.34 6493C2025.43 6493 1967.6 6479.08 1925.77 6456.58C1883.91 6434.08 1858.17 6403.08 1858.17 6368.96C1858.17 6334.84 1883.91 6303.83 1925.77 6281.33C1967.6 6258.84 2025.43 6244.91 2089.34 6244.91C2153.25 6244.91 2211.08 6258.84 2252.92 6281.33C2294.78 6303.83 2320.51 6334.84 2320.51 6368.96Z" fill="#8E4200" fill-opacity="0.86" stroke="black"/>
<path d="M2082.54 6362.75C2167.32 6331.39 2090.68 6435.76 2025.24 6374.44C1959.79 6313.11 2268.87 6296.36 2198.2 6410.78C2198.2 6410.78 2183.89 6431.04 2165.41 6439.61C2136.7 6452.93 2108.25 6454.12 2070.09 6450.9C2029.71 6447.49 2006.63 6438.38 1979 6421.55C1947.76 6402.54 1935.36 6386.28 1934.7 6361.22C1934.05 6336.44 1943.45 6319.75 1974.91 6302.52C2001.81 6287.79 2026.17 6283.95 2064.23 6280.42C2105.86 6276.57 2135.27 6275.29 2172.83 6286.92C2211.01 6298.75 2226.25 6313.48 2240.67 6335.99C2255.16 6358.61 2245.6 6373.09 2242.76 6396.66C2240.1 6418.73 2236.78 6431.1 2227.79 6452.54" stroke="black" stroke-width="4"/>
<rect x="-2.5" y="-2.5" width="295" height="197" rx="32.5" transform="matrix(0 -1 -1 0 4624 5615)" fill="#C08A64" stroke="#8E4200" stroke-width="5"/>
<rect x="2221.5" y="5646.5" width="451" height="195" rx="32.5" transform="rotate(-90 2221.5 5646.5)" fill="#C08A64" stroke="#8E4200" stroke-width="5"/>
<rect x="2021.5" y="5646.5" width="351" height="195" rx="32.5" transform="rotate(-90 2021.5 5646.5)" fill="#C08A64" stroke="#8E4200" stroke-width="5"/>
<rect x="2823.5" y="5646.5" width="901" height="196" rx="32.5" transform="rotate(-90 2823.5 5646.5)" fill="#C08A64" stroke="#8E4200" stroke-width="5"/>
<rect x="3024.5" y="5641.5" width="1044" height="196" rx="32.5" transform="rotate(-90 3024.5 5641.5)" fill="#C08A64" stroke="#8E4200" stroke-width="5"/>
<rect x="3225.5" y="5641.5" width="1088" height="196" rx="32.5" transform="rotate(-90 3225.5 5641.5)" fill="#C08A64" stroke="#8E4200" stroke-width="5"/>
<rect x="2421.5" y="5641.5" width="566" height="197" rx="32.5" transform="rotate(-90 2421.5 5641.5)" fill="#C08A64" stroke="#8E4200" stroke-width="5"/>
<rect x="2623.5" y="5646.5" width="696" height="195" rx="32.5" transform="rotate(-90 2623.5 5646.5)" fill="#C08A64" stroke="#8E4200" stroke-width="5"/>
<rect x="-2.5" y="-2.5" width="451" height="195" rx="32.5" transform="matrix(0 -1 -1 0 4422 5644)" fill="#C08A64" stroke="#8E4200" stroke-width="5"/>
<rect x="-2.5" y="-2.5" width="901" height="197" rx="32.5" transform="matrix(0 -1 -1 0 3821 5644)" fill="#C08A64" stroke="#8E4200" stroke-width="5"/>
<rect x="-2.5" y="-2.5" width="1008" height="195" rx="32.5" transform="matrix(0 -1 -1 0 3619 5639)" fill="#C08A64" stroke="#8E4200" stroke-width="5"/>
<rect x="-2.5" y="-2.5" width="566" height="195" rx="32.5" transform="matrix(0 -1 -1 0 4222 5639)" fill="#C08A64" stroke="#8E4200" stroke-width="5"/>
<rect x="-2.5" y="-2.5" width="696" height="196" rx="32.5" transform="matrix(0 -1 -1 0 4022 5644)" fill="#C08A64" stroke="#8E4200" stroke-width="5"/>
<rect width="301.902" height="2334.08" transform="matrix(0.860722 0.509076 -0.771481 0.636253 3208.7 4279.43)" fill="#F33760"/>
<rect width="301.902" height="2334.08" transform="matrix(-0.860722 0.509076 0.771481 0.636253 3391.3 4279.47)" fill="#F33760"/>
<rect x="3192" y="4116" width="253" height="449" rx="126.5" fill="#C5E729"/>
<rect width="159.714" height="204.486" rx="35" transform="matrix(1 0 0 -1 2827.05 6325)" fill="#C5E729"/>
<rect width="159.714" height="204.486" rx="35" transform="matrix(1 0 0 -1 3609.49 6325)" fill="#C5E729"/>
<path d="M2819.27 6200.09C2824.28 6200.14 2828.37 6196.09 2828.37 6191.08L2828.72 5318.37C2828.78 5170.5 2949.33 5051.01 3097.19 5052.24L3511.55 5055.7C3658.57 5056.92 3776.78 5177.08 3775.59 5324.1L3768.17 6240.87C3768.17 6222.68 3753.51 6207.89 3735.32 6207.74L2819.27 6200.09Z" fill="#C5E729"/>
<path d="M2951.12 6135.16C2954.73 6135.19 2957.67 6132.27 2957.68 6128.66L2958.71 5440.06C2958.94 5292.3 3079.43 5172.99 3227.18 5174.23L3376.77 5175.48C3523.79 5176.7 3642 5296.87 3640.8 5443.89L3634.92 6168.38C3634.94 6153.16 3622.67 6140.77 3607.45 6140.64L2951.12 6135.16Z" fill="#B9B4B4"/>
<rect width="911.499" height="130.811" transform="matrix(1 0 0 -1 2856.09 6162.61)" fill="#C5E729"/>
<path d="M5993.5 7001.91C5993.5 7063.1 5929.16 7112.91 5849.5 7112.91C5769.84 7112.91 5705.5 7063.1 5705.5 7001.91C5705.5 6940.71 5769.84 6890.91 5849.5 6890.91C5929.16 6890.91 5993.5 6940.71 5993.5 7001.91Z" fill="#8E4200" fill-opacity="0.86" stroke="black"/>
<path d="M5994.5 6796.91C5994.5 6858.1 5930.16 6907.91 5850.5 6907.91C5770.84 6907.91 5706.5 6858.1 5706.5 6796.91C5706.5 6735.71 5770.84 6685.91 5850.5 6685.91C5930.16 6685.91 5994.5 6735.71 5994.5 6796.91Z" fill="#8E4200" fill-opacity="0.86" stroke="black"/>
<path d="M5995.5 6568.91C5995.5 6630.1 5931.16 6679.91 5851.5 6679.91C5771.84 6679.91 5707.5 6630.1 5707.5 6568.91C5707.5 6507.71 5771.84 6457.91 5851.5 6457.91C5931.16 6457.91 5995.5 6507.71 5995.5 6568.91Z" fill="#8E4200" fill-opacity="0.86" stroke="black"/>
<path d="M5996.5 6377.91C5996.5 6439.1 5932.16 6488.91 5852.5 6488.91C5772.84 6488.91 5708.5 6439.1 5708.5 6377.91C5708.5 6316.71 5772.84 6266.91 5852.5 6266.91C5932.16 6266.91 5996.5 6316.71 5996.5 6377.91Z" fill="#8E4200" fill-opacity="0.86" stroke="black"/>
<path d="M5996.5 6171.91C5996.5 6233.1 5932.16 6282.91 5852.5 6282.91C5772.84 6282.91 5708.5 6233.1 5708.5 6171.91C5708.5 6110.71 5772.84 6060.91 5852.5 6060.91C5932.16 6060.91 5996.5 6110.71 5996.5 6171.91Z" fill="#8E4200" fill-opacity="0.86" stroke="black"/>
<path d="M5997.5 5990.91C5997.5 6052.1 5933.16 6101.91 5853.5 6101.91C5773.84 6101.91 5709.5 6052.1 5709.5 5990.91C5709.5 5929.71 5773.84 5879.91 5853.5 5879.91C5933.16 5879.91 5997.5 5929.71 5997.5 5990.91Z" fill="#8E4200" fill-opacity="0.86" stroke="black"/>
<path d="M5998.5 5800.91C5998.5 5862.1 5934.16 5911.91 5854.5 5911.91C5774.84 5911.91 5710.5 5862.1 5710.5 5800.91C5710.5 5739.71 5774.84 5689.91 5854.5 5689.91C5934.16 5689.91 5998.5 5739.71 5998.5 5800.91Z" fill="#8E4200" fill-opacity="0.86" stroke="black"/>
<path d="M5999.5 5596.91C5999.5 5658.1 5935.16 5707.91 5855.5 5707.91C5775.84 5707.91 5711.5 5658.1 5711.5 5596.91C5711.5 5535.71 5775.84 5485.91 5855.5 5485.91C5935.16 5485.91 5999.5 5535.71 5999.5 5596.91Z" fill="#8E4200" fill-opacity="0.86" stroke="black"/>
<path d="M5839.53 6995.74C5892.77 6967.53 5844.64 7061.39 5803.53 7006.25C5762.43 6951.1 5956.55 6936.04 5912.17 7038.93C5912.17 7038.93 5903.18 7057.15 5891.57 7064.85C5873.54 7076.83 5855.67 7077.9 5831.71 7075.01C5806.34 7071.94 5791.85 7063.74 5774.5 7048.62C5754.88 7031.51 5747.09 7016.89 5746.67 6994.36C5746.26 6972.07 5752.17 6957.07 5771.93 6941.58C5788.82 6928.32 5804.12 6924.87 5828.02 6921.7C5854.17 6918.24 5872.64 6917.08 5896.23 6927.55C5920.21 6938.18 5929.78 6951.43 5938.84 6971.67C5947.94 6992.01 5941.93 7005.03 5940.15 7026.23C5938.48 7046.07 5936.4 7057.2 5930.75 7076.48" stroke="black" stroke-width="4"/>
<path d="M5840.53 6790.74C5893.77 6762.53 5845.64 6856.39 5804.53 6801.25C5763.43 6746.1 5957.55 6731.04 5913.17 6833.93C5913.17 6833.93 5904.18 6852.15 5892.57 6859.85C5874.54 6871.83 5856.67 6872.9 5832.71 6870.01C5807.34 6866.94 5792.85 6858.74 5775.5 6843.62C5755.88 6826.51 5748.09 6811.89 5747.67 6789.36C5747.26 6767.07 5753.17 6752.07 5772.93 6736.58C5789.82 6723.32 5805.12 6719.87 5829.02 6716.7C5855.17 6713.24 5873.64 6712.08 5897.23 6722.55C5921.21 6733.18 5930.78 6746.43 5939.84 6766.67C5948.94 6787.01 5942.93 6800.03 5941.15 6821.23C5939.48 6841.07 5937.4 6852.2 5931.75 6871.48" stroke="black" stroke-width="4"/>
<path d="M5841.53 6562.74C5894.77 6534.53 5846.64 6628.39 5805.53 6573.25C5764.43 6518.1 5958.55 6503.04 5914.17 6605.93C5914.17 6605.93 5905.18 6624.15 5893.57 6631.85C5875.54 6643.83 5857.67 6644.9 5833.71 6642.01C5808.34 6638.94 5793.85 6630.74 5776.5 6615.62C5756.88 6598.51 5749.09 6583.89 5748.67 6561.36C5748.26 6539.07 5754.17 6524.07 5773.93 6508.58C5790.82 6495.32 5806.12 6491.87 5830.02 6488.7C5856.17 6485.24 5874.64 6484.08 5898.23 6494.55C5922.21 6505.18 5931.78 6518.43 5940.84 6538.67C5949.94 6559.01 5943.93 6572.03 5942.15 6593.23C5940.48 6613.07 5938.4 6624.2 5932.75 6643.48" stroke="black" stroke-width="4"/>
<path d="M5842.53 6371.74C5895.77 6343.53 5847.64 6437.39 5806.53 6382.25C5765.43 6327.1 5959.55 6312.04 5915.17 6414.93C5915.17 6414.93 5906.18 6433.15 5894.57 6440.85C5876.54 6452.83 5858.67 6453.9 5834.71 6451.01C5809.34 6447.94 5794.85 6439.74 5777.5 6424.62C5757.88 6407.51 5750.09 6392.89 5749.67 6370.36C5749.26 6348.07 5755.17 6333.07 5774.93 6317.58C5791.82 6304.32 5807.12 6300.87 5831.02 6297.7C5857.17 6294.24 5875.64 6293.08 5899.23 6303.55C5923.21 6314.18 5932.78 6327.43 5941.84 6347.67C5950.94 6368.01 5944.93 6381.03 5943.15 6402.23C5941.48 6422.07 5939.4 6433.2 5933.75 6452.48" stroke="black" stroke-width="4"/>
<path d="M5842.53 6165.74C5895.77 6137.53 5847.64 6231.39 5806.53 6176.25C5765.43 6121.1 5959.55 6106.04 5915.17 6208.93C5915.17 6208.93 5906.18 6227.15 5894.57 6234.85C5876.54 6246.83 5858.67 6247.9 5834.71 6245.01C5809.34 6241.94 5794.85 6233.74 5777.5 6218.62C5757.88 6201.51 5750.09 6186.89 5749.67 6164.36C5749.26 6142.07 5755.17 6127.07 5774.93 6111.58C5791.82 6098.32 5807.12 6094.87 5831.02 6091.7C5857.17 6088.24 5875.64 6087.08 5899.23 6097.55C5923.21 6108.18 5932.78 6121.43 5941.84 6141.67C5950.94 6162.01 5944.93 6175.03 5943.15 6196.23C5941.48 6216.07 5939.4 6227.2 5933.75 6246.48" stroke="black" stroke-width="4"/>
<path d="M5843.53 5984.74C5896.77 5956.53 5848.64 6050.39 5807.53 5995.25C5766.43 5940.1 5960.55 5925.04 5916.17 6027.93C5916.17 6027.93 5907.18 6046.15 5895.57 6053.85C5877.54 6065.83 5859.67 6066.9 5835.71 6064.01C5810.34 6060.94 5795.85 6052.74 5778.5 6037.62C5758.88 6020.51 5751.09 6005.89 5750.67 5983.36C5750.26 5961.07 5756.17 5946.07 5775.93 5930.58C5792.82 5917.32 5808.12 5913.87 5832.02 5910.7C5858.17 5907.24 5876.64 5906.08 5900.23 5916.55C5924.21 5927.18 5933.78 5940.43 5942.84 5960.67C5951.94 5981.01 5945.93 5994.03 5944.15 6015.23C5942.48 6035.07 5940.4 6046.2 5934.75 6065.48" stroke="black" stroke-width="4"/>
<path d="M5844.53 5794.74C5897.77 5766.53 5849.64 5860.39 5808.53 5805.25C5767.43 5750.1 5961.55 5735.04 5917.17 5837.93C5917.17 5837.93 5908.18 5856.15 5896.57 5863.85C5878.54 5875.83 5860.67 5876.9 5836.71 5874.01C5811.34 5870.94 5796.85 5862.74 5779.5 5847.62C5759.88 5830.51 5752.09 5815.89 5751.67 5793.36C5751.26 5771.07 5757.17 5756.07 5776.93 5740.58C5793.82 5727.32 5809.12 5723.87 5833.02 5720.7C5859.17 5717.24 5877.64 5716.08 5901.23 5726.55C5925.21 5737.18 5934.78 5750.43 5943.84 5770.67C5952.94 5791.01 5946.93 5804.03 5945.15 5825.23C5943.48 5845.07 5941.4 5856.2 5935.75 5875.48" stroke="black" stroke-width="4"/>
<path d="M5845.53 5590.74C5898.77 5562.53 5850.64 5656.39 5809.53 5601.25C5768.43 5546.1 5962.55 5531.04 5918.17 5633.93C5918.17 5633.93 5909.18 5652.15 5897.57 5659.85C5879.54 5671.83 5861.67 5672.9 5837.71 5670.01C5812.34 5666.94 5797.85 5658.74 5780.5 5643.62C5760.88 5626.51 5753.09 5611.89 5752.67 5589.36C5752.26 5567.07 5758.17 5552.07 5777.93 5536.58C5794.82 5523.32 5810.12 5519.87 5834.02 5516.7C5860.17 5513.24 5878.64 5512.08 5902.23 5522.55C5926.21 5533.18 5935.78 5546.43 5944.84 5566.67C5953.94 5587.01 5947.93 5600.03 5946.15 5621.23C5944.48 5641.07 5942.4 5652.2 5936.75 5671.48" stroke="black" stroke-width="4"/>
<path d="M4928.11 5780.36L4863.68 5717.49L4905.01 5627.76L4967.95 5687.7L4928.11 5780.36Z" fill="#5BE730"/>
<path d="M3320.43 4485.12L3223.6 4349.06L3325.59 4201.12L3430 4349.06L3320.43 4485.12Z" fill="#E50B0B"/>
<path d="M3512.11 4641.36L3447.68 4578.49L3489.01 4488.76L3551.95 4548.7L3512.11 4641.36Z" fill="#5BE730"/>
<path d="M3646.11 4743.36L3581.68 4680.49L3623.01 4590.76L3685.95 4650.7L3646.11 4743.36Z" fill="#5BE730"/>
<path d="M3800.11 4857.36L3735.68 4794.49L3777.01 4704.76L3839.95 4764.7L3800.11 4857.36Z" fill="#5BE730"/>
<path d="M3926.11 4970.36L3861.68 4907.49L3903.01 4817.76L3965.95 4877.7L3926.11 4970.36Z" fill="#5BE730"/>
<path d="M4061.11 5099.36L3996.68 5036.49L4038.01 4946.76L4100.95 5006.7L4061.11 5099.36Z" fill="#5BE730"/>
<path d="M4205.11 5213.36L4140.68 5150.49L4182.01 5060.76L4244.95 5120.7L4205.11 5213.36Z" fill="#5BE730"/>
<path d="M4349.11 5320.36L4284.68 5257.49L4326.01 5167.76L4388.95 5227.7L4349.11 5320.36Z" fill="#5BE730"/>
<path d="M4502.11 5434.36L4437.68 5371.49L4479.01 5281.76L4541.95 5341.7L4502.11 5434.36Z" fill="#5BE730"/>
<path d="M4659.11 5556.36L4594.68 5493.49L4636.01 5403.76L4698.95 5463.7L4659.11 5556.36Z" fill="#5BE730"/>
<path d="M4806.11 5670.36L4741.68 5607.49L4783.01 5517.76L4845.95 5577.7L4806.11 5670.36Z" fill="#5BE730"/>
<path d="M1652.75 5780.36L1717.18 5717.49L1675.85 5627.76L1612.91 5687.7L1652.75 5780.36Z" fill="#5BE730"/>
<path d="M3068.75 4641.36L3133.18 4578.49L3091.85 4488.76L3028.91 4548.7L3068.75 4641.36Z" fill="#5BE730"/>
<path d="M2934.75 4743.36L2999.18 4680.49L2957.85 4590.76L2894.91 4650.7L2934.75 4743.36Z" fill="#5BE730"/>
<path d="M2780.75 4857.36L2845.18 4794.49L2803.85 4704.76L2740.91 4764.7L2780.75 4857.36Z" fill="#5BE730"/>
<path d="M2654.75 4970.36L2719.18 4907.49L2677.85 4817.76L2614.91 4877.7L2654.75 4970.36Z" fill="#5BE730"/>
<path d="M2519.75 5099.36L2584.18 5036.49L2542.85 4946.76L2479.91 5006.7L2519.75 5099.36Z" fill="#5BE730"/>
<path d="M2375.75 5213.36L2440.18 5150.49L2398.85 5060.76L2335.91 5120.7L2375.75 5213.36Z" fill="#5BE730"/>
<path d="M2231.75 5320.36L2296.18 5257.49L2254.85 5167.76L2191.91 5227.7L2231.75 5320.36Z" fill="#5BE730"/>
<path d="M2078.75 5434.36L2143.18 5371.49L2101.85 5281.76L2038.91 5341.7L2078.75 5434.36Z" fill="#5BE730"/>
<path d="M1921.75 5556.36L1986.18 5493.49L1944.85 5403.76L1881.91 5463.7L1921.75 5556.36Z" fill="#5BE730"/>
<path d="M1774.75 5670.36L1839.18 5607.49L1797.85 5517.76L1734.91 5577.7L1774.75 5670.36Z" fill="#5BE730"/>
<path d="M166.342 3965.64L304.194 4002.6L192.75 4105.89L166.342 3965.64Z" fill="#E7D212"/>
<path d="M166.342 3965.64L304.194 4002.6L192.75 4105.89L166.342 3965.64Z" fill="#E7D212"/>
<path d="M166.342 3965.64L304.194 4002.6L192.75 4105.89L166.342 3965.64Z" fill="#E7D212"/>
<path d="M166.342 3965.64L304.194 4002.6L192.75 4105.89L166.342 3965.64Z" fill="#E7D212"/>
<path d="M166.342 3965.64L304.194 4002.6L192.75 4105.89L166.342 3965.64Z" fill="#E7D212"/>
<path d="M291.155 3834.86L431.194 3862.4L327.001 3973.01L291.155 3834.86Z" fill="#E7D212"/>
<path d="M291.155 3834.86L431.194 3862.4L327.001 3973.01L291.155 3834.86Z" fill="#E7D212"/>
<path d="M291.155 3834.86L431.194 3862.4L327.001 3973.01L291.155 3834.86Z" fill="#E7D212"/>
<path d="M291.155 3834.86L431.194 3862.4L327.001 3973.01L291.155 3834.86Z" fill="#E7D212"/>
<path d="M291.155 3834.86L431.194 3862.4L327.001 3973.01L291.155 3834.86Z" fill="#E7D212"/>
<path d="M1255.16 2902.86L1395.19 2930.4L1291 3041.01L1255.16 2902.86Z" fill="#E7D212"/>
<path d="M1255.16 2902.86L1395.19 2930.4L1291 3041.01L1255.16 2902.86Z" fill="#E7D212"/>
<path d="M1255.16 2902.86L1395.19 2930.4L1291 3041.01L1255.16 2902.86Z" fill="#E7D212"/>
<path d="M1255.16 2902.86L1395.19 2930.4L1291 3041.01L1255.16 2902.86Z" fill="#E7D212"/>
<path d="M1255.16 2902.86L1395.19 2930.4L1291 3041.01L1255.16 2902.86Z" fill="#E7D212"/>
<path d="M1104.16 3042.86L1244.19 3070.4L1140 3181.01L1104.16 3042.86Z" fill="#E7D212"/>
<path d="M1104.16 3042.86L1244.19 3070.4L1140 3181.01L1104.16 3042.86Z" fill="#E7D212"/>
<path d="M1104.16 3042.86L1244.19 3070.4L1140 3181.01L1104.16 3042.86Z" fill="#E7D212"/>
<path d="M1104.16 3042.86L1244.19 3070.4L1140 3181.01L1104.16 3042.86Z" fill="#E7D212"/>
<path d="M1104.16 3042.86L1244.19 3070.4L1140 3181.01L1104.16 3042.86Z" fill="#E7D212"/>
<path d="M967.155 3170.86L1107.19 3198.4L1003 3309.01L967.155 3170.86Z" fill="#E7D212"/>
<path d="M967.155 3170.86L1107.19 3198.4L1003 3309.01L967.155 3170.86Z" fill="#E7D212"/>
<path d="M967.155 3170.86L1107.19 3198.4L1003 3309.01L967.155 3170.86Z" fill="#E7D212"/>
<path d="M967.155 3170.86L1107.19 3198.4L1003 3309.01L967.155 3170.86Z" fill="#E7D212"/>
<path d="M967.155 3170.86L1107.19 3198.4L1003 3309.01L967.155 3170.86Z" fill="#E7D212"/>
<path d="M829.155 3312.86L969.194 3340.4L865.001 3451.01L829.155 3312.86Z" fill="#E7D212"/>
<path d="M829.155 3312.86L969.194 3340.4L865.001 3451.01L829.155 3312.86Z" fill="#E7D212"/>
<path d="M829.155 3312.86L969.194 3340.4L865.001 3451.01L829.155 3312.86Z" fill="#E7D212"/>
<path d="M829.155 3312.86L969.194 3340.4L865.001 3451.01L829.155 3312.86Z" fill="#E7D212"/>
<path d="M829.155 3312.86L969.194 3340.4L865.001 3451.01L829.155 3312.86Z" fill="#E7D212"/>
<path d="M701.155 3440.86L841.194 3468.4L737.001 3579.01L701.155 3440.86Z" fill="#E7D212"/>
<path d="M701.155 3440.86L841.194 3468.4L737.001 3579.01L701.155 3440.86Z" fill="#E7D212"/>
<path d="M701.155 3440.86L841.194 3468.4L737.001 3579.01L701.155 3440.86Z" fill="#E7D212"/>
<path d="M701.155 3440.86L841.194 3468.4L737.001 3579.01L701.155 3440.86Z" fill="#E7D212"/>
<path d="M701.155 3440.86L841.194 3468.4L737.001 3579.01L701.155 3440.86Z" fill="#E7D212"/>
<path d="M562.155 3578.86L702.194 3606.4L598.001 3717.01L562.155 3578.86Z" fill="#E7D212"/>
<path d="M562.155 3578.86L702.194 3606.4L598.001 3717.01L562.155 3578.86Z" fill="#E7D212"/>
<path d="M562.155 3578.86L702.194 3606.4L598.001 3717.01L562.155 3578.86Z" fill="#E7D212"/>
<path d="M562.155 3578.86L702.194 3606.4L598.001 3717.01L562.155 3578.86Z" fill="#E7D212"/>
<path d="M562.155 3578.86L702.194 3606.4L598.001 3717.01L562.155 3578.86Z" fill="#E7D212"/>
<path d="M428.155 3706.86L568.194 3734.4L464.001 3845.01L428.155 3706.86Z" fill="#E7D212"/>
<path d="M428.155 3706.86L568.194 3734.4L464.001 3845.01L428.155 3706.86Z" fill="#E7D212"/>
<path d="M428.155 3706.86L568.194 3734.4L464.001 3845.01L428.155 3706.86Z" fill="#E7D212"/>
<path d="M428.155 3706.86L568.194 3734.4L464.001 3845.01L428.155 3706.86Z" fill="#E7D212"/>
<path d="M428.155 3706.86L568.194 3734.4L464.001 3845.01L428.155 3706.86Z" fill="#E7D212"/>
<path d="M2749.22 3965.64L2611.37 4002.6L2722.82 4105.89L2749.22 3965.64Z" fill="#E7D212"/>
<path d="M2749.22 3965.64L2611.37 4002.6L2722.82 4105.89L2749.22 3965.64Z" fill="#E7D212"/>
<path d="M2749.22 3965.64L2611.37 4002.6L2722.82 4105.89L2749.22 3965.64Z" fill="#E7D212"/>
<path d="M2749.22 3965.64L2611.37 4002.6L2722.82 4105.89L2749.22 3965.64Z" fill="#E7D212"/>
<path d="M2749.22 3965.64L2611.37 4002.6L2722.82 4105.89L2749.22 3965.64Z" fill="#E7D212"/>
<path d="M2624.41 3834.86L2484.37 3862.4L2588.57 3973.01L2624.41 3834.86Z" fill="#E7D212"/>
<path d="M2624.41 3834.86L2484.37 3862.4L2588.57 3973.01L2624.41 3834.86Z" fill="#E7D212"/>
<path d="M2624.41 3834.86L2484.37 3862.4L2588.57 3973.01L2624.41 3834.86Z" fill="#E7D212"/>
<path d="M2624.41 3834.86L2484.37 3862.4L2588.57 3973.01L2624.41 3834.86Z" fill="#E7D212"/>
<path d="M2624.41 3834.86L2484.37 3862.4L2588.57 3973.01L2624.41 3834.86Z" fill="#E7D212"/>
<path d="M1660.41 2902.86L1520.37 2930.4L1624.57 3041.01L1660.41 2902.86Z" fill="#E7D212"/>
<path d="M1660.41 2902.86L1520.37 2930.4L1624.57 3041.01L1660.41 2902.86Z" fill="#E7D212"/>
<path d="M1660.41 2902.86L1520.37 2930.4L1624.57 3041.01L1660.41 2902.86Z" fill="#E7D212"/>
<path d="M1660.41 2902.86L1520.37 2930.4L1624.57 3041.01L1660.41 2902.86Z" fill="#E7D212"/>
<path d="M1660.41 2902.86L1520.37 2930.4L1624.57 3041.01L1660.41 2902.86Z" fill="#E7D212"/>
<path d="M1811.41 3042.86L1671.37 3070.4L1775.57 3181.01L1811.41 3042.86Z" fill="#E7D212"/>
<path d="M1811.41 3042.86L1671.37 3070.4L1775.57 3181.01L1811.41 3042.86Z" fill="#E7D212"/>
<path d="M1811.41 3042.86L1671.37 3070.4L1775.57 3181.01L1811.41 3042.86Z" fill="#E7D212"/>
<path d="M1811.41 3042.86L1671.37 3070.4L1775.57 3181.01L1811.41 3042.86Z" fill="#E7D212"/>
<path d="M1811.41 3042.86L1671.37 3070.4L1775.57 3181.01L1811.41 3042.86Z" fill="#E7D212"/>
<path d="M1948.41 3170.86L1808.37 3198.4L1912.57 3309.01L1948.41 3170.86Z" fill="#E7D212"/>
<path d="M1948.41 3170.86L1808.37 3198.4L1912.57 3309.01L1948.41 3170.86Z" fill="#E7D212"/>
<path d="M1948.41 3170.86L1808.37 3198.4L1912.57 3309.01L1948.41 3170.86Z" fill="#E7D212"/>
<path d="M1948.41 3170.86L1808.37 3198.4L1912.57 3309.01L1948.41 3170.86Z" fill="#E7D212"/>
<path d="M1948.41 3170.86L1808.37 3198.4L1912.57 3309.01L1948.41 3170.86Z" fill="#E7D212"/>
<path d="M2086.41 3312.86L1946.37 3340.4L2050.57 3451.01L2086.41 3312.86Z" fill="#E7D212"/>
<path d="M2086.41 3312.86L1946.37 3340.4L2050.57 3451.01L2086.41 3312.86Z" fill="#E7D212"/>
<path d="M2086.41 3312.86L1946.37 3340.4L2050.57 3451.01L2086.41 3312.86Z" fill="#E7D212"/>
<path d="M2086.41 3312.86L1946.37 3340.4L2050.57 3451.01L2086.41 3312.86Z" fill="#E7D212"/>
<path d="M2086.41 3312.86L1946.37 3340.4L2050.57 3451.01L2086.41 3312.86Z" fill="#E7D212"/>
<path d="M2214.41 3440.86L2074.37 3468.4L2178.57 3579.01L2214.41 3440.86Z" fill="#E7D212"/>
<path d="M2214.41 3440.86L2074.37 3468.4L2178.57 3579.01L2214.41 3440.86Z" fill="#E7D212"/>
<path d="M2214.41 3440.86L2074.37 3468.4L2178.57 3579.01L2214.41 3440.86Z" fill="#E7D212"/>
<path d="M2214.41 3440.86L2074.37 3468.4L2178.57 3579.01L2214.41 3440.86Z" fill="#E7D212"/>
<path d="M2214.41 3440.86L2074.37 3468.4L2178.57 3579.01L2214.41 3440.86Z" fill="#E7D212"/>
<path d="M2353.41 3578.86L2213.37 3606.4L2317.57 3717.01L2353.41 3578.86Z" fill="#E7D212"/>
<path d="M2353.41 3578.86L2213.37 3606.4L2317.57 3717.01L2353.41 3578.86Z" fill="#E7D212"/>
<path d="M2353.41 3578.86L2213.37 3606.4L2317.57 3717.01L2353.41 3578.86Z" fill="#E7D212"/>
<path d="M2353.41 3578.86L2213.37 3606.4L2317.57 3717.01L2353.41 3578.86Z" fill="#E7D212"/>
<path d="M2353.41 3578.86L2213.37 3606.4L2317.57 3717.01L2353.41 3578.86Z" fill="#E7D212"/>
<path d="M2487.41 3706.86L2347.37 3734.4L2451.57 3845.01L2487.41 3706.86Z" fill="#E7D212"/>
<path d="M2487.41 3706.86L2347.37 3734.4L2451.57 3845.01L2487.41 3706.86Z" fill="#E7D212"/>
<path d="M2487.41 3706.86L2347.37 3734.4L2451.57 3845.01L2487.41 3706.86Z" fill="#E7D212"/>
<path d="M2487.41 3706.86L2347.37 3734.4L2451.57 3845.01L2487.41 3706.86Z" fill="#E7D212"/>
<path d="M2487.41 3706.86L2347.37 3734.4L2451.57 3845.01L2487.41 3706.86Z" fill="#E7D212"/>
<path d="M3776.37 4015.08L3912.1 4059.19L3795.42 4156.53L3776.37 4015.08Z" fill="#E7D212"/>
<path d="M3776.37 4015.08L3912.1 4059.19L3795.42 4156.53L3776.37 4015.08Z" fill="#E7D212"/>
<path d="M3776.37 4015.08L3912.1 4059.19L3795.42 4156.53L3776.37 4015.08Z" fill="#E7D212"/>
<path d="M3776.37 4015.08L3912.1 4059.19L3795.42 4156.53L3776.37 4015.08Z" fill="#E7D212"/>
<path d="M3776.37 4015.08L3912.1 4059.19L3795.42 4156.53L3776.37 4015.08Z" fill="#E7D212"/>
<path d="M3907.84 3891L4046.25 3925.82L3936.42 4030.83L3907.84 3891Z" fill="#E7D212"/>
<path d="M3907.84 3891L4046.25 3925.82L3936.42 4030.83L3907.84 3891Z" fill="#E7D212"/>
<path d="M3907.84 3891L4046.25 3925.82L3936.42 4030.83L3907.84 3891Z" fill="#E7D212"/>
<path d="M3907.84 3891L4046.25 3925.82L3936.42 4030.83L3907.84 3891Z" fill="#E7D212"/>
<path d="M3907.84 3891L4046.25 3925.82L3936.42 4030.83L3907.84 3891Z" fill="#E7D212"/>
<path d="M4919.21 3010.63L5057.62 3045.44L4947.79 3150.46L4919.21 3010.63Z" fill="#E7D212"/>
<path d="M4919.21 3010.63L5057.62 3045.44L4947.79 3150.46L4919.21 3010.63Z" fill="#E7D212"/>
<path d="M4919.21 3010.63L5057.62 3045.44L4947.79 3150.46L4919.21 3010.63Z" fill="#E7D212"/>
<path d="M4919.21 3010.63L5057.62 3045.44L4947.79 3150.46L4919.21 3010.63Z" fill="#E7D212"/>
<path d="M4919.21 3010.63L5057.62 3045.44L4947.79 3150.46L4919.21 3010.63Z" fill="#E7D212"/>
<path d="M4761.1 3142.55L4899.51 3177.37L4789.69 3282.38L4761.1 3142.55Z" fill="#E7D212"/>
<path d="M4761.1 3142.55L4899.51 3177.37L4789.69 3282.38L4761.1 3142.55Z" fill="#E7D212"/>
<path d="M4761.1 3142.55L4899.51 3177.37L4789.69 3282.38L4761.1 3142.55Z" fill="#E7D212"/>
<path d="M4761.1 3142.55L4899.51 3177.37L4789.69 3282.38L4761.1 3142.55Z" fill="#E7D212"/>
<path d="M4761.1 3142.55L4899.51 3177.37L4789.69 3282.38L4761.1 3142.55Z" fill="#E7D212"/>
<path d="M4617.61 3263.22L4756.01 3298.03L4646.19 3403.05L4617.61 3263.22Z" fill="#E7D212"/>
<path d="M4617.61 3263.22L4756.01 3298.03L4646.19 3403.05L4617.61 3263.22Z" fill="#E7D212"/>
<path d="M4617.61 3263.22L4756.01 3298.03L4646.19 3403.05L4617.61 3263.22Z" fill="#E7D212"/>
<path d="M4617.61 3263.22L4756.01 3298.03L4646.19 3403.05L4617.61 3263.22Z" fill="#E7D212"/>
<path d="M4617.61 3263.22L4756.01 3298.03L4646.19 3403.05L4617.61 3263.22Z" fill="#E7D212"/>
<path d="M4472.38 3397.82L4610.78 3432.63L4500.96 3537.65L4472.38 3397.82Z" fill="#E7D212"/>
<path d="M4472.38 3397.82L4610.78 3432.63L4500.96 3537.65L4472.38 3397.82Z" fill="#E7D212"/>
<path d="M4472.38 3397.82L4610.78 3432.63L4500.96 3537.65L4472.38 3397.82Z" fill="#E7D212"/>
<path d="M4472.38 3397.82L4610.78 3432.63L4500.96 3537.65L4472.38 3397.82Z" fill="#E7D212"/>
<path d="M4472.38 3397.82L4610.78 3432.63L4500.96 3537.65L4472.38 3397.82Z" fill="#E7D212"/>
<path d="M4337.87 3518.96L4476.27 3553.77L4366.45 3658.79L4337.87 3518.96Z" fill="#E7D212"/>
<path d="M4337.87 3518.96L4476.27 3553.77L4366.45 3658.79L4337.87 3518.96Z" fill="#E7D212"/>
<path d="M4337.87 3518.96L4476.27 3553.77L4366.45 3658.79L4337.87 3518.96Z" fill="#E7D212"/>
<path d="M4337.87 3518.96L4476.27 3553.77L4366.45 3658.79L4337.87 3518.96Z" fill="#E7D212"/>
<path d="M4337.87 3518.96L4476.27 3553.77L4366.45 3658.79L4337.87 3518.96Z" fill="#E7D212"/>
<path d="M4191.85 3649.51L4330.25 3684.32L4220.43 3789.34L4191.85 3649.51Z" fill="#E7D212"/>
<path d="M4191.85 3649.51L4330.25 3684.32L4220.43 3789.34L4191.85 3649.51Z" fill="#E7D212"/>
<path d="M4191.85 3649.51L4330.25 3684.32L4220.43 3789.34L4191.85 3649.51Z" fill="#E7D212"/>
<path d="M4191.85 3649.51L4330.25 3684.32L4220.43 3789.34L4191.85 3649.51Z" fill="#E7D212"/>
<path d="M4191.85 3649.51L4330.25 3684.32L4220.43 3789.34L4191.85 3649.51Z" fill="#E7D212"/>
<path d="M4051.34 3770.33L4189.75 3805.15L4079.92 3910.16L4051.34 3770.33Z" fill="#E7D212"/>
<path d="M4051.34 3770.33L4189.75 3805.15L4079.92 3910.16L4051.34 3770.33Z" fill="#E7D212"/>
<path d="M4051.34 3770.33L4189.75 3805.15L4079.92 3910.16L4051.34 3770.33Z" fill="#E7D212"/>
<path d="M4051.34 3770.33L4189.75 3805.15L4079.92 3910.16L4051.34 3770.33Z" fill="#E7D212"/>
<path d="M4051.34 3770.33L4189.75 3805.15L4079.92 3910.16L4051.34 3770.33Z" fill="#E7D212"/>
<path d="M6407.26 4004.22L6270.86 4046.22L6386.03 4145.35L6407.26 4004.22Z" fill="#E7D212"/>
<path d="M6407.26 4004.22L6270.86 4046.22L6386.03 4145.35L6407.26 4004.22Z" fill="#E7D212"/>
<path d="M6407.26 4004.22L6270.86 4046.22L6386.03 4145.35L6407.26 4004.22Z" fill="#E7D212"/>
<path d="M6407.26 4004.22L6270.86 4046.22L6386.03 4145.35L6407.26 4004.22Z" fill="#E7D212"/>
<path d="M6407.26 4004.22L6270.86 4046.22L6386.03 4145.35L6407.26 4004.22Z" fill="#E7D212"/>
<path d="M6277.73 3878.12L6138.8 3910.79L6246.98 4017.49L6277.73 3878.12Z" fill="#E7D212"/>
<path d="M6277.73 3878.12L6138.8 3910.79L6246.98 4017.49L6277.73 3878.12Z" fill="#E7D212"/>
<path d="M6277.73 3878.12L6138.8 3910.79L6246.98 4017.49L6277.73 3878.12Z" fill="#E7D212"/>
<path d="M6277.73 3878.12L6138.8 3910.79L6246.98 4017.49L6277.73 3878.12Z" fill="#E7D212"/>
<path d="M6277.73 3878.12L6138.8 3910.79L6246.98 4017.49L6277.73 3878.12Z" fill="#E7D212"/>
<path d="M5280.11 2982.2L5141.18 3014.87L5249.37 3121.57L5280.11 2982.2Z" fill="#E7D212"/>
<path d="M5280.11 2982.2L5141.18 3014.87L5249.37 3121.57L5280.11 2982.2Z" fill="#E7D212"/>
<path d="M5280.11 2982.2L5141.18 3014.87L5249.37 3121.57L5280.11 2982.2Z" fill="#E7D212"/>
<path d="M5280.11 2982.2L5141.18 3014.87L5249.37 3121.57L5280.11 2982.2Z" fill="#E7D212"/>
<path d="M5280.11 2982.2L5141.18 3014.87L5249.37 3121.57L5280.11 2982.2Z" fill="#E7D212"/>
<path d="M5436.15 3116.55L5297.22 3149.22L5405.41 3255.92L5436.15 3116.55Z" fill="#E7D212"/>
<path d="M5436.15 3116.55L5297.22 3149.22L5405.41 3255.92L5436.15 3116.55Z" fill="#E7D212"/>
<path d="M5436.15 3116.55L5297.22 3149.22L5405.41 3255.92L5436.15 3116.55Z" fill="#E7D212"/>
<path d="M5436.15 3116.55L5297.22 3149.22L5405.41 3255.92L5436.15 3116.55Z" fill="#E7D212"/>
<path d="M5436.15 3116.55L5297.22 3149.22L5405.41 3255.92L5436.15 3116.55Z" fill="#E7D212"/>
<path d="M5577.77 3239.43L5438.84 3272.09L5547.03 3378.8L5577.77 3239.43Z" fill="#E7D212"/>
<path d="M5577.77 3239.43L5438.84 3272.09L5547.03 3378.8L5577.77 3239.43Z" fill="#E7D212"/>
<path d="M5577.77 3239.43L5438.84 3272.09L5547.03 3378.8L5577.77 3239.43Z" fill="#E7D212"/>
<path d="M5577.77 3239.43L5438.84 3272.09L5547.03 3378.8L5577.77 3239.43Z" fill="#E7D212"/>
<path d="M5577.77 3239.43L5438.84 3272.09L5547.03 3378.8L5577.77 3239.43Z" fill="#E7D212"/>
<path d="M5720.89 3376.26L5581.96 3408.92L5690.15 3515.63L5720.89 3376.26Z" fill="#E7D212"/>
<path d="M5720.89 3376.26L5581.96 3408.92L5690.15 3515.63L5720.89 3376.26Z" fill="#E7D212"/>
<path d="M5720.89 3376.26L5581.96 3408.92L5690.15 3515.63L5720.89 3376.26Z" fill="#E7D212"/>
<path d="M5720.89 3376.26L5581.96 3408.92L5690.15 3515.63L5720.89 3376.26Z" fill="#E7D212"/>
<path d="M5720.89 3376.26L5581.96 3408.92L5690.15 3515.63L5720.89 3376.26Z" fill="#E7D212"/>
<path d="M5853.52 3499.46L5714.58 3532.13L5822.77 3638.83L5853.52 3499.46Z" fill="#E7D212"/>
<path d="M5853.52 3499.46L5714.58 3532.13L5822.77 3638.83L5853.52 3499.46Z" fill="#E7D212"/>
<path d="M5853.52 3499.46L5714.58 3532.13L5822.77 3638.83L5853.52 3499.46Z" fill="#E7D212"/>
<path d="M5853.52 3499.46L5714.58 3532.13L5822.77 3638.83L5853.52 3499.46Z" fill="#E7D212"/>
<path d="M5853.52 3499.46L5714.58 3532.13L5822.77 3638.83L5853.52 3499.46Z" fill="#E7D212"/>
<path d="M5997.5 3632.26L5858.56 3664.92L5966.75 3771.63L5997.5 3632.26Z" fill="#E7D212"/>
<path d="M5997.5 3632.26L5858.56 3664.92L5966.75 3771.63L5997.5 3632.26Z" fill="#E7D212"/>
<path d="M5997.5 3632.26L5858.56 3664.92L5966.75 3771.63L5997.5 3632.26Z" fill="#E7D212"/>
<path d="M5997.5 3632.26L5858.56 3664.92L5966.75 3771.63L5997.5 3632.26Z" fill="#E7D212"/>
<path d="M5997.5 3632.26L5858.56 3664.92L5966.75 3771.63L5997.5 3632.26Z" fill="#E7D212"/>
<path d="M6136.11 3755.24L5997.18 3787.91L6105.37 3894.61L6136.11 3755.24Z" fill="#E7D212"/>
<path d="M6136.11 3755.24L5997.18 3787.91L6105.37 3894.61L6136.11 3755.24Z" fill="#E7D212"/>
<path d="M6136.11 3755.24L5997.18 3787.91L6105.37 3894.61L6136.11 3755.24Z" fill="#E7D212"/>
<path d="M6136.11 3755.24L5997.18 3787.91L6105.37 3894.61L6136.11 3755.24Z" fill="#E7D212"/>
<path d="M6136.11 3755.24L5997.18 3787.91L6105.37 3894.61L6136.11 3755.24Z" fill="#E7D212"/>
<circle cx="1983" cy="2191" r="60" fill="#18EDA9"/>
<circle cx="3154" cy="984" r="60" fill="#18EDA9"/>
<circle cx="3021" cy="1126" r="60" fill="#18EDA9"/>
<circle cx="2899" cy="1272" r="60" fill="#18EDA9"/>
<circle cx="2763" cy="1393" r="60" fill="#18EDA9"/>
<circle cx="2643" cy="1521" r="60" fill="#18EDA9"/>
<circle cx="2515" cy="1648" r="60" fill="#18EDA9"/>
<circle cx="2381" cy="1786" r="60" fill="#18EDA9"/>
<circle cx="2261" cy="1929" r="60" fill="#18EDA9"/>
<circle cx="2123" cy="2058" r="60" fill="#18EDA9"/>
<circle cx="60" cy="60" r="60" transform="matrix(-1 0 0 1 4754 2132)" fill="#18EDA9"/>
<circle cx="60" cy="60" r="60" transform="matrix(-1 0 0 1 3583 925)" fill="#18EDA9"/>
<circle cx="60" cy="60" r="60" transform="matrix(-1 0 0 1 3716 1067)" fill="#18EDA9"/>
<circle cx="60" cy="60" r="60" transform="matrix(-1 0 0 1 3838 1213)" fill="#18EDA9"/>
<circle cx="60" cy="60" r="60" transform="matrix(-1 0 0 1 3974 1334)" fill="#18EDA9"/>
<circle cx="60" cy="60" r="60" transform="matrix(-1 0 0 1 4094 1462)" fill="#18EDA9"/>
<circle cx="60" cy="60" r="60" transform="matrix(-1 0 0 1 4222 1589)" fill="#18EDA9"/>
<circle cx="60" cy="60" r="60" transform="matrix(-1 0 0 1 4356 1727)" fill="#18EDA9"/>
<circle cx="60" cy="60" r="60" transform="matrix(-1 0 0 1 4476 1870)" fill="#18EDA9"/>
<circle cx="60" cy="60" r="60" transform="matrix(-1 0 0 1 4614 1999)" fill="#18EDA9"/>
</svg>
